M48
INCH
T1C00.024
T2C00.031
T3C00.032
T4C00.035
T5C00.039
T6C00.043
T7C00.051
T8C00.122
%
T001
X01067Y02840
X01167Y02515
X01167Y02640
X01167Y02840
X01304Y02165
X01467Y01978
X01567Y01978
X01779Y02465
X01792Y02890
X01854Y02715
X01854Y02890
X01962Y02705
X01962Y02770
X02154Y02240
X02154Y02665
X02167Y02853
X02167Y02953
X02167Y03740
X02267Y03740
X02354Y01978
X02442Y03153
X02454Y01978
X02479Y02615
X02492Y02803
X02542Y03103
X02592Y02590
X02592Y02803
X02617Y02503
X02667Y02165
X02667Y02265
X02692Y03528
X02729Y02378
X02804Y02378
X02854Y02503
X02892Y03240
X02892Y03440
X02929Y02765
X02929Y03053
X03167Y02128
X03304Y03515
X03342Y03665
X03342Y03740
T002
X00967Y02390
X01067Y01940
X01067Y02140
X01167Y02390
X01704Y02103
X01779Y02027
X01779Y02178
X01867Y03190
X02317Y02340
X02317Y02540
X03467Y01040
X03467Y01240
X03467Y01440
X03867Y01040
X03867Y01240
X03867Y01440
T003
X00842Y03303
X00842Y03453
X01067Y03190
X01167Y03190
X01267Y03190
X01367Y03190
X01467Y03190
X01567Y03190
X01667Y03190
X01767Y03190
T004
X01067Y03740
X01167Y03740
X01267Y03740
X01367Y03740
X01467Y03740
X01567Y03740
X01667Y03740
X01767Y03740
X01867Y03740
X01967Y03740
T005
X00767Y01940
X00767Y02040
X00767Y02140
X00767Y02240
X00767Y02340
X00767Y02440
X00767Y02640
X00767Y02740
X00767Y02840
X00767Y02940
X00767Y03040
X00767Y03140
X00867Y00440
X00867Y00640
X00867Y01040
X00867Y01540
X01067Y00440
X01067Y00640
X01067Y01040
X01067Y01540
X01967Y03340
X01967Y03440
X02067Y03340
X02067Y03440
X02167Y03340
X02167Y03440
X02267Y03340
X02267Y03440
X02367Y03340
X02367Y03440
T006
X03117Y03090
X03117Y03190
X03117Y03290
X03217Y03190
X03667Y00440
X03667Y00640
X03667Y00740
X03767Y02940
X03767Y03140
X03767Y03240
T007
X01626Y00218
X01626Y00415
X01626Y01399
X01626Y01596
X02867Y03690
X03004Y00218
X03004Y00612
X03004Y01203
X03004Y01596
X03067Y03690
X03528Y02551
X03530Y02069
X03767Y01990
X04003Y02069
X04005Y02550
T008
X00754Y00190
X00754Y03753
X03929Y00190
X03929Y03753
M30
