%FSLAX23Y23*%
%MOIN*%
G04 EasyPC Gerber Version 14.0.2 Build 2922 *
%ADD25C,0.00500*%
%ADD24C,0.10000*%
X0Y0D02*
D02*
D24*
X754Y190D03*
Y3753D03*
X766Y1940D03*
Y2040D03*
Y2140D03*
Y2240D03*
Y2340D03*
Y2440D03*
Y2640D03*
Y2740D03*
Y2840D03*
Y2940D03*
Y3040D03*
Y3140D03*
X842Y3303D03*
Y3453D03*
X867Y440D03*
Y640D03*
Y1040D03*
Y1540D03*
X967Y2390D03*
X1067Y440D03*
Y640D03*
Y1040D03*
Y1540D03*
Y1940D03*
Y2140D03*
Y2840D03*
Y3190D03*
Y3740D03*
X1167Y2390D03*
Y2515D03*
Y2640D03*
Y2840D03*
Y3190D03*
Y3740D03*
X1267Y3190D03*
Y3740D03*
X1304Y2165D03*
X1367Y3190D03*
Y3740D03*
X1466Y1978D03*
Y3190D03*
Y3740D03*
X1566Y1978D03*
Y3190D03*
Y3740D03*
X1626Y218D03*
Y415D03*
Y1399D03*
Y1596D03*
X1666Y3190D03*
Y3740D03*
X1704Y2103D03*
X1766Y3190D03*
Y3740D03*
X1779Y2028D03*
Y2178D03*
Y2465D03*
X1791Y2890D03*
X1854Y2715D03*
Y2890D03*
X1866Y3190D03*
Y3740D03*
X1962Y2705D03*
Y2770D03*
X1966Y3340D03*
Y3440D03*
Y3740D03*
X2067Y3340D03*
Y3440D03*
X2154Y2240D03*
Y2665D03*
X2167Y2853D03*
Y2953D03*
Y3340D03*
Y3440D03*
Y3740D03*
X2267Y3340D03*
Y3440D03*
Y3740D03*
X2317Y2340D03*
Y2540D03*
X2354Y1978D03*
X2367Y3340D03*
Y3440D03*
X2442Y3153D03*
X2454Y1978D03*
X2479Y2615D03*
X2492Y2803D03*
X2542Y3103D03*
X2592Y2590D03*
Y2803D03*
X2617Y2503D03*
X2667Y2165D03*
Y2265D03*
X2692Y3528D03*
X2729Y2378D03*
X2804D03*
X2854Y2503D03*
X2867Y3690D03*
X2892Y3240D03*
Y3440D03*
X2929Y2765D03*
Y3053D03*
X3004Y218D03*
Y612D03*
Y1202D03*
Y1596D03*
X3067Y3690D03*
X3117Y3090D03*
Y3190D03*
Y3290D03*
X3167Y2128D03*
X3217Y3190D03*
X3304Y3515D03*
X3342Y3665D03*
Y3740D03*
X3467Y1040D03*
Y1240D03*
Y1440D03*
X3528Y2551D03*
X3530Y2069D03*
X3667Y440D03*
Y640D03*
Y740D03*
X3767Y1990D03*
Y2940D03*
Y3140D03*
Y3240D03*
X3867Y1040D03*
Y1240D03*
Y1440D03*
X3929Y190D03*
Y3753D03*
X4003Y2069D03*
X4005Y2550D03*
D02*
D25*
X854Y249D02*
Y287D01*
Y268D02*
X885D01*
Y249D02*
Y287D01*
X854Y3812D02*
Y3849D01*
Y3831D02*
X885D01*
Y3812D02*
Y3849D01*
X867Y1999D02*
Y2037D01*
X885*
X891Y2034*
X895Y2031*
X898Y2024*
Y2012*
X895Y2006*
X891Y2003*
X885Y1999*
X867*
Y2099D02*
Y2137D01*
X885*
X891Y2134*
X895Y2131*
X898Y2124*
Y2112*
X895Y2106*
X891Y2103*
X885Y2099*
X867*
Y2199D02*
Y2237D01*
X885*
X891Y2234*
X895Y2231*
X898Y2224*
Y2212*
X895Y2206*
X891Y2203*
X885Y2199*
X867*
Y2299D02*
Y2337D01*
X885*
X891Y2334*
X895Y2331*
X898Y2324*
Y2312*
X895Y2306*
X891Y2303*
X885Y2299*
X867*
Y2399D02*
Y2437D01*
X885*
X891Y2434*
X895Y2431*
X898Y2424*
Y2412*
X895Y2406*
X891Y2403*
X885Y2399*
X867*
Y2499D02*
Y2537D01*
X885*
X891Y2534*
X895Y2531*
X898Y2524*
Y2512*
X895Y2506*
X891Y2503*
X885Y2499*
X867*
Y2699D02*
Y2737D01*
X885*
X891Y2734*
X895Y2731*
X898Y2724*
Y2712*
X895Y2706*
X891Y2703*
X885Y2699*
X867*
Y2799D02*
Y2837D01*
X885*
X891Y2834*
X895Y2831*
X898Y2824*
Y2812*
X895Y2806*
X891Y2803*
X885Y2799*
X867*
Y2899D02*
Y2937D01*
X885*
X891Y2934*
X895Y2931*
X898Y2924*
Y2912*
X895Y2906*
X891Y2903*
X885Y2899*
X867*
Y2999D02*
Y3037D01*
X885*
X891Y3034*
X895Y3031*
X898Y3024*
Y3012*
X895Y3006*
X891Y3003*
X885Y2999*
X867*
Y3099D02*
Y3137D01*
X885*
X891Y3134*
X895Y3131*
X898Y3124*
Y3112*
X895Y3106*
X891Y3103*
X885Y3099*
X867*
Y3199D02*
Y3237D01*
X885*
X891Y3234*
X895Y3231*
X898Y3224*
Y3212*
X895Y3206*
X891Y3203*
X885Y3199*
X867*
X963Y3378D02*
X973D01*
Y3374*
X970Y3368*
X967Y3365*
X960Y3362*
X954*
X948Y3365*
X945Y3368*
X941Y3374*
Y3387*
X945Y3393*
X948Y3396*
X954Y3399*
X960*
X967Y3396*
X970Y3393*
X973Y3387*
X963Y3528D02*
X973D01*
Y3524*
X970Y3518*
X967Y3515*
X960Y3512*
X954*
X948Y3515*
X945Y3518*
X941Y3524*
Y3537*
X945Y3543*
X948Y3546*
X954Y3549*
X960*
X967Y3546*
X970Y3543*
X973Y3537*
X967Y499D02*
Y537D01*
X985*
X992Y534*
X995Y531*
X998Y524*
Y512*
X995Y506*
X992Y502*
X985Y499*
X967*
Y699D02*
Y737D01*
X985*
X992Y734*
X995Y731*
X998Y724*
Y712*
X995Y706*
X992Y703*
X985Y699*
X967*
Y1099D02*
Y1137D01*
X985*
X992Y1134*
X995Y1131*
X998Y1124*
Y1112*
X995Y1106*
X992Y1103*
X985Y1099*
X967*
Y1599D02*
Y1637D01*
X985*
X992Y1634*
X995Y1631*
X998Y1624*
Y1612*
X995Y1606*
X992Y1603*
X985Y1599*
X967*
X1098Y2456D02*
X1095Y2453D01*
X1088Y2449*
X1079*
X1073Y2453*
X1070Y2456*
X1067Y2462*
Y2474*
X1070Y2481*
X1073Y2484*
X1079Y2487*
X1088*
X1095Y2484*
X1098Y2481*
X1167Y499D02*
Y537D01*
X1185*
X1192Y534*
X1195Y531*
X1198Y524*
Y512*
X1195Y506*
X1192Y502*
X1185Y499*
X1167*
Y699D02*
Y737D01*
X1185*
X1192Y734*
X1195Y731*
X1198Y724*
Y712*
X1195Y706*
X1192Y703*
X1185Y699*
X1167*
Y1099D02*
Y1137D01*
X1185*
X1192Y1134*
X1195Y1131*
X1198Y1124*
Y1112*
X1195Y1106*
X1192Y1103*
X1185Y1099*
X1167*
Y1599D02*
Y1637D01*
X1185*
X1192Y1634*
X1195Y1631*
X1198Y1624*
Y1612*
X1195Y1606*
X1192Y1603*
X1185Y1599*
X1167*
X1198Y2006D02*
X1195Y2003D01*
X1188Y1999*
X1179*
X1173Y2003*
X1170Y2006*
X1167Y2012*
Y2024*
X1170Y2031*
X1173Y2034*
X1179Y2037*
X1188*
X1195Y2034*
X1198Y2031*
Y2206D02*
X1195Y2203D01*
X1188Y2199*
X1179*
X1173Y2203*
X1170Y2206*
X1167Y2212*
Y2224*
X1170Y2231*
X1173Y2234*
X1179Y2237*
X1188*
X1195Y2234*
X1198Y2231*
X1167Y2899D02*
X1182Y2937D01*
X1198Y2899*
X1173Y2915D02*
X1192D01*
X1188Y3265D02*
X1198D01*
Y3262*
X1195Y3256*
X1192Y3253*
X1185Y3249*
X1179*
X1173Y3253*
X1170Y3256*
X1167Y3262*
Y3274*
X1170Y3281*
X1173Y3284*
X1179Y3287*
X1185*
X1192Y3284*
X1195Y3281*
X1198Y3274*
X1167Y3799D02*
Y3837D01*
X1198*
X1192Y3818D02*
X1167D01*
Y3799D02*
X1198D01*
X1298Y2456D02*
X1295Y2453D01*
X1288Y2449*
X1279*
X1273Y2453*
X1270Y2456*
X1267Y2462*
Y2474*
X1270Y2481*
X1273Y2484*
X1279Y2487*
X1288*
X1295Y2484*
X1298Y2481*
X1267Y2574D02*
X1282Y2612D01*
X1298Y2574*
X1273Y2590D02*
X1292D01*
X1267Y2699D02*
X1282Y2737D01*
X1298Y2699*
X1273Y2715D02*
X1292D01*
X1267Y2899D02*
X1282Y2937D01*
X1298Y2899*
X1273Y2915D02*
X1292D01*
X1288Y3265D02*
X1298D01*
Y3262*
X1295Y3256*
X1292Y3253*
X1285Y3249*
X1279*
X1273Y3253*
X1270Y3256*
X1267Y3262*
Y3274*
X1270Y3281*
X1273Y3284*
X1279Y3287*
X1285*
X1292Y3284*
X1295Y3281*
X1298Y3274*
X1267Y3799D02*
Y3837D01*
X1298*
X1292Y3818D02*
X1267D01*
Y3799D02*
X1298D01*
X1388Y3265D02*
X1398D01*
Y3262*
X1395Y3256*
X1391Y3253*
X1385Y3249*
X1379*
X1373Y3253*
X1370Y3256*
X1367Y3262*
Y3274*
X1370Y3281*
X1373Y3284*
X1379Y3287*
X1385*
X1391Y3284*
X1395Y3281*
X1398Y3274*
X1367Y3799D02*
Y3837D01*
X1398*
X1391Y3818D02*
X1367D01*
Y3799D02*
X1398D01*
X1404Y2224D02*
X1420Y2262D01*
X1435Y2224*
X1410Y2240D02*
X1429D01*
X1488Y3265D02*
X1498D01*
Y3262*
X1495Y3256*
X1492Y3253*
X1485Y3249*
X1479*
X1473Y3253*
X1470Y3256*
X1466Y3262*
Y3274*
X1470Y3281*
X1473Y3284*
X1479Y3287*
X1485*
X1492Y3284*
X1495Y3281*
X1498Y3274*
X1466Y3799D02*
Y3837D01*
X1498*
X1492Y3818D02*
X1466D01*
Y3799D02*
X1498D01*
X1566Y2037D02*
X1582Y2074D01*
X1598Y2037*
X1573Y2053D02*
X1591D01*
X1588Y3265D02*
X1598D01*
Y3262*
X1595Y3256*
X1591Y3253*
X1585Y3249*
X1579*
X1573Y3253*
X1570Y3256*
X1566Y3262*
Y3274*
X1570Y3281*
X1573Y3284*
X1579Y3287*
X1585*
X1591Y3284*
X1595Y3281*
X1598Y3274*
X1566Y3799D02*
Y3837D01*
X1598*
X1591Y3818D02*
X1566D01*
Y3799D02*
X1598D01*
X1666Y2037D02*
X1682Y2074D01*
X1698Y2037*
X1673Y2053D02*
X1691D01*
X1688Y3265D02*
X1698D01*
Y3262*
X1695Y3256*
X1691Y3253*
X1685Y3249*
X1679*
X1673Y3253*
X1670Y3256*
X1666Y3262*
Y3274*
X1670Y3281*
X1673Y3284*
X1679Y3287*
X1685*
X1691Y3284*
X1695Y3281*
X1698Y3274*
X1666Y3799D02*
Y3837D01*
X1698*
X1691Y3818D02*
X1666D01*
Y3799D02*
X1698D01*
X1726Y278D02*
Y315D01*
X1757*
X1751Y296D02*
X1726D01*
Y474D02*
Y512D01*
X1757*
X1751Y493D02*
X1726D01*
Y1459D02*
Y1496D01*
X1757*
X1751Y1477D02*
X1726D01*
Y1656D02*
Y1693D01*
X1757*
X1751Y1674D02*
X1726D01*
X1788Y3265D02*
X1798D01*
Y3262*
X1795Y3256*
X1791Y3253*
X1785Y3249*
X1779*
X1773Y3253*
X1770Y3256*
X1766Y3262*
Y3274*
X1770Y3281*
X1773Y3284*
X1779Y3287*
X1785*
X1791Y3284*
X1795Y3281*
X1798Y3274*
X1766Y3799D02*
Y3837D01*
X1798*
X1791Y3818D02*
X1766D01*
Y3799D02*
X1798D01*
X1835Y2168D02*
X1832Y2165D01*
X1826Y2162*
X1816*
X1810Y2165*
X1807Y2168*
X1804Y2174*
Y2187*
X1807Y2193*
X1810Y2196*
X1816Y2199*
X1826*
X1832Y2196*
X1835Y2193*
X1888Y3265D02*
X1898D01*
Y3262*
X1895Y3256*
X1891Y3253*
X1885Y3249*
X1879*
X1873Y3253*
X1870Y3256*
X1866Y3262*
Y3274*
X1870Y3281*
X1873Y3284*
X1879Y3287*
X1885*
X1891Y3284*
X1895Y3281*
X1898Y3274*
X1866Y3799D02*
Y3837D01*
X1898*
X1891Y3818D02*
X1866D01*
Y3799D02*
X1898D01*
X1910Y2093D02*
X1907Y2090D01*
X1901Y2087*
X1891*
X1885Y2090*
X1882Y2093*
X1879Y2099*
Y2112*
X1882Y2118*
X1885Y2121*
X1891Y2124*
X1901*
X1907Y2121*
X1910Y2118*
Y2243D02*
X1907Y2240D01*
X1901Y2237*
X1891*
X1885Y2240*
X1882Y2243*
X1879Y2249*
Y2262*
X1882Y2268*
X1885Y2271*
X1891Y2274*
X1901*
X1907Y2271*
X1910Y2268*
X1879Y2524D02*
X1895Y2562D01*
X1910Y2524*
X1885Y2540D02*
X1904D01*
X1891Y2949D02*
X1907Y2987D01*
X1923Y2949*
X1898Y2965D02*
X1916D01*
X1954Y2774D02*
X1970Y2812D01*
X1985Y2774*
X1960Y2790D02*
X1979D01*
X1954Y2949D02*
X1970Y2987D01*
X1985Y2949*
X1960Y2965D02*
X1979D01*
X1998Y3256D02*
X1995Y3253D01*
X1988Y3249*
X1979*
X1973Y3253*
X1970Y3256*
X1966Y3262*
Y3274*
X1970Y3281*
X1973Y3284*
X1979Y3287*
X1988*
X1995Y3284*
X1998Y3281*
X1966Y3799D02*
Y3837D01*
X1998*
X1991Y3818D02*
X1966D01*
Y3799D02*
X1998D01*
X2062Y2764D02*
X2077Y2802D01*
X2093Y2764*
X2068Y2780D02*
X2087D01*
X2062Y2829D02*
X2077Y2867D01*
X2093Y2829*
X2068Y2845D02*
X2087D01*
X2067Y3399D02*
Y3437D01*
X2085*
X2092Y3434*
X2095Y3431*
X2098Y3424*
Y3412*
X2095Y3406*
X2092Y3403*
X2085Y3399*
X2067*
Y3499D02*
Y3537D01*
X2085*
X2092Y3534*
X2095Y3531*
X2098Y3524*
Y3512*
X2095Y3506*
X2092Y3503*
X2085Y3499*
X2067*
Y3799D02*
Y3837D01*
X2098*
X2092Y3818D02*
X2067D01*
Y3799D02*
X2098D01*
X2167Y3399D02*
Y3437D01*
X2185*
X2192Y3434*
X2195Y3431*
X2198Y3424*
Y3412*
X2195Y3406*
X2192Y3403*
X2185Y3399*
X2167*
Y3499D02*
Y3537D01*
X2185*
X2192Y3534*
X2195Y3531*
X2198Y3524*
Y3512*
X2195Y3506*
X2192Y3503*
X2185Y3499*
X2167*
X2254Y2299D02*
X2270Y2337D01*
X2285Y2299*
X2260Y2315D02*
X2279D01*
X2254Y2724D02*
X2270Y2762D01*
X2285Y2724*
X2260Y2740D02*
X2279D01*
X2267Y2912D02*
X2282Y2949D01*
X2298Y2912*
X2273Y2928D02*
X2292D01*
X2267Y3012D02*
X2282Y3049D01*
X2298Y3012*
X2273Y3028D02*
X2292D01*
X2267Y3399D02*
Y3437D01*
X2285*
X2292Y3434*
X2295Y3431*
X2298Y3424*
Y3412*
X2295Y3406*
X2292Y3403*
X2285Y3399*
X2267*
Y3499D02*
Y3537D01*
X2285*
X2292Y3534*
X2295Y3531*
X2298Y3524*
Y3512*
X2295Y3506*
X2292Y3503*
X2285Y3499*
X2267*
Y3799D02*
X2282Y3837D01*
X2298Y3799*
X2273Y3815D02*
X2292D01*
X2367Y3399D02*
Y3437D01*
X2385*
X2392Y3434*
X2395Y3431*
X2398Y3424*
Y3412*
X2395Y3406*
X2392Y3403*
X2385Y3399*
X2367*
Y3499D02*
Y3537D01*
X2385*
X2392Y3534*
X2395Y3531*
X2398Y3524*
Y3512*
X2395Y3506*
X2392Y3503*
X2385Y3499*
X2367*
Y3799D02*
X2382Y3837D01*
X2398Y3799*
X2373Y3815D02*
X2392D01*
X2448Y2406D02*
X2445Y2403D01*
X2438Y2399*
X2429*
X2423Y2403*
X2420Y2406*
X2417Y2412*
Y2424*
X2420Y2431*
X2423Y2434*
X2429Y2437*
X2438*
X2445Y2434*
X2448Y2431*
Y2606D02*
X2445Y2603D01*
X2438Y2599*
X2429*
X2423Y2603*
X2420Y2606*
X2417Y2612*
Y2624*
X2420Y2631*
X2423Y2634*
X2429Y2637*
X2438*
X2445Y2634*
X2448Y2631*
X2454Y2037D02*
X2470Y2074D01*
X2485Y2037*
X2460Y2053D02*
X2479D01*
X2467Y3399D02*
Y3437D01*
X2485*
X2492Y3434*
X2495Y3431*
X2498Y3424*
Y3412*
X2495Y3406*
X2492Y3403*
X2485Y3399*
X2467*
Y3499D02*
Y3537D01*
X2485*
X2492Y3534*
X2495Y3531*
X2498Y3524*
Y3512*
X2495Y3506*
X2492Y3503*
X2485Y3499*
X2467*
X2542Y3212D02*
X2557Y3249D01*
X2573Y3212*
X2548Y3228D02*
X2567D01*
X2554Y2037D02*
X2570Y2074D01*
X2585Y2037*
X2560Y2053D02*
X2579D01*
Y2674D02*
X2595Y2712D01*
X2610Y2674*
X2585Y2690D02*
X2604D01*
X2592Y2862D02*
X2607Y2899D01*
X2623Y2862*
X2598Y2878D02*
X2617D01*
X2642Y3162D02*
X2657Y3199D01*
X2673Y3162*
X2648Y3178D02*
X2667D01*
X2692Y2649D02*
X2707Y2687D01*
X2723Y2649*
X2698Y2665D02*
X2717D01*
X2692Y2862D02*
X2707Y2899D01*
X2723Y2862*
X2698Y2878D02*
X2717D01*
Y2562D02*
X2732Y2599D01*
X2748Y2562*
X2723Y2578D02*
X2742D01*
X2767Y2224D02*
X2782Y2262D01*
X2798Y2224*
X2773Y2240D02*
X2792D01*
X2767Y2324D02*
X2782Y2362D01*
X2798Y2324*
X2773Y2340D02*
X2792D01*
Y3587D02*
X2807Y3624D01*
X2823Y3587*
X2798Y3603D02*
X2817D01*
X2829Y2437D02*
X2845Y2474D01*
X2860Y2437*
X2835Y2453D02*
X2854D01*
X2904Y2437D02*
X2920Y2474D01*
X2935Y2437*
X2910Y2453D02*
X2929D01*
X2954Y2562D02*
X2970Y2599D01*
X2985Y2562*
X2960Y2578D02*
X2979D01*
X2967Y3749D02*
Y3787D01*
X2998*
X2992Y3768D02*
X2967D01*
X2992Y3299D02*
X3007Y3337D01*
X3023Y3299*
X2998Y3315D02*
X3017D01*
X2992Y3499D02*
X3007Y3537D01*
X3023Y3499*
X2998Y3515D02*
X3017D01*
X3029Y2824D02*
X3045Y2862D01*
X3060Y2824*
X3035Y2840D02*
X3054D01*
X3029Y3112D02*
X3045Y3149D01*
X3060Y3112*
X3035Y3128D02*
X3054D01*
X3104Y278D02*
Y315D01*
X3135*
X3129Y296D02*
X3104D01*
Y671D02*
Y709D01*
X3135*
X3129Y690D02*
X3104D01*
Y1262D02*
Y1299D01*
X3135*
X3129Y1281D02*
X3104D01*
Y1656D02*
Y1693D01*
X3135*
X3129Y1674D02*
X3104D01*
X3167Y3749D02*
Y3787D01*
X3198*
X3192Y3768D02*
X3167D01*
X3238Y3168D02*
X3245Y3165D01*
X3248Y3159*
X3245Y3153*
X3238Y3149*
X3217*
Y3187*
X3238*
X3245Y3184*
X3248Y3178*
X3245Y3171*
X3238Y3168*
X3217*
X3238Y3268D02*
X3245Y3265D01*
X3248Y3259*
X3245Y3253*
X3238Y3249*
X3217*
Y3287*
X3238*
X3245Y3284*
X3248Y3278*
X3245Y3271*
X3238Y3268*
X3217*
X3238Y3368D02*
X3245Y3365D01*
X3248Y3359*
X3245Y3353*
X3238Y3349*
X3217*
Y3387*
X3238*
X3245Y3384*
X3248Y3378*
X3245Y3371*
X3238Y3368*
X3217*
X3267Y2187D02*
X3282Y2224D01*
X3298Y2187*
X3273Y2203D02*
X3292D01*
X3338Y3268D02*
X3345Y3265D01*
X3348Y3259*
X3345Y3253*
X3338Y3249*
X3317*
Y3287*
X3338*
X3345Y3284*
X3348Y3278*
X3345Y3271*
X3338Y3268*
X3317*
X3404Y3574D02*
X3420Y3612D01*
X3435Y3574*
X3410Y3590D02*
X3429D01*
X3442Y3724D02*
X3457Y3762D01*
X3473Y3724*
X3448Y3740D02*
X3467D01*
X3442Y3799D02*
X3457Y3837D01*
X3473Y3799*
X3448Y3815D02*
X3467D01*
X3598Y1106D02*
X3595Y1103D01*
X3588Y1099*
X3579*
X3573Y1103*
X3570Y1106*
X3567Y1112*
Y1124*
X3570Y1131*
X3573Y1134*
X3579Y1137*
X3588*
X3595Y1134*
X3598Y1131*
Y1306D02*
X3595Y1303D01*
X3588Y1299*
X3579*
X3573Y1303*
X3570Y1306*
X3567Y1312*
Y1324*
X3570Y1331*
X3573Y1334*
X3579Y1337*
X3588*
X3595Y1334*
X3598Y1331*
Y1506D02*
X3595Y1503D01*
X3588Y1499*
X3579*
X3573Y1503*
X3570Y1506*
X3567Y1512*
Y1524*
X3570Y1531*
X3573Y1534*
X3579Y1537*
X3588*
X3595Y1534*
X3598Y1531*
X3628Y2610D02*
Y2648D01*
X3659*
X3653Y2629D02*
X3628D01*
X3630Y2128D02*
Y2165D01*
X3662*
X3655Y2147D02*
X3630D01*
X3788Y518D02*
X3795Y515D01*
X3798Y509*
X3795Y502*
X3788Y499*
X3767*
Y537*
X3788*
X3795Y534*
X3798Y527*
X3795Y521*
X3788Y518*
X3767*
X3788Y718D02*
X3795Y715D01*
X3798Y709*
X3795Y703*
X3788Y699*
X3767*
Y737*
X3788*
X3795Y734*
X3798Y728*
X3795Y721*
X3788Y718*
X3767*
X3788Y818D02*
X3795Y815D01*
X3798Y809*
X3795Y803*
X3788Y799*
X3767*
Y837*
X3788*
X3795Y834*
X3798Y828*
X3795Y821*
X3788Y818*
X3767*
X3867Y2049D02*
Y2087D01*
X3898*
X3892Y2068D02*
X3867D01*
X3888Y3018D02*
X3895Y3015D01*
X3898Y3009*
X3895Y3003*
X3888Y2999*
X3867*
Y3037*
X3888*
X3895Y3034*
X3898Y3028*
X3895Y3021*
X3888Y3018*
X3867*
X3888Y3218D02*
X3895Y3215D01*
X3898Y3209*
X3895Y3203*
X3888Y3199*
X3867*
Y3237*
X3888*
X3895Y3234*
X3898Y3228*
X3895Y3221*
X3888Y3218*
X3867*
X3888Y3318D02*
X3895Y3315D01*
X3898Y3309*
X3895Y3303*
X3888Y3299*
X3867*
Y3337*
X3888*
X3895Y3334*
X3898Y3328*
X3895Y3321*
X3888Y3318*
X3867*
X3998Y1106D02*
X3995Y1103D01*
X3988Y1099*
X3979*
X3973Y1103*
X3970Y1106*
X3967Y1112*
Y1124*
X3970Y1131*
X3973Y1134*
X3979Y1137*
X3988*
X3995Y1134*
X3998Y1131*
Y1306D02*
X3995Y1303D01*
X3988Y1299*
X3979*
X3973Y1303*
X3970Y1306*
X3967Y1312*
Y1324*
X3970Y1331*
X3973Y1334*
X3979Y1337*
X3988*
X3995Y1334*
X3998Y1331*
Y1506D02*
X3995Y1503D01*
X3988Y1499*
X3979*
X3973Y1503*
X3970Y1506*
X3967Y1512*
Y1524*
X3970Y1531*
X3973Y1534*
X3979Y1537*
X3988*
X3995Y1534*
X3998Y1531*
X4029Y249D02*
Y287D01*
Y268D02*
X4060D01*
Y249D02*
Y287D01*
X4029Y3812D02*
Y3849D01*
Y3831D02*
X4060D01*
Y3812D02*
Y3849D01*
X4103Y2128D02*
Y2166D01*
X4134*
X4128Y2147D02*
X4103D01*
X4105Y2609D02*
Y2647D01*
X4136*
X4130Y2628D02*
X4105D01*
X0Y0D02*
M02*
