%FSLAX23Y23*%
%MOIN*%
G04 EasyPC Gerber Version 14.0.2 Build 2922 *
%ADD77C,0.00100*%
%ADD24C,0.00500*%
%ADD26C,0.00800*%
%ADD13C,0.01000*%
%ADD20C,0.01200*%
X0Y0D02*
D02*
D13*
X1410Y203D02*
X1466D01*
X1479Y209*
X1485Y221*
Y246*
X1479Y259*
X1466Y265*
X1410*
X1485Y321D02*
Y346D01*
Y334D02*
X1410D01*
Y321D02*
Y346D01*
X1479Y409D02*
X1485Y421D01*
Y434*
X1479Y446*
X1466Y453*
X1454Y446*
X1448Y434*
Y421*
Y434D02*
X1441Y446D01*
X1429Y453*
X1417Y446*
X1410Y434*
Y421*
X1417Y409*
X1479Y509D02*
X1485Y521D01*
Y534*
X1479Y546*
X1466Y553*
X1429*
X1417Y546*
X1410Y534*
Y521*
X1417Y509*
X1429Y502*
X1466*
X1479Y509*
X1417Y546*
X1460Y603D02*
Y653D01*
X1485Y715D02*
Y740D01*
Y728D02*
X1410D01*
X1423Y715*
X1479Y809D02*
X1485Y821D01*
Y834*
X1479Y846*
X1466Y853*
X1429*
X1417Y846*
X1410Y834*
Y821*
X1417Y809*
X1429Y803*
X1466*
X1479Y809*
X1417Y846*
X1485Y928D02*
X1479Y934D01*
X1473*
X1479Y1002D02*
X1485Y1015D01*
Y1034*
X1479Y1046*
X1466Y1053*
X1460*
X1448Y1046*
X1441Y1034*
Y1002*
X1410*
Y1053*
X1448Y1246D02*
X1454Y1259D01*
X1466Y1265*
X1479Y1259*
X1485Y1246*
Y1202*
X1410*
Y1246*
X1417Y1259*
X1429Y1265*
X1441Y1259*
X1448Y1246*
Y1202*
X1410Y1303D02*
X1485D01*
Y1365*
X4048Y403D02*
X3973D01*
X4048Y465*
X3973*
X4048Y502D02*
X3973D01*
Y546*
X3979Y559*
X3992Y565*
X4004Y559*
X4010Y546*
Y502*
X4048Y615D02*
Y640D01*
Y627D02*
X3973D01*
X3985Y615*
X4048Y709D02*
X4042Y715D01*
X4035Y709*
X4042Y703*
X4048Y709*
Y815D02*
Y840D01*
Y828D02*
X3973D01*
X3985Y815*
X4029Y1002D02*
X4042Y1009D01*
X4048Y1021*
Y1034*
X4042Y1046*
X4029Y1053*
X4017*
X4004Y1046*
X3998Y1034*
Y1021*
X4004Y1009*
X4017Y1002*
X4048D02*
X3973D01*
X3998Y1103D02*
X4023Y1109D01*
X4035Y1121*
Y1134*
X4023Y1146*
X3998Y1153*
X4023Y1146D02*
X4048Y1140D01*
X4060Y1134*
X4066Y1121*
X4060Y1109*
X4004Y1353D02*
X3998Y1340D01*
Y1321*
X4004Y1309*
X4017Y1303*
X4029*
X4042Y1309*
X4048Y1321*
Y1340*
X4042Y1353*
X4048Y1403D02*
X3998D01*
X4004D02*
X3998Y1409D01*
Y1421*
X4004Y1428*
X4023*
X4004D02*
X3998Y1434D01*
Y1446*
X4004Y1453*
X4048*
D02*
D20*
X3517Y1440D02*
X3817D01*
Y1040D02*
X3517D01*
X3817Y1240D02*
X3517D01*
D02*
D24*
X3020Y856D02*
X2982D01*
Y840D02*
Y871D01*
X3020Y890D02*
X2982D01*
Y912*
X2985Y918*
X2992Y921*
X2998Y918*
X3001Y912*
Y890*
Y912D02*
X3020Y921D01*
Y946D02*
Y959D01*
Y953D02*
X2982D01*
X2988Y946*
X4117Y3D02*
X567D01*
Y3940*
X4117*
Y3*
D02*
D26*
X654Y190D02*
G75*
G03X754Y90I100D01*
G01*
Y190*
X654*
G36*
G75*
G03X754Y90I100*
G01*
Y190*
X654*
G37*
X645Y2040D02*
X607D01*
Y2062*
X610Y2068*
X617Y2071*
X623Y2068*
X626Y2062*
Y2040*
X607Y2090D02*
X645D01*
Y2121*
Y2140D02*
X607Y2165D01*
Y2140*
X645Y2340D02*
X607D01*
Y2362*
X610Y2368*
X617Y2371*
X623Y2368*
X626Y2362*
Y2340*
X607Y2390D02*
X645D01*
Y2421*
X635Y2440D02*
X629Y2443D01*
X626Y2449*
Y2456*
X629Y2462*
X635Y2465*
X641Y2462*
X645Y2456*
Y2449*
X641Y2443*
X635Y2440*
X626*
X617Y2443*
X610Y2449*
X607Y2456*
X654Y3753D02*
G75*
G03X754Y3653I100D01*
G01*
Y3753*
X654*
G36*
G75*
G03X754Y3653I100*
G01*
Y3753*
X654*
G37*
X667Y2290D02*
Y1890D01*
X867*
Y2290*
X667*
Y2490D02*
Y2290D01*
X867*
Y2490*
X667*
X682Y2790D02*
X645D01*
Y2812*
X648Y2818*
X654Y2821*
X660Y2818*
X663Y2812*
Y2790*
X645Y2840D02*
X682D01*
Y2871*
Y2899D02*
X679Y2906D01*
X673Y2912*
X663Y2915*
X654*
X648Y2912*
X645Y2906*
Y2899*
X648Y2893*
X654Y2890*
X660Y2893*
X663Y2899*
Y2906*
X660Y2912*
X654Y2915*
X717Y3090D02*
X816D01*
X717Y3190D02*
Y2590D01*
X816*
Y3190*
X717*
X720Y2409D02*
Y2421D01*
Y2415D02*
X682D01*
X688Y2409*
X754Y290D02*
G75*
G03Y90J-100D01*
G01*
G75*
G03Y290J100*
G01*
Y3853D02*
G75*
G03Y3653J-100D01*
G01*
G75*
G03Y3853J100*
G01*
X829Y1990D02*
X867D01*
Y2190*
X829*
Y1990*
Y2340D02*
X867D01*
Y2440*
X829*
Y2340*
X842Y3153D02*
Y3203D01*
Y3218D02*
G75*
G02X681Y3378J160D01*
G01*
G75*
G02X842Y3538I160*
G01*
G75*
G02X1002Y3378J-160*
G01*
G75*
G02X842Y3218I-160*
G01*
X854Y190D02*
G75*
G03X754Y290I-100D01*
G01*
Y190*
X854*
G36*
G75*
G03X754Y290I-100*
G01*
Y190*
X854*
G37*
Y3753D02*
G75*
G03X754Y3853I-100D01*
G01*
Y3753*
X854*
G36*
G75*
G03X754Y3853I-100*
G01*
Y3753*
X854*
G37*
X867Y3178D02*
X816D01*
X891Y524D02*
Y562D01*
X913*
X920Y559*
X923Y553*
X920Y546*
X913Y543*
X891*
X913D02*
X923Y524D01*
X963Y543D02*
X970Y540D01*
X973Y534*
X970Y527*
X963Y524*
X941*
Y562*
X963*
X970Y559*
X973Y553*
X970Y546*
X963Y543*
X941*
X998Y524D02*
X1010D01*
X1004D02*
Y562D01*
X998Y556*
X923Y1618D02*
X920Y1615D01*
X913Y1612*
X904*
X898Y1615*
X895Y1618*
X891Y1624*
Y1637*
X895Y1643*
X898Y1646*
X904Y1649*
X913*
X920Y1646*
X923Y1643*
X948Y1612D02*
X960D01*
X954D02*
Y1649D01*
X948Y1643*
X992Y1621D02*
X995Y1628D01*
X1001Y1631*
X1007*
X1013Y1628*
X1016Y1621*
X1013Y1615*
X1007Y1612*
X1001*
X995Y1615*
X992Y1621*
Y1631*
X995Y1640*
X1001Y1646*
X1007Y1649*
X935Y1118D02*
X932Y1115D01*
X926Y1112*
X916*
X910Y1115*
X907Y1118*
X904Y1124*
Y1137*
X907Y1143*
X910Y1146*
X916Y1149*
X926*
X932Y1146*
X935Y1143*
X960Y1112D02*
X973D01*
X967D02*
Y1149D01*
X960Y1143*
X1004Y1112D02*
X1029Y1149D01*
X1004*
X938Y3346D02*
X941Y3343D01*
X945Y3337*
Y3328*
X941Y3321*
X938Y3318*
X932Y3315*
X920*
X913Y3318*
X910Y3321*
X907Y3328*
Y3337*
X910Y3343*
X913Y3346*
X945Y3371D02*
Y3384D01*
Y3378D02*
X907D01*
X913Y3371*
X926Y3424D02*
Y3431D01*
X923Y3437*
X916Y3440*
X910Y3437*
X907Y3431*
Y3424*
X910Y3418*
X916Y3415*
X923Y3418*
X926Y3424*
X929Y3418*
X935Y3415*
X941Y3418*
X945Y3424*
Y3431*
X941Y3437*
X935Y3440*
X929Y3437*
X926Y3431*
X967Y340D02*
G75*
G03Y740J200D01*
G01*
G75*
G03Y340J-200*
G01*
X992Y2015D02*
X1142D01*
X992Y2065D02*
X1142D01*
X1016Y3240D02*
X1891D01*
X1916Y3215*
Y3140*
X1016*
Y3240*
X1029Y2412D02*
Y2374D01*
X1060*
X1085D02*
X1098D01*
X1092D02*
Y2412D01*
X1085Y2406*
X1032Y3458D02*
Y3298D01*
X1102*
Y3458*
X1032*
X1042Y3074D02*
Y3112D01*
X1063*
X1070Y3109*
X1073Y3103*
X1070Y3096*
X1063Y3093*
X1042*
X1063D02*
X1073Y3074D01*
X1092D02*
Y3112D01*
X1123Y3074*
Y3112*
X1148Y3074D02*
X1160D01*
X1154D02*
Y3112D01*
X1148Y3106*
X1067Y1990D02*
Y2015D01*
Y2065D02*
Y2090D01*
X1082Y3478D02*
X1045D01*
Y3499*
X1048Y3506*
X1054Y3509*
X1060Y3506*
X1063Y3499*
Y3478*
Y3499D02*
X1082Y3509D01*
Y3553D02*
Y3528D01*
X1060Y3549*
X1054Y3553*
X1048Y3549*
X1045Y3543*
Y3534*
X1048Y3528*
X1117Y3678D02*
Y3640D01*
X1916*
Y3678*
X1117*
X1129Y353D02*
Y403D01*
X1132Y3458D02*
Y3298D01*
X1202*
Y3458*
X1132*
X1142Y1065D02*
Y1015D01*
Y1565D02*
Y1515D01*
X1154Y378D02*
X1104D01*
X1138Y2121D02*
X1142Y2118D01*
X1145Y2112*
Y2103*
X1142Y2096*
X1138Y2093*
X1132Y2090*
X1120*
X1113Y2093*
X1110Y2096*
X1107Y2103*
Y2112*
X1110Y2118*
X1113Y2121*
X1145Y2146D02*
Y2159D01*
Y2153D02*
X1107D01*
X1113Y2146*
X1142Y2193D02*
X1145Y2199D01*
Y2206*
X1142Y2212*
X1135Y2215*
X1129Y2212*
X1126Y2206*
Y2199*
Y2206D02*
X1123Y2212D01*
X1117Y2215*
X1110Y2212*
X1107Y2206*
Y2199*
X1110Y2193*
X1167Y1040D02*
X1117D01*
X1167D02*
G75*
G02X967Y840I-200D01*
G01*
G75*
G02X766Y1040J200*
G01*
G75*
G02X967Y1240I200*
G01*
G75*
G02X1167Y1040J-200*
G01*
Y1540D02*
X1117D01*
X1167D02*
G75*
G02X967Y1340I-200D01*
G01*
G75*
G02X766Y1540J200*
G01*
G75*
G02X967Y1740I200*
G01*
G75*
G02X1167Y1540J-200*
G01*
Y2290D02*
G75*
G03X967Y2490I-100J100D01*
G01*
G75*
G03X1167Y2290I100J-100*
G01*
X1170Y3665D02*
X1132D01*
Y3687*
X1135Y3693*
X1142Y3696*
X1148Y3693*
X1151Y3687*
Y3665*
X1132Y3715D02*
X1170D01*
Y3746*
Y3771D02*
Y3784D01*
Y3778D02*
X1132D01*
X1138Y3771*
X1182Y3478D02*
X1145D01*
Y3499*
X1148Y3506*
X1154Y3509*
X1160Y3506*
X1163Y3499*
Y3478*
Y3499D02*
X1182Y3509D01*
X1179Y3531D02*
X1182Y3537D01*
Y3543*
X1179Y3549*
X1173Y3553*
X1167Y3549*
X1163Y3543*
Y3537*
Y3543D02*
X1160Y3549D01*
X1154Y3553*
X1148Y3549*
X1145Y3543*
Y3537*
X1148Y3531*
X1232Y3458D02*
Y3298D01*
X1302*
Y3458*
X1232*
X1262Y2467D02*
X1422D01*
Y2538*
X1262*
Y2467*
X1267Y2562D02*
Y2599D01*
X1288*
X1295Y2596*
X1298Y2590*
X1295Y2584*
X1288Y2581*
X1267*
X1288D02*
X1298Y2562D01*
X1341D02*
X1316D01*
X1338Y2584*
X1341Y2590*
X1338Y2596*
X1332Y2599*
X1323*
X1316Y2596*
X1370Y2565D02*
X1376Y2562D01*
X1382*
X1388Y2565*
X1391Y2571*
X1388Y2578*
X1382Y2581*
X1376*
X1382D02*
X1388Y2584D01*
X1391Y2590*
X1388Y2596*
X1382Y2599*
X1376*
X1370Y2596*
X1269Y2433D02*
Y2273D01*
X1339*
Y2433*
X1269*
X1279Y2253D02*
X1329D01*
X1282Y3478D02*
X1245D01*
Y3499*
X1248Y3506*
X1254Y3509*
X1260Y3506*
X1263Y3499*
Y3478*
Y3499D02*
X1282Y3509D01*
Y3543D02*
X1245D01*
X1270Y3528*
Y3553*
X1282Y2053D02*
X1320D01*
Y2084*
Y2103D02*
X1282D01*
Y2134*
X1301Y2128D02*
Y2103D01*
X1320D02*
Y2134D01*
Y2153D02*
X1282D01*
Y2171*
X1285Y2178*
X1288Y2181*
X1295Y2184*
X1307*
X1313Y2181*
X1316Y2178*
X1320Y2171*
Y2153*
Y2209D02*
Y2221D01*
Y2215D02*
X1282D01*
X1288Y2209*
X1332Y2028D02*
Y1928D01*
Y3458D02*
Y3298D01*
X1402*
Y3458*
X1332*
X1351Y2028D02*
Y1928D01*
X1398Y1906D02*
X1395Y1903D01*
X1388Y1899*
X1379*
X1373Y1903*
X1370Y1906*
X1367Y1912*
Y1924*
X1370Y1931*
X1373Y1934*
X1379Y1937*
X1388*
X1395Y1934*
X1398Y1931*
X1423Y1899D02*
X1435D01*
X1429D02*
Y1937D01*
X1423Y1931*
X1482Y1899D02*
Y1937D01*
X1466Y1912*
X1492*
X1382Y3478D02*
X1345D01*
Y3499*
X1348Y3506*
X1354Y3509*
X1360Y3506*
X1363Y3499*
Y3478*
Y3499D02*
X1382Y3509D01*
X1379Y3528D02*
X1382Y3534D01*
Y3543*
X1379Y3549*
X1373Y3553*
X1370*
X1363Y3549*
X1360Y3543*
Y3528*
X1345*
Y3553*
X1394Y2433D02*
Y2273D01*
X1464*
Y2433*
X1394*
X1422Y2725D02*
X1262D01*
Y2655*
X1422*
Y2725*
Y2800D02*
X1262D01*
Y2730*
X1422*
Y2800*
X1432Y3458D02*
Y3298D01*
X1502*
Y3458*
X1432*
X1441Y2674D02*
Y2712D01*
X1463*
X1470Y2709*
X1473Y2703*
X1470Y2696*
X1463Y2693*
X1441*
X1463D02*
X1473Y2674D01*
X1498D02*
X1510D01*
X1504D02*
Y2712D01*
X1498Y2706*
X1551Y2693D02*
X1557D01*
X1563Y2696*
X1566Y2703*
X1563Y2709*
X1557Y2712*
X1551*
X1545Y2709*
X1542Y2703*
X1545Y2696*
X1551Y2693*
X1545Y2690*
X1542Y2684*
X1545Y2678*
X1551Y2674*
X1557*
X1563Y2678*
X1566Y2684*
X1563Y2690*
X1557Y2693*
X1441Y2749D02*
Y2787D01*
X1463*
X1470Y2784*
X1473Y2778*
X1470Y2771*
X1463Y2768*
X1441*
X1463D02*
X1473Y2749D01*
X1498D02*
X1510D01*
X1504D02*
Y2787D01*
X1498Y2781*
X1557Y2749D02*
Y2787D01*
X1542Y2762*
X1566*
X1445Y2128D02*
X1407D01*
Y2149*
X1410Y2156*
X1417Y2159*
X1423Y2156*
X1426Y2149*
Y2128*
Y2149D02*
X1445Y2159D01*
Y2203D02*
Y2178D01*
X1423Y2199*
X1417Y2203*
X1410Y2199*
X1407Y2193*
Y2184*
X1410Y2178*
X1441Y2228D02*
X1445Y2234D01*
Y2243*
X1441Y2249*
X1435Y2253*
X1432*
X1426Y2249*
X1423Y2243*
Y2228*
X1407*
Y2253*
X1479Y2562D02*
Y2599D01*
X1501*
X1507Y2596*
X1510Y2590*
X1507Y2584*
X1501Y2581*
X1479*
X1501D02*
X1510Y2562D01*
X1554D02*
X1529D01*
X1551Y2584*
X1554Y2590*
X1551Y2596*
X1545Y2599*
X1535*
X1529Y2596*
X1595Y2562D02*
Y2599D01*
X1579Y2574*
X1604*
X1482Y3478D02*
X1445D01*
Y3499*
X1448Y3506*
X1454Y3509*
X1460Y3506*
X1463Y3499*
Y3478*
Y3499D02*
X1482Y3509D01*
X1473Y3528D02*
X1466Y3531D01*
X1463Y3537*
Y3543*
X1466Y3549*
X1473Y3553*
X1479Y3549*
X1482Y3543*
Y3537*
X1479Y3531*
X1473Y3528*
X1463*
X1454Y3531*
X1448Y3537*
X1445Y3543*
X1529Y3024D02*
Y2996D01*
X1532Y2990*
X1538Y2987*
X1551*
X1557Y2990*
X1560Y2996*
Y3024*
X1595Y2987D02*
Y3024D01*
X1579Y2999*
X1604*
X1532Y2433D02*
Y2273D01*
X1602*
Y2433*
X1532*
Y3458D02*
Y3298D01*
X1602*
Y3458*
X1532*
X1537Y2467D02*
X1697D01*
Y2538*
X1537*
Y2467*
X1542Y2253D02*
X1591D01*
X1545Y2053D02*
X1582D01*
Y2084*
Y2103D02*
X1545D01*
Y2134*
X1563Y2128D02*
Y2103D01*
X1582D02*
Y2134D01*
Y2153D02*
X1545D01*
Y2171*
X1548Y2178*
X1551Y2181*
X1557Y2184*
X1570*
X1576Y2181*
X1579Y2178*
X1582Y2171*
Y2153*
Y2228D02*
Y2203D01*
X1560Y2224*
X1554Y2228*
X1548Y2224*
X1545Y2218*
Y2209*
X1548Y2203*
X1582Y3478D02*
X1545D01*
Y3499*
X1548Y3506*
X1554Y3509*
X1560Y3506*
X1563Y3499*
Y3478*
Y3499D02*
X1582Y3509D01*
Y3528D02*
X1545Y3553D01*
Y3528*
X1627Y3043D02*
X2107D01*
Y2563*
X1627*
Y3043*
X2107*
Y2563*
X1727*
X1627Y2663*
Y3043*
X1631Y3458D02*
Y3298D01*
X1702*
Y3458*
X1631*
X1682Y3478D02*
X1645D01*
Y3499*
X1648Y3506*
X1654Y3509*
X1660Y3506*
X1663Y3499*
Y3478*
Y3499D02*
X1682Y3509D01*
X1663Y3537D02*
Y3543D01*
X1660Y3549*
X1654Y3553*
X1648Y3549*
X1645Y3543*
Y3537*
X1648Y3531*
X1654Y3528*
X1660Y3531*
X1663Y3537*
X1666Y3531*
X1673Y3528*
X1679Y3531*
X1682Y3537*
Y3543*
X1679Y3549*
X1673Y3553*
X1666Y3549*
X1663Y3543*
X1732Y3458D02*
Y3298D01*
X1802*
Y3458*
X1732*
X1751Y2568D02*
G75*
G03X1762I6D01*
G01*
G75*
G03X1751I-6*
G01*
G36*
G75*
G03X1762I6*
G01*
G75*
G03X1751I-6*
G01*
G37*
X1779Y1978D02*
G75*
G02X1654Y2103J125D01*
G01*
G75*
G02X1779Y2228I125*
G01*
X1794*
G75*
G02X1854Y2203I0J-85*
G01*
Y2003*
G75*
G02X1794Y1978I-60J60*
G01*
X1779*
X1782Y3478D02*
X1745D01*
Y3499*
X1748Y3506*
X1754Y3509*
X1760Y3506*
X1763Y3499*
Y3478*
Y3499D02*
X1782Y3509D01*
Y3537D02*
X1779Y3543D01*
X1773Y3549*
X1763Y3553*
X1754*
X1748Y3549*
X1745Y3543*
Y3537*
X1748Y3531*
X1754Y3528*
X1760Y3531*
X1763Y3537*
Y3543*
X1760Y3549*
X1754Y3553*
X1816Y3240D02*
Y3140D01*
X1860Y2468D02*
X1857Y2465D01*
X1851Y2462*
X1841*
X1835Y2465*
X1832Y2468*
X1829Y2474*
Y2487*
X1832Y2493*
X1835Y2496*
X1841Y2499*
X1851*
X1857Y2496*
X1860Y2493*
X1888Y2481D02*
X1895D01*
X1901Y2484*
X1904Y2490*
X1901Y2496*
X1895Y2499*
X1888*
X1882Y2496*
X1879Y2490*
X1882Y2484*
X1888Y2481*
X1882Y2478*
X1879Y2471*
X1882Y2465*
X1888Y2462*
X1895*
X1901Y2465*
X1904Y2471*
X1901Y2478*
X1895Y2481*
X1873Y3593D02*
X1870Y3590D01*
X1863Y3587*
X1854*
X1848Y3590*
X1845Y3593*
X1841Y3599*
Y3612*
X1845Y3618*
X1848Y3621*
X1854Y3624*
X1863*
X1870Y3621*
X1873Y3618*
X1898Y3587D02*
X1910D01*
X1904D02*
Y3624D01*
X1898Y3618*
X1882Y3328D02*
X1845D01*
Y3349*
X1848Y3356*
X1854Y3359*
X1860Y3356*
X1863Y3349*
Y3328*
X1845Y3378D02*
X1882D01*
Y3409*
X1879Y3431D02*
X1882Y3437D01*
Y3443*
X1879Y3449*
X1873Y3453*
X1866Y3449*
X1863Y3443*
Y3437*
Y3443D02*
X1860Y3449D01*
X1854Y3453*
X1848Y3449*
X1845Y3443*
Y3437*
X1848Y3431*
X1916Y3290D02*
X2417D01*
Y3490*
X1916*
Y3290*
X1907Y2065D02*
X1895D01*
X1888Y2068*
X1885Y2071*
X1882Y2078*
Y2084*
X1885Y2090*
X1888Y2093*
X1895Y2096*
X1907*
X1913Y2093*
X1916Y2090*
X1920Y2084*
Y2078*
X1916Y2071*
X1913Y2068*
X1907Y2065*
X1910Y2087D02*
X1920Y2096D01*
X1916Y2118D02*
X1920Y2124D01*
Y2131*
X1916Y2137*
X1910Y2140*
X1904Y2137*
X1901Y2131*
Y2124*
Y2131D02*
X1898Y2137D01*
X1891Y2140*
X1885Y2137*
X1882Y2131*
Y2124*
X1885Y2118*
X1929Y2315D02*
Y2303D01*
Y2415D02*
Y2428D01*
Y2415D02*
Y2315D01*
X1937Y3155D02*
X2097D01*
Y3225*
X1937*
Y3155*
X1982Y1928D02*
X2202D01*
Y2028*
X1982*
Y1928*
X1982Y3246D02*
Y3259D01*
Y3253D02*
X1945D01*
X1951Y3246*
X2006Y3553D02*
Y3653D01*
X2017Y3290D02*
X1916D01*
Y3390*
X2017*
Y3290*
Y3840D02*
X1016D01*
Y3640*
X2017*
Y3840*
X2021Y2435D02*
X1737D01*
Y2295*
X2021*
Y2435*
X2027Y3553D02*
Y3653D01*
X2088Y2346D02*
X2092Y2343D01*
X2095Y2337*
Y2328*
X2092Y2321*
X2088Y2318*
X2082Y2315*
X2070*
X2063Y2318*
X2060Y2321*
X2057Y2328*
Y2337*
X2060Y2343*
X2063Y2346*
X2095Y2365D02*
X2057Y2390D01*
Y2365*
X2088Y2496D02*
X2092Y2493D01*
X2095Y2487*
Y2478*
X2092Y2471*
X2088Y2468*
X2082Y2465*
X2070*
X2063Y2468*
X2060Y2471*
X2057Y2478*
Y2487*
X2060Y2493*
X2063Y2496*
X2095Y2524D02*
X2092Y2531D01*
X2085Y2537*
X2076Y2540*
X2067*
X2060Y2537*
X2057Y2531*
Y2524*
X2060Y2518*
X2067Y2515*
X2073Y2518*
X2076Y2524*
Y2531*
X2073Y2537*
X2067Y2540*
X2104Y2724D02*
Y2762D01*
X2126*
X2132Y2759*
X2135Y2753*
X2132Y2746*
X2126Y2743*
X2104*
X2126D02*
X2135Y2724D01*
X2160D02*
X2173D01*
X2167D02*
Y2762D01*
X2160Y2756*
X2213Y2724D02*
X2220Y2728D01*
X2226Y2734*
X2229Y2743*
Y2753*
X2226Y2759*
X2220Y2762*
X2213*
X2207Y2759*
X2204Y2753*
X2207Y2746*
X2213Y2743*
X2220*
X2226Y2746*
X2229Y2753*
X2104Y2824D02*
Y2862D01*
X2126*
X2132Y2859*
X2135Y2853*
X2132Y2846*
X2126Y2843*
X2104*
X2126D02*
X2135Y2824D01*
X2160D02*
X2173D01*
X2167D02*
Y2862D01*
X2160Y2856*
X2204Y2828D02*
X2210Y2824D01*
X2220*
X2226Y2828*
X2229Y2834*
Y2837*
X2226Y2843*
X2220Y2846*
X2204*
Y2862*
X2229*
X2104Y2899D02*
Y2937D01*
X2126*
X2132Y2934*
X2135Y2928*
X2132Y2921*
X2126Y2918*
X2104*
X2126D02*
X2135Y2899D01*
X2160D02*
X2173D01*
X2167D02*
Y2937D01*
X2160Y2931*
X2207Y2903D02*
X2213Y2899D01*
X2220*
X2226Y2903*
X2229Y2909*
X2226Y2915*
X2220Y2918*
X2213*
X2220D02*
X2226Y2921D01*
X2229Y2928*
X2226Y2934*
X2220Y2937*
X2213*
X2207Y2934*
X2104Y2974D02*
Y3012D01*
X2126*
X2132Y3009*
X2135Y3003*
X2132Y2996*
X2126Y2993*
X2104*
X2126D02*
X2135Y2974D01*
X2160D02*
X2173D01*
X2167D02*
Y3012D01*
X2160Y3006*
X2229Y2974D02*
X2204D01*
X2226Y2996*
X2229Y3003*
X2226Y3009*
X2220Y3012*
X2210*
X2204Y3009*
X2104Y3049D02*
Y3087D01*
X2126*
X2132Y3084*
X2135Y3078*
X2132Y3071*
X2126Y3068*
X2104*
X2126D02*
X2135Y3049D01*
X2160D02*
X2173D01*
X2167D02*
Y3087D01*
X2160Y3081*
X2210Y3049D02*
X2223D01*
X2217D02*
Y3087D01*
X2210Y3081*
X2117Y3174D02*
Y3212D01*
X2138*
X2145Y3209*
X2148Y3203*
X2145Y3196*
X2138Y3193*
X2117*
X2138D02*
X2148Y3174D01*
X2173D02*
X2185D01*
X2179D02*
Y3212D01*
X2173Y3206*
X2220Y3178D02*
X2226Y3174D01*
X2232*
X2238Y3178*
X2242Y3184*
Y3203*
X2238Y3209*
X2232Y3212*
X2226*
X2220Y3209*
X2217Y3203*
Y3184*
X2220Y3178*
X2238Y3209*
X2119Y2633D02*
Y2473D01*
X2189*
Y2633*
X2119*
X2129Y2028D02*
Y1928D01*
X2147Y2113D02*
X1986D01*
Y2043*
X2147*
Y2113*
X2167Y2062D02*
Y2099D01*
X2188*
X2195Y2096*
X2198Y2090*
X2195Y2084*
X2188Y2081*
X2167*
X2188D02*
X2198Y2062D01*
X2242D02*
X2217D01*
X2238Y2084*
X2242Y2090*
X2238Y2096*
X2232Y2099*
X2223*
X2217Y2096*
X2267Y2071D02*
X2270Y2078D01*
X2276Y2081*
X2282*
X2288Y2078*
X2292Y2071*
X2288Y2065*
X2282Y2062*
X2276*
X2270Y2065*
X2267Y2071*
Y2081*
X2270Y2090*
X2276Y2096*
X2282Y2099*
X2189Y2273D02*
Y2433D01*
X2119*
Y2273*
X2189*
X2204Y403D02*
X1804D01*
X2204Y803D02*
X1804D01*
X2204Y1002D02*
X1804D01*
X2204Y1403D02*
X1804D01*
X2248Y3693D02*
X2245Y3690D01*
X2238Y3687*
X2229*
X2223Y3690*
X2220Y3693*
X2217Y3699*
Y3712*
X2220Y3718*
X2223Y3721*
X2229Y3724*
X2238*
X2245Y3721*
X2248Y3718*
X2292Y3687D02*
X2267D01*
X2288Y3709*
X2292Y3715*
X2288Y3721*
X2282Y3724*
X2273*
X2267Y3721*
X2237Y2805D02*
X2397D01*
Y2875*
X2237*
Y2805*
Y3030D02*
X2397D01*
Y3100*
X2237*
Y3030*
X2242Y1962D02*
Y1999D01*
X2260*
X2267Y1996*
X2270Y1993*
X2273Y1987*
Y1974*
X2270Y1968*
X2267Y1965*
X2260Y1962*
X2242*
X2307D02*
Y1999D01*
X2292Y1974*
X2317*
X2254Y803D02*
X2204D01*
Y403*
X2254*
Y803*
G36*
X2204*
Y403*
X2254*
Y803*
G37*
Y1403D02*
X2204D01*
Y1002*
X2254*
Y1403*
G36*
X2204*
Y1002*
X2254*
Y1403*
G37*
X2304D02*
Y403D01*
X2317Y3553D02*
Y3540D01*
Y3653D02*
Y3665D01*
Y3653D02*
Y3553D01*
X2354Y403D02*
X2404D01*
Y803*
X2354*
Y403*
G36*
X2404*
Y803*
X2354*
Y403*
G37*
Y1002D02*
X2404D01*
Y1403*
X2354*
Y1002*
G36*
X2404*
Y1403*
X2354*
Y1002*
G37*
X2397Y2775D02*
X2237D01*
Y2705*
X2397*
Y2775*
Y2950D02*
X2237D01*
Y2880*
X2397*
Y2950*
Y3025D02*
X2237D01*
Y2955*
X2397*
Y3025*
X2404Y403D02*
X2804D01*
X2404Y803D02*
X2804D01*
X2404Y1002D02*
X2804D01*
X2404Y1403D02*
X2804D01*
X2404Y2174D02*
Y2146D01*
X2407Y2140*
X2413Y2137*
X2426*
X2432Y2140*
X2435Y2146*
Y2174*
X2457Y2140D02*
X2463Y2137D01*
X2470*
X2476Y2140*
X2479Y2146*
X2476Y2153*
X2470Y2156*
X2463*
X2470D02*
X2476Y2159D01*
X2479Y2165*
X2476Y2171*
X2470Y2174*
X2463*
X2457Y2171*
X2404Y2340D02*
Y2565D01*
G75*
G03X2317Y2653I-88*
G01*
G75*
G03X2229Y2565J-88*
G01*
Y2315*
G75*
G03X2317Y2228I88*
G01*
G75*
G03X2404Y2315J88*
G01*
Y2340*
X2409Y3673D02*
X2125D01*
Y3533*
X2409*
Y3673*
X2457Y2340D02*
X2420Y2371D01*
Y2340D02*
X2457Y2371D01*
Y2406D02*
X2420D01*
Y2390D02*
Y2421D01*
X2457Y2440D02*
X2420Y2456D01*
X2457Y2471*
X2442Y2446D02*
Y2465D01*
X2420Y2490D02*
X2457D01*
Y2521*
Y2546D02*
Y2559D01*
Y2553D02*
X2420D01*
X2426Y2546*
X2495Y3340D02*
X2457D01*
Y3359*
X2460Y3365*
X2463Y3368*
X2470Y3371*
X2482*
X2488Y3368*
X2492Y3365*
X2495Y3359*
Y3340*
Y3396D02*
Y3409D01*
Y3403D02*
X2457D01*
X2463Y3396*
X2507Y2285D02*
Y2095D01*
X2827*
Y2285*
X2507*
X2517Y2574D02*
Y2612D01*
X2538*
X2545Y2609*
X2548Y2603*
X2545Y2596*
X2538Y2593*
X2517*
X2538D02*
X2548Y2574D01*
X2592D02*
X2567D01*
X2588Y2596*
X2592Y2603*
X2588Y2609*
X2582Y2612*
X2573*
X2567Y2609*
X2623Y2574D02*
X2635D01*
X2629D02*
Y2612D01*
X2623Y2606*
X2517Y2662D02*
Y2699D01*
X2538*
X2545Y2696*
X2548Y2690*
X2545Y2684*
X2538Y2681*
X2517*
X2538D02*
X2548Y2662D01*
X2592D02*
X2567D01*
X2588Y2684*
X2592Y2690*
X2588Y2696*
X2582Y2699*
X2573*
X2567Y2696*
X2620Y2665D02*
X2626Y2662D01*
X2632*
X2638Y2665*
X2642Y2671*
Y2690*
X2638Y2696*
X2632Y2699*
X2626*
X2620Y2696*
X2617Y2690*
Y2671*
X2620Y2665*
X2638Y2696*
X2517Y3488D02*
Y3268D01*
X2617*
Y3488*
X2517*
X2569Y2340D02*
Y2440D01*
X2589Y2340D02*
Y2440D01*
X2635Y2443D02*
X2632Y2440D01*
X2626Y2437*
X2617*
X2610Y2440*
X2607Y2443*
X2604Y2449*
Y2462*
X2607Y2468*
X2610Y2471*
X2617Y2474*
X2626*
X2632Y2471*
X2635Y2468*
X2660Y2437D02*
X2673D01*
X2667D02*
Y2474D01*
X2660Y2468*
X2707Y2440D02*
X2713Y2437D01*
X2720*
X2726Y2440*
X2729Y2446*
Y2465*
X2726Y2471*
X2720Y2474*
X2713*
X2707Y2471*
X2704Y2465*
Y2446*
X2707Y2440*
X2726Y2471*
X2604Y3662D02*
Y3699D01*
X2626*
X2632Y3696*
X2635Y3690*
X2632Y3684*
X2626Y3681*
X2604*
X2654Y3699D02*
Y3662D01*
X2685*
X2729D02*
X2704D01*
X2726Y3684*
X2729Y3690*
X2726Y3696*
X2720Y3699*
X2710*
X2704Y3696*
X2609Y2883D02*
G75*
G02X2654Y2928I45D01*
G01*
G75*
G02X2699Y2883J-45*
G01*
X2617Y2862D02*
Y2834D01*
X2620Y2828*
X2626Y2824*
X2638*
X2645Y2828*
X2648Y2834*
Y2862*
X2692Y2824D02*
X2667D01*
X2688Y2846*
X2692Y2853*
X2688Y2859*
X2682Y2862*
X2673*
X2667Y2859*
X2648Y3193D02*
X2645Y3190D01*
X2638Y3187*
X2629*
X2623Y3190*
X2620Y3193*
X2617Y3199*
Y3212*
X2620Y3218*
X2623Y3221*
X2629Y3224*
X2638*
X2645Y3221*
X2648Y3218*
X2667Y3190D02*
X2673Y3187D01*
X2682*
X2688Y3190*
X2692Y3196*
Y3199*
X2688Y3206*
X2682Y3209*
X2667*
Y3224*
X2692*
X2617Y3340D02*
X2517D01*
X2642Y3488D02*
Y3268D01*
X2742*
Y3488*
X2642*
X2707Y3090D02*
Y3190D01*
X2712Y2285D02*
G75*
G02X2667Y2240I-45D01*
G01*
G75*
G02X2622Y2285J45*
G01*
X2727Y3090D02*
Y3190D01*
X2729Y1928D02*
Y1915D01*
Y2028D02*
Y2040D01*
Y2028D02*
Y1928D01*
X2742Y3340D02*
X2642D01*
X2795D02*
X2757D01*
Y3359*
X2760Y3365*
X2763Y3368*
X2770Y3371*
X2782*
X2788Y3368*
X2792Y3365*
X2795Y3359*
Y3340*
Y3415D02*
Y3390D01*
X2773Y3412*
X2767Y3415*
X2760Y3412*
X2757Y3406*
Y3396*
X2760Y3390*
X2826Y3515D02*
X2835D01*
Y3512*
X2832Y3506*
X2829Y3503*
X2823Y3499*
X2817*
X2810Y3503*
X2807Y3506*
X2804Y3512*
Y3524*
X2807Y3531*
X2810Y3534*
X2817Y3537*
X2823*
X2829Y3534*
X2832Y3531*
X2835Y3524*
X2854Y3499D02*
Y3524D01*
Y3515D02*
X2857Y3521D01*
X2863Y3524*
X2870*
X2876Y3521*
X2879Y3515*
Y3499*
X2929Y3515D02*
X2926Y3521D01*
X2920Y3524*
X2913*
X2907Y3521*
X2904Y3515*
Y3509*
X2907Y3503*
X2913Y3499*
X2920*
X2926Y3503*
X2929Y3509*
Y3499D02*
Y3537D01*
X2814Y2883D02*
Y3073D01*
X2494*
Y2883*
X2814*
X2821Y2047D02*
X2537D01*
Y1908*
X2821*
Y2047*
X2822Y2625D02*
X2662D01*
Y2555*
X2822*
Y2625*
Y2713D02*
X2662D01*
Y2643*
X2822*
Y2713*
X2860Y3193D02*
X2857Y3190D01*
X2851Y3187*
X2842*
X2835Y3190*
X2832Y3193*
X2829Y3199*
Y3212*
X2832Y3218*
X2835Y3221*
X2842Y3224*
X2851*
X2857Y3221*
X2860Y3218*
X2879Y3196D02*
X2882Y3203D01*
X2888Y3206*
X2895*
X2901Y3203*
X2904Y3196*
X2901Y3190*
X2895Y3187*
X2888*
X2882Y3190*
X2879Y3196*
Y3206*
X2882Y3215*
X2888Y3221*
X2895Y3224*
X2860Y3268D02*
X2857Y3265D01*
X2851Y3262*
X2842*
X2835Y3265*
X2832Y3268*
X2829Y3274*
Y3287*
X2832Y3293*
X2835Y3296*
X2842Y3299*
X2851*
X2857Y3296*
X2860Y3293*
X2882Y3265D02*
X2888Y3262D01*
X2895*
X2901Y3265*
X2904Y3271*
X2901Y3278*
X2895Y3281*
X2888*
X2895D02*
X2901Y3284D01*
X2904Y3290*
X2901Y3296*
X2895Y3299*
X2888*
X2882Y3296*
X2885Y1968D02*
X2882Y1965D01*
X2876Y1962*
X2867*
X2860Y1965*
X2857Y1968*
X2854Y1974*
Y1987*
X2857Y1993*
X2860Y1996*
X2867Y1999*
X2876*
X2882Y1996*
X2885Y1993*
X2910Y1962D02*
X2923D01*
X2917D02*
Y1999D01*
X2910Y1993*
X2954Y1965D02*
X2960Y1962D01*
X2970*
X2976Y1965*
X2979Y1971*
Y1974*
X2976Y1981*
X2970Y1984*
X2954*
Y1999*
X2979*
X2854Y2812D02*
Y2824D01*
X2857Y2831*
X2860Y2834*
X2867Y2837*
X2873*
X2879Y2834*
X2882Y2831*
X2885Y2824*
Y2812*
X2882Y2806*
X2879Y2803*
X2873Y2799*
X2867*
X2860Y2803*
X2857Y2806*
X2854Y2812*
X2876Y2809D02*
X2885Y2799D01*
X2920D02*
Y2837D01*
X2904Y2812*
X2929*
X2870Y2390D02*
X2857D01*
X2851Y2393*
X2848Y2396*
X2845Y2403*
Y2409*
X2848Y2415*
X2851Y2418*
X2857Y2421*
X2870*
X2876Y2418*
X2879Y2415*
X2882Y2409*
Y2403*
X2879Y2396*
X2876Y2393*
X2870Y2390*
X2873Y2412D02*
X2882Y2421D01*
Y2465D02*
Y2440D01*
X2860Y2462*
X2854Y2465*
X2848Y2462*
X2845Y2456*
Y2446*
X2848Y2440*
X2892Y3803D02*
X2829D01*
G75*
G03X2779Y3753J-50*
G01*
X2932Y3190D02*
Y3090D01*
Y3390D02*
Y3290D01*
X2944Y2215D02*
Y2115D01*
X2952Y3190D02*
Y3090D01*
Y3390D02*
Y3290D01*
X2954Y3753D02*
G75*
G03X2904Y3803I-50D01*
G01*
X2892*
X2964Y2215D02*
Y2115D01*
X3010Y2093D02*
X3007Y2090D01*
X3001Y2087*
X2992*
X2985Y2090*
X2982Y2093*
X2979Y2099*
Y2112*
X2982Y2118*
X2985Y2121*
X2992Y2124*
X3001*
X3007Y2121*
X3010Y2118*
X3035Y2087D02*
X3048D01*
X3042D02*
Y2124D01*
X3035Y2118*
X3104Y2087D02*
X3079D01*
X3101Y2109*
X3104Y2115*
X3101Y2121*
X3095Y2124*
X3085*
X3079Y2121*
X3007Y2990D02*
X3177D01*
Y3390*
X3007*
Y2990*
X3017Y3512D02*
X3042D01*
X3029Y3499D02*
Y3524D01*
X3067Y3503D02*
X3073Y3499D01*
X3082*
X3088Y3503*
X3092Y3509*
Y3512*
X3088Y3518*
X3082Y3521*
X3067*
Y3537*
X3092*
X3117D02*
X3132Y3499D01*
X3148Y3537*
X3057Y2990D02*
Y3390D01*
X3087Y2445D02*
G75*
G02X3042Y2490J45D01*
G01*
G75*
G02X3087Y2535I45*
G01*
Y2650D02*
X2897D01*
Y2330*
X3087*
Y2650*
Y2778D02*
Y2928D01*
X2947*
Y2778*
X3086*
X3092Y3803D02*
X3029D01*
G75*
G03X2979Y3753J-50*
G01*
X3095Y2215D02*
X3057D01*
Y2234*
X3060Y2240*
X3063Y2243*
X3070Y2246*
X3082*
X3088Y2243*
X3092Y2240*
X3095Y2234*
Y2215*
X3092Y2268D02*
X3095Y2274D01*
Y2281*
X3092Y2287*
X3085Y2290*
X3079Y2287*
X3076Y2281*
Y2274*
Y2281D02*
X3073Y2287D01*
X3067Y2290*
X3060Y2287*
X3057Y2281*
Y2274*
X3060Y2268*
X3117Y2340D02*
X3217D01*
X3154Y3753D02*
G75*
G03X3104Y3803I-50D01*
G01*
X3092*
X3167Y3815D02*
Y3565D01*
X3092*
Y3578*
X3042*
Y3565*
X2892*
Y3578*
X2842*
Y3565*
X2767*
Y3815*
X3167*
X3182Y2865D02*
X3145D01*
Y2887*
X3148Y2893*
X3154Y2896*
X3160Y2893*
X3163Y2887*
Y2865*
Y2887D02*
X3182Y2896D01*
Y2921D02*
Y2934D01*
Y2928D02*
X3145D01*
X3151Y2921*
X3173Y2965D02*
X3167Y2968D01*
X3163Y2974*
Y2981*
X3167Y2987*
X3173Y2990*
X3179Y2987*
X3182Y2981*
Y2974*
X3179Y2968*
X3173Y2965*
X3163*
X3154Y2968*
X3148Y2974*
X3145Y2981*
X3192Y3437D02*
Y3474D01*
X3213*
X3220Y3471*
X3223Y3465*
X3220Y3459*
X3213Y3456*
X3192*
X3213D02*
X3223Y3437D01*
X3248D02*
X3260D01*
X3254D02*
Y3474D01*
X3248Y3468*
X3202Y2498D02*
Y2658D01*
X3132*
Y2498*
X3202*
Y2685D02*
Y2845D01*
X3132*
Y2685*
X3202*
X3217Y2192D02*
Y2413D01*
X3117*
Y2192*
X3217*
X3195Y3003D02*
X3223D01*
X3229Y3006*
X3232Y3012*
Y3024*
X3229Y3031*
X3223Y3034*
X3195*
X3232Y3059D02*
Y3071D01*
Y3065D02*
X3195D01*
X3201Y3059*
X3247Y2420D02*
Y2136D01*
X3387*
Y2420*
X3247*
X3254Y1703D02*
X1354D01*
Y103*
X3254*
Y1703*
X3267Y2328D02*
X3254D01*
X3267D02*
X3367D01*
X3257Y2515D02*
X3220D01*
Y2537*
X3223Y2543*
X3229Y2546*
X3235Y2543*
X3238Y2537*
Y2515*
Y2537D02*
X3257Y2546D01*
Y2590D02*
Y2565D01*
X3235Y2587*
X3229Y2590*
X3223Y2587*
X3220Y2581*
Y2571*
X3223Y2565*
X3257Y2640D02*
Y2615D01*
X3235Y2637*
X3229Y2640*
X3223Y2637*
X3220Y2631*
Y2621*
X3223Y2615*
X3270Y2865D02*
X3232D01*
Y2887*
X3235Y2893*
X3242Y2896*
X3248Y2893*
X3251Y2887*
Y2865*
Y2887D02*
X3270Y2896D01*
Y2921D02*
Y2934D01*
Y2928D02*
X3232D01*
X3238Y2921*
X3270Y2965D02*
X3232Y2990D01*
Y2965*
X3289Y2685D02*
Y2845D01*
X3219*
Y2685*
X3289*
X3276Y3259D02*
X3279Y3256D01*
X3282Y3249*
Y3240*
X3279Y3234*
X3276Y3231*
X3270Y3228*
X3257*
X3251Y3231*
X3248Y3234*
X3245Y3240*
Y3249*
X3248Y3256*
X3251Y3259*
X3282Y3293D02*
X3245D01*
X3270Y3278*
Y3303*
X3297Y3332D02*
Y3048D01*
X3437*
Y3332*
X3297*
X3317Y3240D02*
X3304D01*
X3317D02*
X3417D01*
X3326Y2009D02*
X3329Y2006D01*
X3332Y1999*
Y1990*
X3329Y1984*
X3326Y1981*
X3320Y1978*
X3307*
X3301Y1981*
X3298Y1984*
X3295Y1990*
Y1999*
X3298Y2006*
X3301Y2009*
X3332Y2034D02*
Y2046D01*
Y2040D02*
X3295D01*
X3301Y2034*
X3332Y2084D02*
Y2096D01*
Y2090D02*
X3295D01*
X3301Y2084*
X3354Y28D02*
X1254D01*
Y1778*
X3354*
Y28*
X3367Y2328D02*
X3379D01*
X3417Y3240D02*
X3429D01*
X3420Y403D02*
X3382D01*
Y424*
X3385Y431*
X3392Y434*
X3398Y431*
X3401Y424*
Y403*
X3382Y453D02*
X3420D01*
Y484*
X3401Y512D02*
Y518D01*
X3398Y524*
X3392Y527*
X3385Y524*
X3382Y518*
Y512*
X3385Y506*
X3392Y502*
X3398Y506*
X3401Y512*
X3404Y506*
X3410Y502*
X3417Y506*
X3420Y512*
Y518*
X3417Y524*
X3410Y527*
X3404Y524*
X3401Y518*
X3480Y403D02*
X3442D01*
Y424*
X3445Y431*
X3452Y434*
X3458Y431*
X3461Y424*
Y403*
X3470Y453D02*
X3477Y456D01*
X3480Y462*
Y468*
X3477Y474*
X3470Y477*
X3464*
X3458Y474*
X3455Y468*
Y462*
X3458Y456*
X3464Y453*
X3470*
X3455Y502D02*
X3477D01*
X3480Y506*
Y512*
X3477Y515*
X3467*
X3477D02*
X3480Y518D01*
Y524*
X3477Y527*
X3455*
X3477Y578D02*
X3480Y574D01*
Y568*
Y562*
X3477Y556*
X3470Y553*
X3461*
X3458Y556*
X3455Y562*
Y568*
X3458Y574*
X3461Y578*
X3464*
X3467Y574*
X3470Y568*
Y562*
X3467Y556*
X3464Y553*
X3480Y603D02*
X3455D01*
X3464D02*
X3458Y606D01*
X3455Y612*
Y618*
X3458Y624*
X3480Y703D02*
X3442Y718D01*
X3480Y734*
X3464Y709D02*
Y728D01*
X3473Y784D02*
X3477Y781D01*
X3480Y774*
Y765*
X3477Y759*
X3473Y756*
X3467Y753*
X3455*
X3448Y756*
X3445Y759*
X3442Y765*
Y774*
X3445Y781*
X3448Y784*
X3434Y3488D02*
X3274D01*
Y3418*
X3434*
Y3488*
X3452Y3853D02*
X3427D01*
Y3553*
X3707*
Y3853*
X3682*
X3554Y981D02*
X3557Y978D01*
X3563Y974*
X3570Y978*
X3573Y981*
Y1012*
X3579*
X3573D02*
X3560D01*
X3604Y974D02*
Y1012D01*
X3626*
X3632Y1009*
X3635Y1002*
X3632Y996*
X3626Y993*
X3604*
X3657Y978D02*
X3663Y974D01*
X3670*
X3676Y978*
X3679Y984*
X3676Y990*
X3670Y993*
X3663*
X3670D02*
X3676Y996D01*
X3679Y1002*
X3676Y1009*
X3670Y1012*
X3663*
X3657Y1009*
X3560Y914D02*
X3573D01*
X3567D02*
Y952D01*
X3560Y946*
X3610Y914D02*
X3623D01*
X3617D02*
Y952D01*
X3610Y946*
X3654Y914D02*
X3679Y952D01*
X3654*
X3704D02*
X3720Y914D01*
X3735Y952*
X3554Y1181D02*
X3557Y1178D01*
X3563Y1174*
X3570Y1178*
X3573Y1181*
Y1212*
X3579*
X3573D02*
X3560D01*
X3604Y1174D02*
Y1212D01*
X3626*
X3632Y1209*
X3635Y1202*
X3632Y1196*
X3626Y1193*
X3604*
X3679Y1174D02*
X3654D01*
X3676Y1196*
X3679Y1202*
X3676Y1209*
X3670Y1212*
X3660*
X3654Y1209*
X3579Y1114D02*
X3554D01*
X3576Y1136*
X3579Y1143*
X3576Y1149*
X3570Y1152*
X3560*
X3554Y1149*
X3607Y1117D02*
X3613Y1114D01*
X3620*
X3626Y1117*
X3629Y1124*
X3626Y1130*
X3620Y1133*
X3613*
X3620D02*
X3626Y1136D01*
X3629Y1143*
X3626Y1149*
X3620Y1152*
X3613*
X3607Y1149*
X3657Y1117D02*
X3663Y1114D01*
X3670*
X3676Y1117*
X3679Y1124*
Y1143*
X3676Y1149*
X3670Y1152*
X3663*
X3657Y1149*
X3654Y1143*
Y1124*
X3657Y1117*
X3676Y1149*
X3704Y1152D02*
X3720Y1114D01*
X3735Y1152*
X3554Y1378D02*
X3557Y1375D01*
X3563Y1372*
X3570Y1375*
X3573Y1378*
Y1409*
X3579*
X3573D02*
X3560D01*
X3604Y1372D02*
Y1409D01*
X3626*
X3632Y1406*
X3635Y1400*
X3632Y1394*
X3626Y1391*
X3604*
X3660Y1372D02*
X3673D01*
X3667D02*
Y1409D01*
X3660Y1403*
X3560Y1312D02*
X3573D01*
X3567D02*
Y1349D01*
X3560Y1343*
X3610Y1312D02*
X3623D01*
X3617D02*
Y1349D01*
X3610Y1343*
X3654Y1312D02*
X3679Y1349D01*
X3654*
X3704D02*
X3720Y1312D01*
X3735Y1349*
X3570Y3040D02*
X3532D01*
Y3062*
X3535Y3068*
X3542Y3071*
X3548Y3068*
X3551Y3062*
Y3040*
X3532Y3090D02*
X3570D01*
Y3121*
Y3156D02*
X3532D01*
X3557Y3140*
Y3165*
X3767Y390D02*
Y490D01*
X3717*
Y390*
X3767*
Y690D02*
Y790D01*
X3717*
Y690*
X3767*
X3757Y3565D02*
X3745D01*
X3738Y3568*
X3735Y3571*
X3732Y3578*
Y3584*
X3735Y3590*
X3738Y3593*
X3745Y3596*
X3757*
X3763Y3593*
X3767Y3590*
X3770Y3584*
Y3578*
X3767Y3571*
X3763Y3568*
X3757Y3565*
X3760Y3587D02*
X3770Y3596D01*
Y3621D02*
Y3634D01*
Y3628D02*
X3732D01*
X3738Y3621*
X3792Y340D02*
Y840D01*
X3542*
Y340*
X3792*
X3773Y2265D02*
X3779Y2268D01*
X3782Y2274*
Y2287*
X3779Y2293*
X3773Y2296*
X3767Y2293*
X3763Y2287*
Y2274*
X3760Y2268*
X3754Y2265*
X3748Y2268*
X3745Y2274*
Y2287*
X3748Y2293*
X3754Y2296*
X3745Y2315D02*
X3782Y2318D01*
X3763Y2331*
X3782Y2343*
X3745Y2346*
X3782Y2371D02*
Y2384D01*
Y2378D02*
X3745D01*
X3751Y2371*
X3829Y190D02*
G75*
G03X3929Y90I100D01*
G01*
Y190*
X3829*
G36*
G75*
G03X3929Y90I100*
G01*
Y190*
X3829*
G37*
Y3753D02*
G75*
G03X3929Y3653I100D01*
G01*
Y3753*
X3829*
G36*
G75*
G03X3929Y3653I100*
G01*
Y3753*
X3829*
G37*
X3867Y2890D02*
Y2990D01*
X3817*
Y2890*
X3867*
Y3190D02*
Y3290D01*
X3817*
Y3190*
X3867*
X3892Y2840D02*
Y3340D01*
X3642*
Y2840*
X3892*
X3929Y290D02*
G75*
G03Y90J-100D01*
G01*
G75*
G03Y290J100*
G01*
Y3853D02*
G75*
G03Y3653J-100D01*
G01*
G75*
G03Y3853J100*
G01*
X4029Y190D02*
G75*
G03X3929Y290I-100D01*
G01*
Y190*
X4029*
G36*
G75*
G03X3929Y290I-100*
G01*
Y190*
X4029*
G37*
Y3753D02*
G75*
G03X3929Y3853I-100D01*
G01*
Y3753*
X4029*
G36*
G75*
G03X3929Y3853I-100*
G01*
Y3753*
X4029*
G37*
X4082Y1934D02*
Y2723D01*
X3452*
Y1934*
X4082*
D02*
D77*
X754Y378D02*
G75*
G03Y3J-188D01*
G01*
G75*
G03Y378J188*
G01*
Y3940D02*
G75*
G03Y3565J-188D01*
G01*
G75*
G03Y3940J188*
G01*
X1092Y970D02*
Y1470*
X3929Y378*
G75*
G03Y3J-188D01*
G01*
G75*
G03Y378J188*
G01*
Y3940D02*
G75*
G03Y3565J-188D01*
G01*
G75*
G03Y3940J188*
G01*
X0Y0D02*
M02*
