%FSLAX23Y23*%
%MOIN*%
G04 EasyPC Gerber Version 14.0.2 Build 2922 *
%ADD15R,0.06000X0.06000*%
%ADD108R,0.06000X0.06000*%
%ADD87R,0.06500X0.06500*%
%ADD117R,0.08000X0.08000*%
%ADD116R,0.08500X0.08500*%
%ADD24C,0.00500*%
%ADD13C,0.01000*%
%ADD20C,0.01200*%
%ADD14C,0.01500*%
%ADD71C,0.02500*%
%ADD70C,0.04000*%
%ADD19C,0.04800*%
%ADD115C,0.05984*%
%ADD16C,0.06000*%
%ADD125C,0.07000*%
%ADD122C,0.07500*%
%ADD112C,0.08500*%
%ADD23C,0.10000*%
%ADD126C,0.11811*%
%ADD113C,0.12500*%
%ADD72C,0.14000*%
%ADD78C,0.15000*%
X0Y0D02*
D02*
D13*
X1979Y1640D02*
X1973Y1653D01*
Y1671*
X1979Y1684*
X1991Y1690*
X2004*
X2017Y1684*
X2023Y1671*
Y1653*
X2017Y1640*
X2023Y1590D02*
X1973D01*
X1979D02*
X1973Y1584D01*
Y1571*
X1979Y1565*
X1998*
X1979D02*
X1973Y1559D01*
Y1546*
X1979Y1540*
X2023*
Y1378D02*
Y1353D01*
Y1365D02*
X1948D01*
X1960Y1378*
X2023Y1278D02*
Y1252D01*
Y1265D02*
X1948D01*
X1960Y1278*
X2023Y1190D02*
X1948Y1127D01*
X2023Y1040D02*
Y1090D01*
X1979Y1046*
X1966Y1040*
X1954Y1046*
X1948Y1059*
Y1077*
X1954Y1090*
X2017Y984D02*
X2023Y971D01*
Y959*
X2017Y946*
X2004Y940*
X1966*
X1954Y946*
X1948Y959*
Y971*
X1954Y984*
X1966Y990*
X2004*
X2017Y984*
X1954Y946*
X2023Y877D02*
Y853D01*
Y865D02*
X1948D01*
X1960Y877*
X2023Y778D02*
Y753D01*
Y765D02*
X1948D01*
X1960Y778*
X2143Y1690D02*
X2068D01*
X2143Y1628*
X2068*
X2124Y1590D02*
X2137Y1584D01*
X2143Y1571*
Y1559*
X2137Y1546*
X2124Y1540*
X2112*
X2099Y1546*
X2093Y1559*
Y1571*
X2099Y1584*
X2112Y1590*
X2124*
X2143Y1465D02*
X2093D01*
X2074D02*
X2137Y1390*
X2143Y1378D01*
Y1353*
X2137Y1340*
X2124*
X2118Y1353*
Y1378*
X2112Y1390*
X2099*
X2093Y1378*
Y1353*
X2099Y1340*
X2137Y1240D02*
X2143Y1246D01*
Y1259*
Y1271*
X2137Y1284*
X2124Y1290*
X2105*
X2099Y1284*
X2093Y1271*
Y1259*
X2099Y1246*
X2105Y1240*
X2112*
X2118Y1246*
X2124Y1259*
Y1271*
X2118Y1284*
X2112Y1290*
X2143Y1190D02*
X2068D01*
Y1146*
X2074Y1134*
X2087Y1127*
X2099Y1134*
X2105Y1146*
Y1190*
X2143Y1059D02*
Y1065D01*
X2068*
X2099Y990D02*
X2093Y978D01*
Y959*
X2099Y946*
X2112Y940*
X2130*
X2137Y946*
X2143Y959*
Y971*
X2137Y984*
X2130Y990*
X2124*
X2118Y984*
X2112Y971*
Y959*
X2118Y946*
X2124Y940*
X2130D02*
X2143D01*
X2093Y890D02*
X2118Y884D01*
X2130Y871*
Y859*
X2118Y846*
X2093Y840*
X2118Y846D02*
X2143Y853D01*
X2155Y859*
X2162Y871*
X2155Y884*
X2137Y740D02*
X2143Y746D01*
Y759*
Y771*
X2137Y784*
X2124Y790*
X2105*
X2099Y784*
X2093Y771*
Y759*
X2099Y746*
X2105Y740*
X2112*
X2118Y746*
X2124Y759*
Y771*
X2118Y784*
X2112Y790*
X2143Y690D02*
X2093D01*
X2112D02*
X2099Y684D01*
X2093Y671*
Y659*
X2099Y646*
X2143Y477D02*
Y453D01*
Y465D02*
X2068D01*
X2080Y477*
X2143Y384D02*
X2137Y378D01*
X2130Y384*
X2137Y390*
X2143Y384*
X2137Y284D02*
X2143Y271D01*
Y259*
X2137Y246*
X2124Y240*
X2087*
X2074Y246*
X2068Y259*
Y271*
X2074Y284*
X2087Y290*
X2124*
X2137Y284*
X2074Y246*
X2225Y1646D02*
X2232Y1634D01*
X2244Y1628*
X2257Y1634*
X2263Y1646*
Y1690*
X2188*
Y1646*
X2194Y1634*
X2207Y1628*
X2219Y1634*
X2225Y1646*
Y1690*
X2263Y1559D02*
X2188D01*
Y1590D02*
Y1528D01*
X2263Y1490D02*
X2188D01*
X2225Y1459*
X2188Y1428*
X2263*
D02*
D14*
X766Y2640D02*
X717Y2690D01*
Y2990*
X766Y3040*
X1067Y2140D02*
X967Y2240D01*
X1779Y2028D02*
X3204D01*
X3242Y2065*
X1962Y2705D02*
X1927D01*
X1866Y2765*
X1417*
X1067Y3115*
Y3190*
X1962Y2770D02*
X1911D01*
X1879Y2803*
X1479*
X1167Y3115*
Y3190*
X1966Y3340D02*
Y2990D01*
X2104Y2853*
X2167*
X2154Y2665D02*
Y2240D01*
X2167Y3340D02*
Y3140D01*
X2079Y3053*
Y2940*
X2117Y2903*
X2192*
X2217Y2878*
Y2828*
X2192Y2803*
X2104*
X1966Y2940*
X1804*
X1791Y2928*
Y2890*
X2367Y3340D02*
Y3028D01*
X2292Y2953*
X2167*
X2542Y3103D02*
Y2853D01*
X2492Y2803*
X2592D02*
Y2590D01*
X3242Y2065D02*
X3527D01*
X3530Y2069*
X3304Y3515D02*
X3354Y3465D01*
Y3078*
X3242Y2965*
Y2065*
D02*
D15*
X766Y1940D03*
Y2040D03*
Y2140D03*
Y2240D03*
Y2340D03*
Y2440D03*
Y2640D03*
Y2740D03*
Y2840D03*
Y2940D03*
Y3040D03*
Y3140D03*
X1866Y3190D03*
X1966Y3340D03*
Y3440D03*
X2067Y3340D03*
Y3440D03*
X2167Y3340D03*
Y3440D03*
X2267Y3340D03*
Y3440D03*
X2367Y3340D03*
Y3440D03*
D02*
D16*
X967Y2390D03*
X1067Y3190D03*
X1167Y2390D03*
Y3190D03*
X1267D03*
X1367D03*
X1466D03*
X1566D03*
X1666D03*
X1704Y2103D03*
X1766Y3190D03*
X1779Y2028D03*
Y2178D03*
D02*
D19*
X1067Y2840D03*
X1167Y2515D03*
Y2640D03*
Y2840D03*
X1304Y2165D03*
X1466Y1978D03*
X1566D03*
X1779Y2465D03*
X1791Y2890D03*
X1854Y2715D03*
Y2890D03*
X1962Y2705D03*
Y2770D03*
X2154Y2240D03*
Y2665D03*
X2167Y2853D03*
Y2953D03*
Y3740D03*
X2267D03*
X2354Y1978D03*
X2442Y3153D03*
X2454Y1978D03*
X2479Y2615D03*
X2492Y2803D03*
X2542Y3103D03*
X2592Y2590D03*
Y2803D03*
X2617Y2503D03*
X2667Y2165D03*
Y2265D03*
X2692Y3528D03*
X2729Y2378D03*
X2804D03*
X2854Y2503D03*
X2892Y3240D03*
Y3440D03*
X2929Y2765D03*
Y3053D03*
X3167Y2128D03*
X3304Y3515D03*
X3342Y3665D03*
Y3740D03*
D02*
D70*
X766Y2040D02*
Y1940D01*
Y2340D02*
X667D01*
Y1615*
X742Y1540*
X867*
X766Y2940D02*
X854D01*
X954Y3040*
Y3315*
X1079Y3440*
X1167*
X867Y440D02*
X1092Y215D01*
X1592*
X1595Y218*
X1626*
X867Y640D02*
X742Y765D01*
Y1540*
X867*
X1067Y640D02*
X1441D01*
X1067Y1040D02*
Y865D01*
X967Y765*
Y540*
X1067Y440*
Y1540D02*
Y1403D01*
X867Y1202*
Y1040*
X1067Y1940D02*
X766D01*
X1067D02*
Y1540D01*
Y2840D02*
X1167D01*
X1067Y3740D02*
Y3565D01*
X954Y3453*
X842*
X1167Y2515D02*
Y2640D01*
Y3440D02*
Y3740D01*
X1441Y640D02*
Y600D01*
X1626Y415*
X1466Y1978D02*
X1566D01*
X1626Y1399D02*
X1641D01*
Y1390*
X1804Y1228*
Y396*
X1626Y218*
Y1596D02*
Y1578D01*
X1610*
X1435Y1403*
Y640*
X1441*
X1966Y3440D02*
X1167D01*
X2067D02*
X2367D01*
X2354Y1978D02*
X2454D01*
X2617Y2503D02*
X2854D01*
X2667Y2165D02*
Y2340D01*
X2617Y2390*
Y2503*
X2804Y2128D02*
Y2378D01*
X2729*
X2892Y3440D02*
Y3553D01*
X2867Y3578*
Y3690*
X3067D02*
Y3465D01*
X3117Y3415*
Y3290*
Y3190D02*
X3017D01*
X2967Y3240*
X2892*
X3167Y2128D02*
X2804D01*
X3217Y3190D02*
X3117D01*
X3342Y3665D02*
Y3740D01*
Y3665D02*
X3229Y3553D01*
Y3478*
X3304Y3403*
Y3140*
X3254Y3090*
X3117*
X3467Y1040D02*
Y940D01*
X3667Y740*
X3467Y1240D02*
X3229D01*
X3192Y1202*
X3004*
X3467Y1440D02*
Y1240D01*
X3667Y740D02*
Y640D01*
X3767Y2940D02*
Y1990D01*
X3867Y1240D02*
Y1040D01*
Y1440D02*
X3754D01*
X3654Y1340*
Y1028*
X3867Y815*
Y527*
X3779Y440*
X3667*
X4005Y2550D02*
X4004D01*
Y3078*
X3942Y3140*
X3767*
D02*
D71*
X766Y2240D02*
X967D01*
X766D02*
Y2140D01*
X967Y2240D02*
Y2390D01*
X1854Y2890D02*
X1954D01*
X2041Y2803*
Y2615*
X1866Y3190D02*
Y3440D01*
X1966*
X2041Y2615D02*
X1891D01*
X1854Y2653*
Y2715*
X2154Y2665D02*
X2092D01*
Y2615*
X2041*
X2367Y3440D02*
X2417D01*
X2442Y3415*
Y2865*
X2242Y2665*
X2154*
X2692Y3528D02*
X1991D01*
X1966Y3503*
Y3440*
X2804Y2128D02*
X2754Y2078D01*
X2017*
X1704Y2390*
X1167*
X2854Y2503D02*
X2929D01*
Y3053*
D02*
D20*
X743Y2340D02*
X716D01*
X743Y3140D02*
X716D01*
X766Y3164D02*
Y3191D01*
X791Y2340D02*
X818D01*
X791Y3140D02*
X818D01*
X813Y3453D02*
X786D01*
X842Y3424D02*
Y3397D01*
Y3482D02*
Y3509D01*
X871Y3453D02*
X898D01*
X1043Y3740D02*
X1016D01*
X1067Y3716D02*
Y3689D01*
Y3764D02*
Y3791D01*
X1755Y2178D02*
X1728D01*
X1779Y2154D02*
Y2127D01*
Y2202D02*
Y2229D01*
X1803Y2178D02*
X1830D01*
X2041Y3466D02*
X2015Y3491D01*
X2092Y3466D02*
X2118Y3491D01*
X2141Y3466D02*
X2116Y3491D01*
X2192Y3466D02*
X2217Y3491D01*
X2241Y3466D02*
X2216Y3491D01*
X2292Y3466D02*
X2317Y3491D01*
X2367Y3464D02*
Y3491D01*
X2391Y3440D02*
X2418D01*
X2649Y2165D02*
X2622D01*
X2649Y2265D02*
X2622D01*
X2667Y2147D02*
Y2120D01*
Y2183D02*
Y2210D01*
Y2247D02*
Y2220D01*
Y2283D02*
Y2310D01*
X2685Y2165D02*
X2712D01*
X2685Y2265D02*
X2712D01*
X2813Y3690D02*
X2786D01*
X2867Y3637D02*
Y3610D01*
Y3743D02*
Y3770D01*
X2920Y3690D02*
X2947D01*
X3091Y3164D02*
X3072Y3145D01*
X3091Y3216D02*
X3072Y3235D01*
X3142Y3216D02*
X3161Y3235D01*
X3191Y3216D02*
X3172Y3235D01*
X3242Y3216D02*
X3261Y3235D01*
D02*
D23*
X3528Y2551D03*
X3767Y1990D03*
X4005Y2550D03*
D02*
D24*
X622Y1903D02*
X719D01*
Y1988*
X729*
Y1993*
X719*
Y2088*
X814*
Y1993*
X804*
Y1988*
X814*
Y1978*
X1037*
G75*
G02X1104Y1911I29J-38*
G01*
Y1903*
X3079*
X3179Y2003*
X1819*
G75*
G02X1779Y1980I-40J25*
G01*
G75*
G02Y2075J48*
G01*
G75*
G02X1819Y2053J-48*
G01*
X2000*
G75*
G02X1995Y2056I17J25*
G01*
X1692Y2360*
X1203*
G75*
G02X1167Y2342I-37J30*
G01*
G75*
G02Y2438J48*
G01*
G75*
G02X1203Y2420J-48*
G01*
X1704*
G75*
G02X1725Y2411J-30*
G01*
X2029Y2108*
X2742*
X2765Y2131*
G75*
G02X2767Y2139I39J-3*
G01*
Y2340*
X2747*
G75*
G02X2688Y2378I-18J38*
G01*
G75*
G02X2747Y2415I42*
G01*
X2786*
G75*
G02X2842Y2360I18J-38*
G01*
Y2165*
X3149*
G75*
G02X3208Y2128I18J-38*
G01*
G75*
G02X3149Y2090I-42*
G01*
X2815*
G75*
G02X2807Y2088I-11J38*
G01*
X2775Y2056*
G75*
G02X2771Y2053I-21J21*
G01*
X3194*
X3217Y2075*
Y2965*
G75*
G02X3224Y2983I25*
G01*
X3279Y3038*
Y3062*
G75*
G02X3254Y3053I-25J28*
G01*
X3163*
G75*
G02X3057Y3090I-47J38*
G01*
G75*
G02X3083Y3140I60*
G01*
G75*
G02Y3240I33J50*
G01*
G75*
G02X3079Y3337I33J50*
G01*
Y3399*
X3040Y3438*
G75*
G02X3029Y3465I27J27*
G01*
Y3623*
G75*
G02X2990Y3690I38J67*
G01*
G75*
G02X3143I77*
G01*
G75*
G02X3104Y3623I-77*
G01*
Y3481*
X3143Y3442*
G75*
G02X3154Y3415I-27J-27*
G01*
Y3337*
G75*
G02X3150Y3240I-38J-47*
G01*
G75*
G02X3167Y3223I-33J-50*
G01*
G75*
G02X3267I50J-33*
G01*
Y3387*
X3202Y3451*
G75*
G02X3192Y3478I27J27*
G01*
Y3553*
G75*
G02X3202Y3579I38*
G01*
X3279Y3656*
Y3885*
X622*
Y1903*
X662Y3753D02*
G75*
G02X847I93D01*
G01*
G75*
G02X662I-93*
G01*
X719Y2388D02*
X814D01*
Y2293*
X719*
Y2388*
Y2488D02*
X814D01*
Y2393*
X719*
Y2488*
Y2652D02*
X699Y2672D01*
G75*
G02X692Y2690I18J18*
G01*
Y2990*
G75*
G02X699Y3008I25*
G01*
X719Y3028*
Y3088*
X814*
Y2993*
X754*
X749Y2988*
X814*
Y2978*
X838*
X916Y3056*
Y3315*
G75*
G02X927Y3342I38*
G01*
X1052Y3467*
G75*
G02X1079Y3478I27J-27*
G01*
X1129*
Y3693*
X1119*
Y3788*
X1214*
Y3693*
X1204*
Y3478*
X1919*
Y3488*
X1937*
Y3503*
G75*
G02X1945Y3524I30*
G01*
X1970Y3549*
G75*
G02X1991Y3558I21J-21*
G01*
X2663*
G75*
G02X2692Y3569I29J-30*
G01*
G75*
G02Y3486J-42*
G01*
G75*
G02X2663Y3498J42*
G01*
X2004*
X1997Y3490*
Y3488*
X2014*
Y3393*
X1919*
Y3403*
X1897*
Y3238*
X1914*
Y3143*
X1819*
Y3238*
X1837*
Y3403*
X1178*
G75*
G02X1155I-11J38*
G01*
X1095*
X992Y3299*
Y3040*
G75*
G02X981Y3013I-38*
G01*
X881Y2913*
G75*
G02X854Y2903I-27J27*
G01*
X814*
Y2893*
X742*
Y2888*
X814*
Y2793*
X742*
Y2788*
X814*
Y2693*
X749*
X754Y2688*
X814*
Y2593*
X719*
Y2652*
Y3188D02*
X814D01*
Y3093*
X719*
Y3188*
X737Y2188D02*
Y2192D01*
X719*
Y2288*
X814*
Y2270*
X937*
Y2353*
G75*
G02X967Y2438I30J37*
G01*
G75*
G02X997Y2353J-48*
G01*
Y2250*
G75*
G02X998Y2244I-30J-10*
G01*
X1056Y2186*
G75*
G02X1114Y2140I11J-46*
G01*
G75*
G02X1019I-47*
G01*
G75*
G02X1020Y2151I47J0*
G01*
X963Y2209*
G75*
G02X956Y2210I4J31*
G01*
X814*
Y2192*
X797*
Y2188*
X814*
Y2092*
X719*
Y2188*
X737*
X789Y3453D02*
G75*
G02X894I53D01*
G01*
G75*
G02X789I-53*
G01*
X792Y3253D02*
Y3353D01*
X891*
Y3253*
X792*
X1042Y3150D02*
G75*
G02X1019Y3190I25J40D01*
G01*
G75*
G02X1114I48*
G01*
G75*
G02X1092Y3150I-48*
G01*
Y3125*
X1427Y2790*
X1456*
X1149Y3097*
G75*
G02X1142Y3115I18J18*
G01*
Y3150*
G75*
G02X1119Y3190I25J40*
G01*
G75*
G02X1214I48*
G01*
G75*
G02X1192Y3150I-48*
G01*
Y3125*
X1489Y2828*
X1879*
G75*
G02X1897Y2820J-25*
G01*
X1922Y2795*
X1928*
G75*
G02X2003Y2770I33J-25*
G01*
G75*
G02X1987Y2738I-42*
G01*
G75*
G02X2003Y2705I-26J-33*
G01*
G75*
G02X1928Y2680I-42*
G01*
X1927*
G75*
G02X1909Y2687J25*
G01*
X1856Y2740*
X1417*
G75*
G02X1399Y2747J25*
G01*
X1049Y3097*
G75*
G02X1042Y3115I18J18*
G01*
Y3150*
X1114Y3788D02*
Y3693D01*
X1019*
Y3788*
X1114*
X1314Y3190D02*
G75*
G02X1219I-48D01*
G01*
G75*
G02X1314I48*
G01*
Y3788D02*
Y3693D01*
X1219*
Y3788*
X1314*
X1414Y3190D02*
G75*
G02X1319I-48D01*
G01*
G75*
G02X1414I48*
G01*
Y3788D02*
Y3693D01*
X1319*
Y3788*
X1414*
X1514Y3190D02*
G75*
G02X1419I-48D01*
G01*
G75*
G02X1514I48*
G01*
Y3788D02*
Y3693D01*
X1419*
Y3788*
X1514*
X1614Y3190D02*
G75*
G02X1519I-48D01*
G01*
G75*
G02X1614I48*
G01*
Y3788D02*
Y3693D01*
X1519*
Y3788*
X1614*
X1704Y2055D02*
G75*
G02Y2150J48D01*
G01*
G75*
G02Y2055J-48*
G01*
X1714Y3190D02*
G75*
G02X1619I-48D01*
G01*
G75*
G02X1714I48*
G01*
Y3788D02*
Y3693D01*
X1619*
Y3788*
X1714*
X1766Y2923D02*
Y2928D01*
G75*
G02X1774Y2945I25*
G01*
X1786Y2958*
G75*
G02X1804Y2965I18J-18*
G01*
X1956*
X1949Y2972*
G75*
G02X1941Y2990I18J18*
G01*
Y3293*
X1919*
Y3388*
X2014*
Y3293*
X1991*
Y3000*
X2054Y2938*
G75*
G02X2054Y2940I25J2*
G01*
Y3053*
G75*
G02X2061Y3070I25*
G01*
X2142Y3150*
Y3293*
X2119*
Y3388*
X2214*
Y3293*
X2192*
Y3140*
G75*
G02X2184Y3122I-25*
G01*
X2104Y3042*
Y2950*
X2127Y2928*
X2133*
G75*
G02X2125Y2953I33J25*
G01*
G75*
G02X2200Y2978I42*
G01*
X2281*
X2342Y3038*
Y3293*
X2319*
Y3388*
X2414*
Y3293*
X2392*
Y3028*
G75*
G02X2384Y3010I-25*
G01*
X2309Y2935*
G75*
G02X2292Y2928I-18J18*
G01*
X2200*
G75*
G02X2199Y2926I-33J25*
G01*
G75*
G02X2209Y2920I-7J-24*
G01*
X2234Y2895*
G75*
G02X2242Y2878I-18J-18*
G01*
Y2828*
G75*
G02X2234Y2810I-25*
G01*
X2209Y2785*
G75*
G02X2192Y2778I-18J18*
G01*
X2104*
G75*
G02X2086Y2785J25*
G01*
X1956Y2915*
X1825*
G75*
G02X1833Y2890I-33J-25*
G01*
G75*
G02X1750I-42*
G01*
G75*
G02X1766Y2923I42*
G01*
X1779Y2130D02*
G75*
G02Y2225J48D01*
G01*
G75*
G02Y2130J-48*
G01*
X1814Y3190D02*
G75*
G02X1719I-48D01*
G01*
G75*
G02X1814I48*
G01*
Y3788D02*
Y3693D01*
X1719*
Y3788*
X1814*
X1914D02*
Y3693D01*
X1819*
Y3788*
X1914*
X2014D02*
Y3693D01*
X1919*
Y3788*
X2014*
X2019Y3293D02*
Y3388D01*
X2114*
Y3293*
X2019*
Y3393D02*
Y3488D01*
X2114*
Y3393*
X2019*
X2119D02*
Y3488D01*
X2214*
Y3393*
X2119*
X2219Y3293D02*
Y3388D01*
X2314*
Y3293*
X2219*
Y3393D02*
Y3488D01*
X2314*
Y3393*
X2219*
X2269Y2340D02*
G75*
G02X2364I47D01*
G01*
G75*
G02X2269I-47*
G01*
Y2540D02*
G75*
G02X2364I47D01*
G01*
G75*
G02X2269I-47*
G01*
X2319Y3393D02*
Y3488D01*
X2414*
Y3393*
X2319*
X2497Y2844D02*
X2517Y2863D01*
Y3069*
G75*
G02X2500Y3103I25J33*
G01*
G75*
G02X2583I42*
G01*
G75*
G02X2567Y3069I-42*
G01*
Y2853*
G75*
G02X2559Y2835I-25*
G01*
X2533Y2808*
G75*
G02X2533Y2803I-41J-6*
G01*
G75*
G02X2450I-42*
G01*
G75*
G02X2497Y2844I42*
G01*
X2567Y2623D02*
Y2769D01*
G75*
G02X2550Y2803I25J33*
G01*
G75*
G02X2633I42*
G01*
G75*
G02X2617Y2769I-42*
G01*
Y2623*
G75*
G02X2633Y2590I-25J-33*
G01*
G75*
G02X2550I-42*
G01*
G75*
G02X2567Y2623I42*
G01*
X2625Y2165D02*
G75*
G02X2708I42D01*
G01*
G75*
G02X2625I-42*
G01*
Y2265D02*
G75*
G02X2708I42D01*
G01*
G75*
G02X2625I-42*
G01*
X2943Y3690D02*
G75*
G02X2790I-77D01*
G01*
G75*
G02X2943I77*
G01*
X622Y3753D02*
G36*
Y3453D01*
X789*
G75*
G02X894I53*
G01*
X1038*
X1052Y3467*
G75*
G02X1079Y3478I27J-27*
G01*
X1129*
Y3693*
X1119*
Y3753*
X1114*
Y3693*
X1019*
Y3753*
X847*
G75*
G02X662I-93*
G01*
X622*
G37*
X662D02*
G36*
G75*
G02X847I93D01*
G01*
X1019*
Y3788*
X1114*
Y3753*
X1119*
Y3788*
X1214*
Y3753*
X1219*
Y3788*
X1314*
Y3753*
X1319*
Y3788*
X1414*
Y3753*
X1419*
Y3788*
X1514*
Y3753*
X1519*
Y3788*
X1614*
Y3753*
X1619*
Y3788*
X1714*
Y3753*
X1719*
Y3788*
X1814*
Y3753*
X1819*
Y3788*
X1914*
Y3753*
X1919*
Y3788*
X2014*
Y3753*
X2822*
G75*
G02X2911I44J-63*
G01*
X3022*
G75*
G02X3143Y3690I44J-63*
G01*
G75*
G02X3104Y3623I-77*
G01*
Y3481*
X3143Y3442*
G75*
G02X3154Y3415I-27J-27*
G01*
Y3337*
G75*
G02X3150Y3240I-38J-47*
G01*
G75*
G02X3167Y3223I-33J-50*
G01*
G75*
G02X3267I50J-33*
G01*
Y3387*
X3202Y3451*
G75*
G02X3192Y3478I27J27*
G01*
Y3553*
G75*
G02X3202Y3579I38*
G01*
X3279Y3656*
Y3885*
X622*
Y3753*
X662*
G37*
X1214D02*
G36*
Y3693D01*
X1204*
Y3478*
X1919*
Y3488*
X1937*
Y3503*
G75*
G02X1945Y3524I30*
G01*
X1970Y3549*
G75*
G02X1991Y3558I21J-21*
G01*
X2663*
G75*
G02X2692Y3569I29J-30*
G01*
G75*
G02Y3486J-42*
G01*
G75*
G02X2663Y3498J42*
G01*
X2004*
X1997Y3490*
Y3488*
X2014*
Y3453*
X2019*
Y3488*
X2114*
Y3453*
X2119*
Y3488*
X2214*
Y3453*
X2219*
Y3488*
X2314*
Y3453*
X2319*
Y3488*
X2414*
Y3453*
X3031*
G75*
G02X3029Y3465I35J13*
G01*
Y3623*
G75*
G02X2990Y3690I38J67*
G01*
G75*
G02X3022Y3753I77*
G01*
X2911*
G75*
G02X2943Y3690I-44J-63*
G01*
G75*
G02X2790I-77*
G01*
G75*
G02X2822Y3753I77*
G01*
X2014*
Y3693*
X1919*
Y3753*
X1914*
Y3693*
X1819*
Y3753*
X1814*
Y3693*
X1719*
Y3753*
X1714*
Y3693*
X1619*
Y3753*
X1614*
Y3693*
X1519*
Y3753*
X1514*
Y3693*
X1419*
Y3753*
X1414*
Y3693*
X1319*
Y3753*
X1314*
Y3693*
X1219*
Y3753*
X1214*
G37*
X622Y2340D02*
G36*
Y2265D01*
X719*
Y2288*
X814*
Y2270*
X937*
Y2340*
X814*
Y2293*
X719*
Y2340*
X622*
G37*
X719D02*
G36*
Y2388D01*
X814*
Y2340*
X937*
Y2353*
G75*
G02X967Y2438I30J37*
G01*
G75*
G02X997Y2353J-48*
G01*
Y2340*
X1712*
X1692Y2360*
X1203*
G75*
G02X1167Y2342I-37J30*
G01*
G75*
G02Y2438J48*
G01*
G75*
G02X1203Y2420J-48*
G01*
X1704*
G75*
G02X1725Y2411J-30*
G01*
X1796Y2340*
X2269*
G75*
G02X2364I47*
G01*
X2711*
G75*
G02X2688Y2378I18J38*
G01*
G75*
G02X2747Y2415I42*
G01*
X2786*
G75*
G02X2842Y2360I18J-38*
G01*
Y2165*
X3149*
G75*
G02X3208Y2128I18J-38*
G01*
G75*
G02X3149Y2090I-42*
G01*
X2815*
G75*
G02X2807Y2088I-11J38*
G01*
X2775Y2056*
G75*
G02X2771Y2053I-21J21*
G01*
X3194*
X3217Y2075*
Y2440*
X814*
Y2393*
X719*
Y2440*
X622*
Y2340*
X719*
G37*
X997D02*
G36*
Y2265D01*
X1787*
X1712Y2340*
X997*
G37*
X1796D02*
G36*
X1871Y2265D01*
X2625*
G75*
G02X2708I42*
G01*
X2767*
Y2340*
X2747*
G75*
G02X2711I-18J38*
G01*
X2364*
G75*
G02X2269I-47*
G01*
X1796*
G37*
X719Y2440D02*
G36*
Y2488D01*
X814*
Y2440*
X3217*
Y2540*
X2364*
G75*
G02X2269I-47*
G01*
X622*
Y2440*
X719*
G37*
X622Y3140D02*
G36*
Y2696D01*
X692*
Y2990*
G75*
G02X699Y3008I25*
G01*
X719Y3028*
Y3088*
X814*
Y2993*
X754*
X749Y2988*
X814*
Y2978*
X838*
X916Y3056*
Y3140*
X814*
Y3093*
X719*
Y3140*
X622*
G37*
X719D02*
G36*
Y3188D01*
X814*
Y3140*
X916*
Y3190*
X622*
Y3140*
X719*
G37*
X992D02*
G36*
Y3040D01*
G75*
G02X981Y3013I-38*
G01*
X881Y2913*
G75*
G02X854Y2903I-27J27*
G01*
X814*
Y2893*
X742*
Y2888*
X814*
Y2793*
X742*
Y2788*
X814*
Y2696*
X1900*
X1856Y2740*
X1417*
G75*
G02X1399Y2747J25*
G01*
X1049Y3097*
G75*
G02X1042Y3115I18J18*
G01*
Y3140*
X992*
G37*
X1042D02*
G36*
Y3150D01*
G75*
G02X1019Y3190I25J40*
G01*
X992*
Y3140*
X1042*
G37*
X1192D02*
G36*
Y3125D01*
X1489Y2828*
X1879*
G75*
G02X1897Y2820J-25*
G01*
X1922Y2795*
X1928*
G75*
G02X2003Y2770I33J-25*
G01*
G75*
G02X1987Y2738I-42*
G01*
G75*
G02X2003Y2705I-26J-33*
G01*
G75*
G02X2002Y2696I-42*
G01*
X2567*
Y2769*
G75*
G02X2550Y2803I25J33*
G01*
G75*
G02X2633I42*
G01*
G75*
G02X2617Y2769I-42*
G01*
Y2696*
X3217*
Y2965*
G75*
G02X3224Y2983I25*
G01*
X3279Y3038*
Y3062*
G75*
G02X3254Y3053I-25J28*
G01*
X3163*
G75*
G02X3057Y3090I-47J38*
G01*
G75*
G02X3083Y3140I60*
G01*
X2559*
G75*
G02X2583Y3103I-18J-38*
G01*
G75*
G02X2567Y3069I-42*
G01*
Y2853*
G75*
G02X2559Y2835I-25*
G01*
X2533Y2808*
G75*
G02X2533Y2803I-41J-6*
G01*
G75*
G02X2450I-42*
G01*
G75*
G02X2497Y2844I42*
G01*
X2517Y2863*
Y3069*
G75*
G02X2500Y3103I25J33*
G01*
G75*
G02X2524Y3140I42*
G01*
X2392*
Y3028*
G75*
G02X2384Y3010I-25*
G01*
X2309Y2935*
G75*
G02X2292Y2928I-18J18*
G01*
X2200*
G75*
G02X2199Y2926I-33J25*
G01*
G75*
G02X2209Y2920I-7J-24*
G01*
X2234Y2895*
G75*
G02X2242Y2878I-18J-18*
G01*
Y2828*
G75*
G02X2234Y2810I-25*
G01*
X2209Y2785*
G75*
G02X2192Y2778I-18J18*
G01*
X2104*
G75*
G02X2086Y2785J25*
G01*
X1956Y2915*
X1825*
G75*
G02X1833Y2890I-33J-25*
G01*
G75*
G02X1750I-42*
G01*
G75*
G02X1766Y2923I42*
G01*
Y2928*
G75*
G02X1774Y2945I25*
G01*
X1786Y2958*
G75*
G02X1804Y2965I18J-18*
G01*
X1956*
X1949Y2972*
G75*
G02X1941Y2990I18J18*
G01*
Y3140*
X1192*
G37*
X1941D02*
G36*
Y3190D01*
X1914*
Y3143*
X1819*
Y3190*
X1814*
G75*
G02X1719I-48*
G01*
X1714*
G75*
G02X1619I-48*
G01*
X1614*
G75*
G02X1519I-48*
G01*
X1514*
G75*
G02X1419I-48*
G01*
X1414*
G75*
G02X1319I-48*
G01*
X1314*
G75*
G02X1219I-48*
G01*
X1214*
G75*
G02X1192Y3150I-48*
G01*
Y3140*
X1941*
G37*
X2524D02*
G36*
G75*
G02X2559I18J-38D01*
G01*
X3083*
G75*
G02X3057Y3190I33J50*
G01*
X2392*
Y3140*
X2524*
G37*
X622Y3453D02*
G36*
Y3303D01*
X792*
Y3353*
X891*
Y3303*
X916*
Y3315*
G75*
G02X927Y3342I38*
G01*
X1038Y3453*
X894*
G75*
G02X789I-53*
G01*
X622*
G37*
X2014D02*
G36*
Y3393D01*
X1919*
Y3403*
X1897*
Y3303*
X1919*
Y3388*
X2014*
Y3303*
X2019*
Y3388*
X2114*
Y3303*
X2119*
Y3388*
X2214*
Y3303*
X2219*
Y3388*
X2314*
Y3303*
X2319*
Y3388*
X2414*
Y3303*
X3058*
G75*
G02X3079Y3337I59J-13*
G01*
Y3399*
X3040Y3438*
G75*
G02X3031Y3453I27J27*
G01*
X2414*
Y3393*
X2319*
Y3453*
X2314*
Y3393*
X2219*
Y3453*
X2214*
Y3393*
X2119*
Y3453*
X2114*
Y3393*
X2019*
Y3453*
X2014*
G37*
X622Y3303D02*
G36*
Y3190D01*
X916*
Y3303*
X891*
Y3253*
X792*
Y3303*
X622*
G37*
X1897D02*
G36*
Y3238D01*
X1914*
Y3190*
X1941*
Y3293*
X1919*
Y3303*
X1897*
G37*
X2014D02*
G36*
Y3293D01*
X1991*
Y3000*
X2054Y2938*
G75*
G02X2054Y2940I25J2*
G01*
Y3053*
G75*
G02X2061Y3070I25*
G01*
X2142Y3150*
Y3293*
X2119*
Y3303*
X2114*
Y3293*
X2019*
Y3303*
X2014*
G37*
X2214D02*
G36*
Y3293D01*
X2192*
Y3140*
G75*
G02X2184Y3122I-25*
G01*
X2104Y3042*
Y2950*
X2127Y2928*
X2133*
G75*
G02X2125Y2953I33J25*
G01*
G75*
G02X2200Y2978I42*
G01*
X2281*
X2342Y3038*
Y3293*
X2319*
Y3303*
X2314*
Y3293*
X2219*
Y3303*
X2214*
G37*
X2414D02*
G36*
Y3293D01*
X2392*
Y3190*
X3057*
G75*
G02X3083Y3240I60*
G01*
G75*
G02X3058Y3303I33J50*
G01*
X2414*
G37*
X1019Y3190D02*
G36*
G75*
G02X1114I48D01*
G01*
G75*
G02X1092Y3150I-48*
G01*
Y3125*
X1427Y2790*
X1456*
X1149Y3097*
G75*
G02X1142Y3115I18J18*
G01*
Y3150*
G75*
G02X1119Y3190I25J40*
G01*
G75*
G02X1214I48*
G01*
X1219*
G75*
G02X1314I48*
G01*
X1319*
G75*
G02X1414I48*
G01*
X1419*
G75*
G02X1514I48*
G01*
X1519*
G75*
G02X1614I48*
G01*
X1619*
G75*
G02X1714I48*
G01*
X1719*
G75*
G02X1814I48*
G01*
X1819*
Y3238*
X1837*
Y3403*
X1178*
G75*
G02X1155I-11J38*
G01*
X1095*
X992Y3299*
Y3190*
X1019*
G37*
X622Y2103D02*
G36*
Y1903D01*
X719*
Y1988*
X729*
Y1993*
X719*
Y2088*
X814*
Y1993*
X804*
Y1988*
X814*
Y1978*
X1037*
G75*
G02X1104Y1911I29J-38*
G01*
Y1903*
X3079*
X3179Y2003*
X1819*
G75*
G02X1779Y1980I-40J25*
G01*
G75*
G02Y2075J48*
G01*
G75*
G02X1819Y2053J-48*
G01*
X2000*
G75*
G02X1995Y2056I17J25*
G01*
X1949Y2103*
X1752*
G75*
G02X1704Y2055I-48*
G01*
G75*
G02X1657Y2103J48*
G01*
X1096*
G75*
G02X1019Y2140I-29J38*
G01*
G75*
G02X1020Y2151I47J0*
G01*
X963Y2209*
G75*
G02X956Y2210I4J31*
G01*
X814*
Y2192*
X797*
Y2188*
X814*
Y2092*
X719*
Y2103*
X622*
G37*
X719D02*
G36*
Y2178D01*
X622*
Y2103*
X719*
G37*
X1657D02*
G36*
G75*
G02X1704Y2150I48D01*
G01*
G75*
G02X1752Y2103J-48*
G01*
X1949*
X1874Y2178*
X1827*
G75*
G02X1779Y2130I-48*
G01*
G75*
G02X1732Y2178J48*
G01*
X1096*
G75*
G02X1114Y2140I-29J-38*
G01*
G75*
G02X1096Y2103I-47*
G01*
X1657*
G37*
X719Y2178D02*
G36*
Y2188D01*
X737*
Y2192*
X719*
Y2265*
X622*
Y2178*
X719*
G37*
X1732D02*
G36*
G75*
G02X1779Y2225I48D01*
G01*
G75*
G02X1827Y2178J-48*
G01*
X1874*
X1787Y2265*
X997*
Y2250*
G75*
G02X998Y2244I-30J-10*
G01*
X1056Y2186*
G75*
G02X1096Y2178I11J-46*
G01*
X1732*
G37*
X1959D02*
G36*
X2029Y2108D01*
X2742*
X2765Y2131*
G75*
G02X2767Y2139I39J-3*
G01*
Y2178*
X2706*
G75*
G02X2708Y2165I-40J-13*
G01*
G75*
G02X2625I-42*
G01*
G75*
G02X2627Y2178I42J0*
G01*
X1959*
G37*
X2627D02*
G36*
G75*
G02X2706I40J-13D01*
G01*
X2767*
Y2265*
X2708*
G75*
G02X2625I-42*
G01*
X1871*
X1959Y2178*
X2627*
G37*
X2269Y2540D02*
G36*
G75*
G02X2364I47D01*
G01*
X3217*
Y2696*
X2617*
Y2623*
G75*
G02X2633Y2590I-25J-33*
G01*
G75*
G02X2550I-42*
G01*
G75*
G02X2567Y2623I42*
G01*
Y2696*
X2002*
G75*
G02X1928Y2680I-41J9*
G01*
X1927*
G75*
G02X1909Y2687J25*
G01*
X1900Y2696*
X814*
Y2693*
X749*
X754Y2688*
X814*
Y2593*
X719*
Y2652*
X699Y2672*
G75*
G02X692Y2690I18J18*
G01*
Y2696*
X622*
Y2540*
X2269*
G37*
X4117Y3D02*
X567D01*
Y3940*
X4117*
Y3*
D02*
D72*
X1626Y218D03*
Y415D03*
Y1399D03*
Y1596D03*
X3004Y218D03*
Y612D03*
Y1202D03*
Y1596D03*
D02*
D78*
X754Y190D03*
Y3753D03*
X3929Y190D03*
Y3753D03*
D02*
D87*
X842Y3303D03*
D02*
D108*
X1067Y3740D03*
X1167D03*
X1267D03*
X1367D03*
X1466D03*
X1566D03*
X1666D03*
X1766D03*
X1866D03*
X1966D03*
D02*
D112*
X867Y440D03*
Y640D03*
Y1040D03*
Y1540D03*
X1067Y640D03*
X3117Y3090D03*
Y3190D03*
Y3290D03*
X3217Y3190D03*
X3530Y2069D03*
X4003Y2069D03*
D02*
D113*
X3667Y440D03*
Y640D03*
Y740D03*
X3767Y2940D03*
Y3140D03*
Y3240D03*
D02*
D115*
X1067Y1940D03*
Y2140D03*
X2317Y2340D03*
Y2540D03*
D02*
D116*
X1067Y440D03*
D02*
D117*
Y1040D03*
Y1540D03*
D02*
D122*
X3467Y1040D03*
Y1240D03*
Y1440D03*
X3867Y1040D03*
Y1240D03*
Y1440D03*
D02*
D125*
X842Y3453D03*
D02*
D126*
X2867Y3690D03*
X3067D03*
X0Y0D02*
M02*
