%FSLAX23Y23*%
%MOIN*%
G04 EasyPC Gerber Version 14.0.2 Build 2922 *
%ADD145R,0.01200X0.07600*%
%ADD105R,0.02100X0.07600*%
%ADD148R,0.03600X0.04400*%
%ADD11R,0.05100X0.05600*%
%ADD147R,0.05100X0.07600*%
%ADD149R,0.05506X0.11411*%
%ADD107R,0.06600X0.12200*%
%ADD152R,0.23222X0.25191*%
%ADD146R,0.07600X0.01200*%
%ADD10R,0.07600X0.02100*%
%ADD12R,0.05600X0.05100*%
%ADD144R,0.07600X0.05100*%
%ADD106R,0.12200X0.06600*%
X0Y0D02*
D02*
D10*
X2544Y2903D03*
Y2953D03*
Y3003D03*
Y3053D03*
X2557Y2115D03*
Y2165D03*
Y2215D03*
Y2265D03*
X2764Y2903D03*
Y2953D03*
Y3003D03*
Y3053D03*
X2777Y2115D03*
Y2165D03*
Y2215D03*
Y2265D03*
X2817Y2903D03*
Y2953D03*
Y3003D03*
Y3053D03*
D02*
D11*
X1067Y3333D03*
Y3423D03*
X1167Y3333D03*
Y3423D03*
X1267Y3333D03*
Y3423D03*
X1304Y2308D03*
Y2398D03*
X1367Y3333D03*
Y3423D03*
X1429Y2308D03*
Y2398D03*
X1466Y3333D03*
Y3423D03*
X1566Y2308D03*
Y2398D03*
Y3333D03*
Y3423D03*
X1666Y3333D03*
Y3423D03*
X1766Y3333D03*
Y3423D03*
X2154Y2308D03*
Y2398D03*
Y2508D03*
Y2598D03*
X3167Y2533D03*
Y2623D03*
Y2720D03*
Y2810D03*
X3254Y2720D03*
Y2810D03*
D02*
D12*
X1297Y1978D03*
Y2503D03*
Y2690D03*
Y2765D03*
X1387Y1978D03*
Y2503D03*
Y2690D03*
Y2765D03*
X1572Y2503D03*
X1661D03*
X1972Y3190D03*
Y3603D03*
X2022Y2078D03*
X2062Y3190D03*
Y3603D03*
X2112Y2078D03*
X2272Y2740D03*
Y2840D03*
Y2915D03*
Y2990D03*
Y3065D03*
X2362Y2740D03*
Y2840D03*
Y2915D03*
Y2990D03*
Y3065D03*
X2534Y2390D03*
X2624D03*
X2672Y3140D03*
X2697Y2590D03*
Y2678D03*
X2762Y3140D03*
X2787Y2590D03*
Y2678D03*
X2897Y3140D03*
Y3340D03*
X2909Y2165D03*
X2987Y3140D03*
Y3340D03*
X2999Y2165D03*
X3309Y3453D03*
X3399D03*
D02*
D105*
X2917Y2380D03*
Y2600D03*
X2967Y2380D03*
Y2600D03*
X3017Y2380D03*
Y2600D03*
X3067Y2380D03*
Y2600D03*
D02*
D106*
X3317Y2178D03*
Y2378D03*
X3367Y3090D03*
Y3290D03*
D02*
D107*
X1779Y2365D03*
X1979D03*
X2167Y3603D03*
X2367D03*
X2579Y1978D03*
X2779D03*
D02*
D144*
X2567Y3303D03*
Y3449D03*
X2692Y3303D03*
Y3449D03*
X3167Y2232D03*
Y2378D03*
D02*
D145*
X1756Y2628D03*
Y2978D03*
X1788Y2628D03*
Y2978D03*
X1819Y2628D03*
Y2978D03*
X1851Y2628D03*
Y2978D03*
X1882Y2628D03*
Y2978D03*
X1914Y2628D03*
Y2978D03*
X1945Y2628D03*
Y2978D03*
X1977Y2628D03*
Y2978D03*
D02*
D146*
X1691Y2692D03*
Y2724D03*
Y2755D03*
Y2787D03*
Y2818D03*
Y2850D03*
Y2881D03*
Y2913D03*
X2041Y2692D03*
Y2724D03*
Y2755D03*
Y2787D03*
Y2818D03*
Y2850D03*
Y2881D03*
Y2913D03*
D02*
D147*
X2021Y1978D03*
X2167D03*
D02*
D148*
X2977Y2896D03*
X3017Y2809D03*
X3057Y2896D03*
D02*
D149*
X3477Y3478D03*
X3657D03*
D02*
D152*
X3567Y3728D03*
X0Y0D02*
M02*
