%FSLAX23Y23*%
%MOIN*%
G04 EasyPC Gerber Version 14.0.2 Build 2922 *
%ADD134R,0.02600X0.09000*%
%ADD101R,0.03500X0.09000*%
%ADD138R,0.05000X0.05800*%
%ADD74R,0.06500X0.07000*%
%ADD137R,0.06500X0.09000*%
%ADD140R,0.06906X0.12811*%
%ADD103R,0.08000X0.13600*%
%ADD141R,0.24622X0.26591*%
%ADD21R,0.07000X0.07000*%
%ADD110R,0.07000X0.07000*%
%ADD93R,0.07500X0.07500*%
%ADD133R,0.09000X0.09000*%
%ADD132R,0.09500X0.09500*%
%ADD127C,0.05800*%
%ADD131C,0.06984*%
%ADD22C,0.07000*%
%ADD142C,0.08000*%
%ADD139C,0.08500*%
%ADD128C,0.09500*%
%ADD136C,0.11000*%
%ADD135R,0.09000X0.02600*%
%ADD73R,0.09000X0.03500*%
%ADD143C,0.12811*%
%ADD129C,0.13500*%
%ADD75R,0.07000X0.06500*%
%ADD76C,0.15000*%
%ADD83C,0.16000*%
%ADD130R,0.09000X0.06500*%
%ADD102R,0.13600X0.08000*%
X0Y0D02*
D02*
D21*
X766Y1940D03*
Y2040D03*
Y2140D03*
Y2240D03*
Y2340D03*
Y2440D03*
Y2640D03*
Y2740D03*
Y2840D03*
Y2940D03*
Y3040D03*
Y3140D03*
X1866Y3190D03*
X1966Y3340D03*
Y3440D03*
X2067Y3340D03*
Y3440D03*
X2167Y3340D03*
Y3440D03*
X2267Y3340D03*
Y3440D03*
X2367Y3340D03*
Y3440D03*
D02*
D22*
X967Y2390D03*
X1067Y3190D03*
X1167Y2390D03*
Y3190D03*
X1267D03*
X1367D03*
X1466D03*
X1566D03*
X1666D03*
X1704Y2103D03*
X1766Y3190D03*
X1779Y2028D03*
Y2178D03*
D02*
D73*
X2544Y2903D03*
Y2953D03*
Y3003D03*
Y3053D03*
X2557Y2115D03*
Y2165D03*
Y2215D03*
Y2265D03*
X2764Y2903D03*
Y2953D03*
Y3003D03*
Y3053D03*
X2777Y2115D03*
Y2165D03*
Y2215D03*
Y2265D03*
X2817Y2903D03*
Y2953D03*
Y3003D03*
Y3053D03*
D02*
D74*
X1067Y3333D03*
Y3423D03*
X1167Y3333D03*
Y3423D03*
X1267Y3333D03*
Y3423D03*
X1304Y2308D03*
Y2398D03*
X1367Y3333D03*
Y3423D03*
X1429Y2308D03*
Y2398D03*
X1466Y3333D03*
Y3423D03*
X1566Y2308D03*
Y2398D03*
Y3333D03*
Y3423D03*
X1666Y3333D03*
Y3423D03*
X1766Y3333D03*
Y3423D03*
X2154Y2308D03*
Y2398D03*
Y2508D03*
Y2598D03*
X3167Y2533D03*
Y2623D03*
Y2720D03*
Y2810D03*
X3254Y2720D03*
Y2810D03*
D02*
D75*
X1297Y1978D03*
Y2503D03*
Y2690D03*
Y2765D03*
X1387Y1978D03*
Y2503D03*
Y2690D03*
Y2765D03*
X1572Y2503D03*
X1661D03*
X1972Y3190D03*
Y3603D03*
X2022Y2078D03*
X2062Y3190D03*
Y3603D03*
X2112Y2078D03*
X2272Y2740D03*
Y2840D03*
Y2915D03*
Y2990D03*
Y3065D03*
X2362Y2740D03*
Y2840D03*
Y2915D03*
Y2990D03*
Y3065D03*
X2534Y2390D03*
X2624D03*
X2672Y3140D03*
X2697Y2590D03*
Y2678D03*
X2762Y3140D03*
X2787Y2590D03*
Y2678D03*
X2897Y3140D03*
Y3340D03*
X2909Y2165D03*
X2987Y3140D03*
Y3340D03*
X2999Y2165D03*
X3309Y3453D03*
X3399D03*
D02*
D76*
X1626Y218D03*
Y415D03*
Y1399D03*
Y1596D03*
X3004Y218D03*
Y612D03*
Y1202D03*
Y1596D03*
D02*
D83*
X754Y190D03*
Y3753D03*
X3929Y190D03*
Y3753D03*
D02*
D93*
X842Y3303D03*
D02*
D101*
X2917Y2380D03*
Y2600D03*
X2967Y2380D03*
Y2600D03*
X3017Y2380D03*
Y2600D03*
X3067Y2380D03*
Y2600D03*
D02*
D102*
X3317Y2178D03*
Y2378D03*
X3367Y3090D03*
Y3290D03*
D02*
D103*
X1779Y2365D03*
X1979D03*
X2167Y3603D03*
X2367D03*
X2579Y1978D03*
X2779D03*
D02*
D110*
X1067Y3740D03*
X1167D03*
X1267D03*
X1367D03*
X1466D03*
X1566D03*
X1666D03*
X1766D03*
X1866D03*
X1966D03*
D02*
D127*
X2667Y2165D03*
Y2265D03*
D02*
D128*
X867Y440D03*
Y640D03*
Y1040D03*
Y1540D03*
X1067Y640D03*
X3117Y3090D03*
Y3190D03*
Y3290D03*
X3217Y3190D03*
X3530Y2069D03*
X4003Y2069D03*
D02*
D129*
X3667Y440D03*
Y640D03*
Y740D03*
X3767Y2940D03*
Y3140D03*
Y3240D03*
D02*
D130*
X2567Y3303D03*
Y3449D03*
X2692Y3303D03*
Y3449D03*
X3167Y2232D03*
Y2378D03*
D02*
D131*
X1067Y1940D03*
Y2140D03*
X2317Y2340D03*
Y2540D03*
D02*
D132*
X1067Y440D03*
D02*
D133*
Y1040D03*
Y1540D03*
D02*
D134*
X1756Y2628D03*
Y2978D03*
X1788Y2628D03*
Y2978D03*
X1819Y2628D03*
Y2978D03*
X1851Y2628D03*
Y2978D03*
X1882Y2628D03*
Y2978D03*
X1914Y2628D03*
Y2978D03*
X1945Y2628D03*
Y2978D03*
X1977Y2628D03*
Y2978D03*
D02*
D135*
X1691Y2692D03*
Y2724D03*
Y2755D03*
Y2787D03*
Y2818D03*
Y2850D03*
Y2881D03*
Y2913D03*
X2041Y2692D03*
Y2724D03*
Y2755D03*
Y2787D03*
Y2818D03*
Y2850D03*
Y2881D03*
Y2913D03*
D02*
D136*
X3528Y2551D03*
X3767Y1990D03*
X4005Y2550D03*
D02*
D137*
X2021Y1978D03*
X2167D03*
D02*
D138*
X2977Y2896D03*
X3017Y2809D03*
X3057Y2896D03*
D02*
D139*
X3467Y1040D03*
Y1240D03*
Y1440D03*
X3867Y1040D03*
Y1240D03*
Y1440D03*
D02*
D140*
X3477Y3478D03*
X3657D03*
D02*
D141*
X3567Y3728D03*
D02*
D142*
X842Y3453D03*
D02*
D143*
X2867Y3690D03*
X3067D03*
X0Y0D02*
M02*
