%FSLAX23Y23*%
%MOIN*%
G04 EasyPC Gerber Version 14.0.2 Build 2922 *
%ADD118R,0.01600X0.08000*%
%ADD97R,0.02500X0.08000*%
%ADD121R,0.04000X0.04800*%
%ADD28R,0.05500X0.06000*%
%ADD120R,0.05500X0.08000*%
%ADD123R,0.05906X0.11811*%
%ADD99R,0.07000X0.12600*%
%ADD124R,0.23622X0.25591*%
%ADD15R,0.06000X0.06000*%
%ADD108R,0.06000X0.06000*%
%ADD87R,0.06500X0.06500*%
%ADD117R,0.08000X0.08000*%
%ADD116R,0.08500X0.08500*%
%ADD24C,0.00500*%
%ADD26C,0.00800*%
%ADD13C,0.01000*%
%ADD20C,0.01200*%
%ADD14C,0.01500*%
%ADD71C,0.02500*%
%ADD70C,0.04000*%
%ADD19C,0.04800*%
%ADD115C,0.05984*%
%ADD16C,0.06000*%
%ADD125C,0.07000*%
%ADD122C,0.07500*%
%ADD112C,0.08500*%
%ADD23C,0.10000*%
%ADD126C,0.11811*%
%ADD113C,0.12500*%
%ADD119R,0.08000X0.01600*%
%ADD27R,0.08000X0.02500*%
%ADD29R,0.06000X0.05500*%
%ADD72C,0.14000*%
%ADD114R,0.08000X0.05500*%
%ADD78C,0.15000*%
%ADD98R,0.12600X0.07000*%
X0Y0D02*
D02*
D13*
X1685Y846D02*
X1610D01*
Y815D02*
Y877D01*
X1660Y915D02*
X1635D01*
X1623Y921*
X1616Y928*
X1610Y940*
Y953*
X1616Y965*
X1623Y971*
X1635Y978*
X1660*
X1673Y971*
X1679Y965*
X1685Y953*
Y940*
X1679Y928*
X1673Y921*
X1660Y915*
X1685Y1015D02*
X1610D01*
Y1059*
X1616Y1071*
X1629Y1077*
X1641Y1071*
X1648Y1059*
Y1015*
D02*
D14*
X1067Y3333D02*
Y3190D01*
Y3423D02*
Y3553D01*
X1117Y3603*
Y3790*
X1142Y3815*
X1292*
X1367Y3740*
X1167Y3333D02*
Y3190D01*
Y3423D02*
Y3640D01*
X1267Y3740*
Y3333D02*
Y3190D01*
X1297Y2503D02*
X1304D01*
Y2398*
X1297Y2690D02*
X941D01*
X891Y2740*
X766*
X1297Y2765D02*
X967D01*
X891Y2840*
X766*
X1367Y3190D02*
Y3333D01*
Y3423D02*
Y3540D01*
X1566Y3740*
X1387Y2503D02*
Y2440D01*
X1429Y2398*
X1466Y3333D02*
Y3190D01*
Y3423D02*
Y3540D01*
X1666Y3740*
X1466D02*
X1267Y3540D01*
Y3423*
X1566Y2398D02*
Y2498D01*
X1572Y2503*
X1566Y3190D02*
Y3000D01*
X1654Y2913*
X1691*
X1566Y3333D02*
Y3190D01*
Y3423D02*
Y3540D01*
X1766Y3740*
X1666Y3333D02*
Y3190D01*
Y3423D02*
Y3528D01*
X1866Y3728*
Y3740*
X1691Y2692D02*
X1644D01*
X1454Y2503*
X1387*
X1691Y2724D02*
X1625D01*
X1591Y2690*
X1387*
X1691Y2755D02*
X1626D01*
X1616Y2765*
X1387*
X1691Y2787D02*
X1751D01*
X1791Y2828*
Y2890*
X1691Y2818D02*
X1526D01*
X1267Y3078*
Y3190*
X1691Y2850D02*
X1569D01*
X1367Y3053*
Y3190*
X1691Y2881D02*
X1613D01*
X1466Y3028*
Y3190*
X1704Y2103D02*
X1516D01*
X1429Y2190*
Y2308*
X1756Y2628D02*
Y2542D01*
X1716Y2503*
X1661*
X1756Y2978D02*
Y3038D01*
X1666Y3128*
Y3190*
X1766Y3333D02*
Y3190D01*
Y3423D02*
Y3540D01*
X1966Y3740*
X1788Y2978D02*
Y3081D01*
X1766Y3103*
Y3190*
X1819Y2628D02*
Y2555D01*
X1779Y2515*
Y2365*
X1819Y2628D02*
Y2680D01*
X1854Y2715*
X1851Y2628D02*
Y2556D01*
X1891Y2515*
X1851Y2978D02*
Y2893D01*
X1854Y2890*
Y2715D02*
Y2890D01*
X1882Y2628D02*
Y2687D01*
X1854Y2715*
X1914Y2628D02*
Y2537D01*
X1891Y2515*
X1945Y2628D02*
Y2511D01*
X1991Y2465*
X2041*
X2117Y2390*
X2254*
X2304Y2340*
X2317*
X1945Y2978D02*
Y3081D01*
X1979Y3115*
Y3183*
X1972Y3190*
X1945Y2978D02*
Y2881D01*
X1904Y2840*
Y2728*
X1914Y2718*
Y2628*
X2021Y1978D02*
X1829D01*
X1779Y2028*
X2022Y2078D02*
Y1979D01*
X2021Y1978*
X2041Y2724D02*
X1980D01*
X1962Y2705*
X2041Y2755D02*
X1976D01*
X1962Y2770*
X2041Y2787D02*
X2120D01*
X2167Y2740*
X2272*
X2041Y2818D02*
X2126D01*
X2154Y2790*
X2429*
X2467Y2753*
X2542*
X2592Y2803*
X2041Y2881D02*
X2138D01*
X2167Y2853*
X2041Y2913D02*
X2169D01*
X2167Y2915*
X2062Y3190D02*
X2129D01*
X2167Y3228*
Y3340*
X2154Y2240D02*
Y2308D01*
Y2598D02*
Y2665D01*
X2167Y2853D02*
X2179Y2840D01*
X2272*
X2167Y2915D02*
X2272D01*
X2167Y2953D02*
Y2915D01*
X2272D02*
Y2990D01*
Y3065D02*
X2267D01*
Y3340*
X2272Y3065D02*
X2179D01*
X2092Y2978*
X1977*
X2317Y2540D02*
X2279Y2503D01*
X2004*
X1977Y2530*
Y2628*
X2362Y2740D02*
X2417D01*
X2442Y2715*
X2567*
X2604Y2753*
X2679*
X2764Y2838*
Y2903*
X2492Y2803D02*
X2454Y2840D01*
X2362*
X2544Y2953D02*
X2442D01*
X2404Y2990*
X2362*
X2544Y2953D02*
Y2903D01*
Y3003D02*
X2454D01*
X2392Y3065*
X2362*
X2544Y3053D02*
Y3100D01*
X2542Y3103*
X2592Y2590D02*
X2697D01*
X2667Y3003D02*
X2764D01*
X2697Y2678D02*
Y2590D01*
X2764Y2953D02*
X2704D01*
X2617Y2865*
X2492*
X2442Y2915*
X2362*
X2917Y2600D02*
Y2590D01*
X2787*
X3017Y2600D02*
Y2809D01*
X3057Y2896D02*
Y2950D01*
X3042Y2965*
X2942*
X2904Y2928*
Y2865*
X2787Y2748*
Y2678*
X3167Y2533D02*
Y2378D01*
Y2720D02*
Y2623D01*
Y2810D02*
X3018D01*
X3017Y2809*
X3254Y2720D02*
X3167D01*
X3254Y2810D02*
X3167D01*
X3309Y3453D02*
Y3510D01*
X3304Y3515*
X3317Y2378D02*
Y2565D01*
X3267Y2615*
X3174*
X3167Y2623*
X3399Y3453D02*
X3417D01*
X3442Y3478*
X3477*
D02*
D15*
X766Y1940D03*
Y2040D03*
Y2140D03*
Y2240D03*
Y2340D03*
Y2440D03*
Y2640D03*
Y2740D03*
Y2840D03*
Y2940D03*
Y3040D03*
Y3140D03*
X1866Y3190D03*
X1966Y3340D03*
Y3440D03*
X2067Y3340D03*
Y3440D03*
X2167Y3340D03*
Y3440D03*
X2267Y3340D03*
Y3440D03*
X2367Y3340D03*
Y3440D03*
D02*
D16*
X967Y2390D03*
X1067Y3190D03*
X1167Y2390D03*
Y3190D03*
X1267D03*
X1367D03*
X1466D03*
X1566D03*
X1666D03*
X1704Y2103D03*
X1766Y3190D03*
X1779Y2028D03*
Y2178D03*
D02*
D19*
X1067Y2840D03*
X1167Y2515D03*
Y2640D03*
Y2840D03*
X1304Y2165D03*
X1466Y1978D03*
X1566D03*
X1779Y2465D03*
X1791Y2890D03*
X1854Y2715D03*
Y2890D03*
X1962Y2705D03*
Y2770D03*
X2154Y2240D03*
Y2665D03*
X2167Y2853D03*
Y2953D03*
Y3740D03*
X2267D03*
X2354Y1978D03*
X2442Y3153D03*
X2454Y1978D03*
X2479Y2615D03*
X2492Y2803D03*
X2542Y3103D03*
X2592Y2590D03*
Y2803D03*
X2617Y2503D03*
X2667Y2165D03*
Y2265D03*
X2692Y3528D03*
X2729Y2378D03*
X2804D03*
X2854Y2503D03*
X2892Y3240D03*
Y3440D03*
X2929Y2765D03*
Y3053D03*
X3167Y2128D03*
X3304Y3515D03*
X3342Y3665D03*
Y3740D03*
D02*
D70*
X766Y2440D02*
X829D01*
X867Y2403*
Y1928*
X941Y1853*
X967*
X766Y3140D02*
X916D01*
X1067Y2990*
Y2840*
X842Y3303D02*
X692D01*
X641Y3253*
Y2078*
X679Y2040*
X766*
X867Y640D02*
X766Y740D01*
Y1252*
X867Y1353*
Y1540*
X967Y1853D02*
X2167D01*
X1067Y1040D02*
Y1328D01*
X967Y1428*
Y1853*
X1167Y2640D02*
Y2515D01*
Y2840D02*
X1067D01*
X1304Y2165D02*
Y2308D01*
X1566Y1978D02*
X1466D01*
X1779Y2178D02*
Y2365D01*
X2167Y1853D02*
Y1878D01*
Y1978*
Y3603D02*
Y3440D01*
X2454Y1978D02*
X2579D01*
X2454D02*
X2354D01*
X2667Y2165D02*
Y2015D01*
X2629Y1978*
X2579*
X2667Y2265D02*
Y2165D01*
X2779Y1853D02*
X2167D01*
X2779Y1978D02*
Y1853D01*
X2892Y3240D02*
X3004D01*
X3054Y3190*
X3117*
X2999Y2165D02*
Y1960D01*
X2892Y1853*
X2779*
X3004Y218D02*
X3445D01*
X3667Y440*
X3004Y612D02*
X3276D01*
X3604Y940*
X3767*
X3867Y1040*
X3167Y2232D02*
X3070D01*
X3067Y2228*
X3217Y3190D02*
X3117D01*
X3317Y2178D02*
X3279D01*
X3229Y2128*
X3167*
X3342Y3665D02*
X3504D01*
X3567Y3728*
X3342Y3740D02*
X3479D01*
Y3728*
X3567*
X3367Y3090D02*
Y3165D01*
X3342Y3190*
X3217*
X3367Y3290D02*
X3117D01*
X3467Y1040D02*
X3317D01*
X3254Y1103*
Y1346*
X3004Y1596*
X3657Y3478D02*
Y3468D01*
X3479Y3290*
Y2853*
X3767Y2565*
Y2278*
X3704*
X3229*
X3183Y2232*
X3167*
D02*
D71*
X1297Y1978D02*
X1242D01*
X1204Y1940*
X1067*
X1566Y2308D02*
X1634D01*
X1679Y2353*
X1766*
X1779Y2365*
X1866Y3190D02*
Y3415D01*
X1891Y3440*
X1966*
X1891Y2515D02*
Y2390D01*
X1916Y2365*
X1979*
X1972Y3190D02*
X1866D01*
X1972Y3603D02*
X1966D01*
Y3440*
X2062Y3603D02*
X2167D01*
X2112Y2078D02*
Y2033D01*
X2167Y1978*
X2154Y2665D02*
X2429D01*
X2479Y2615*
Y2540*
X2517Y2503*
X2617*
X2544Y2953D02*
X2617D01*
X2667Y3003*
X2557Y2165D02*
X2417D01*
X2392Y2140*
X1891*
X1854Y2178*
X1779*
X2557Y2215D02*
X2842D01*
X2854Y2203*
Y2165*
X2829*
X2557Y2265D02*
Y2368D01*
X2534Y2390*
X2557Y2265D02*
X2442D01*
X2367Y2190*
X2054*
X1979Y2265*
Y2365*
X2567Y3303D02*
X2504D01*
X2467Y3340*
Y3565*
X2429Y3603*
X2367*
X2567Y3303D02*
Y3240D01*
X2672Y3135*
Y3140*
X2567Y3449D02*
Y3440D01*
X2679Y3328*
Y3303*
X2692*
X2667Y2265D02*
Y2340D01*
X2617Y2390*
Y2503*
X2672Y3140D02*
X2667D01*
Y3003*
X2692Y3449D02*
Y3528D01*
X2729Y2378D02*
X2804D01*
X2762Y3140D02*
X2897D01*
X2764Y3053D02*
X2767D01*
Y3128*
X2762Y3140*
X2777Y2265D02*
X2967D01*
X2804Y2378D02*
X2729D01*
Y2415*
X2754Y2440*
X2917*
X2804Y2378D02*
X2914D01*
X2917Y2380*
X2817Y3053D02*
X2929D01*
X2829Y2165D02*
X2557D01*
X2897Y3140D02*
X2892D01*
Y3240*
X2897Y3340D02*
X2892Y3345D01*
Y3440*
X2897Y3340D02*
X2892D01*
Y3240*
X2909Y2165D02*
X2829D01*
X2917Y2380D02*
Y2440D01*
X2942Y2465*
X2967*
Y2265D02*
X3017D01*
X2967Y2380D02*
Y2465D01*
X3017*
X3067Y2515*
Y2600*
X2967D02*
Y2553D01*
X2917Y2503*
X2854*
X2967Y2600D02*
Y2678D01*
Y2728*
X2929Y2765*
Y2815*
X2977Y2863*
Y2896*
X2999Y2165D02*
X3054D01*
X3067Y2178*
Y2228*
X2999Y2165D02*
X3004D01*
Y2265*
X2967*
X3017D02*
X3067D01*
X3017Y2380D02*
Y2265D01*
X3067Y2228D02*
Y2265D01*
Y2380D02*
Y2265D01*
X3117Y3090D02*
X3054D01*
X3004Y3140*
X2987*
X3117Y3290D02*
X3054D01*
X3004Y3340*
X2987*
X4003Y2069D02*
Y2216D01*
X3942Y2278*
X3704*
D02*
D20*
X743Y2340D02*
X716D01*
X743Y3140D02*
X716D01*
X766Y3164D02*
Y3191D01*
X791Y2340D02*
X818D01*
X791Y3140D02*
X818D01*
X813Y3453D02*
X786D01*
X842Y3424D02*
Y3397D01*
Y3482D02*
Y3509D01*
X871Y3453D02*
X898D01*
X1043Y3740D02*
X1016D01*
X1067Y3716D02*
Y3689D01*
Y3764D02*
Y3791D01*
X1283Y2308D02*
X1256D01*
X1304Y2284D02*
Y2257D01*
X1325Y2308D02*
X1353D01*
X1387Y1956D02*
Y1929D01*
Y1999D02*
Y2026D01*
X1411Y1978D02*
X1438D01*
X1545Y2308D02*
X1518D01*
X1566Y2284D02*
Y2257D01*
X1588Y2308D02*
X1615D01*
X1750Y2365D02*
X1723D01*
X1755Y2178D02*
X1728D01*
X1779Y2154D02*
Y2127D01*
Y2202D02*
Y2229D01*
Y2308D02*
Y2281D01*
Y2422D02*
Y2449D01*
X1803Y2178D02*
X1830D01*
X1808Y2365D02*
X1835D01*
X1819Y2594D02*
Y2567D01*
Y2662D02*
Y2688D01*
X1851Y2943D02*
Y2917D01*
Y3012D02*
Y3038D01*
X1882Y2662D02*
Y2688D01*
X2041Y3466D02*
X2015Y3491D01*
X2062Y3581D02*
Y3554D01*
Y3624D02*
Y3651D01*
X2092Y3466D02*
X2118Y3491D01*
X2133Y2308D02*
X2106D01*
X2133Y2598D02*
X2106D01*
X2141Y3466D02*
X2116Y3491D01*
X2154Y2284D02*
Y2257D01*
Y2622D02*
Y2649D01*
X2167Y3545D02*
Y3519D01*
Y3660D02*
Y3687D01*
X2176Y2308D02*
X2203D01*
X2176Y2598D02*
X2203D01*
X2192Y3466D02*
X2217Y3491D01*
X2196Y3603D02*
X2223D01*
X2241Y3466D02*
X2216Y3491D01*
X2292Y3466D02*
X2317Y3491D01*
X2367Y3464D02*
Y3491D01*
X2391Y3440D02*
X2418D01*
X2523Y2165D02*
X2496D01*
X2523Y2215D02*
X2496D01*
X2550Y1978D02*
X2523D01*
X2579Y1921D02*
Y1894D01*
Y2035D02*
Y2062D01*
X2591Y2165D02*
X2618D01*
X2591Y2215D02*
X2618D01*
X2608Y1978D02*
X2635D01*
X2624Y2369D02*
Y2342D01*
Y2412D02*
Y2438D01*
X2648Y2390D02*
X2675D01*
X2649Y2165D02*
X2622D01*
X2649Y2265D02*
X2622D01*
X2667Y2147D02*
Y2120D01*
Y2183D02*
Y2210D01*
Y2247D02*
Y2220D01*
Y2283D02*
Y2310D01*
X2685Y2165D02*
X2712D01*
X2685Y2265D02*
X2712D01*
X2730Y3053D02*
X2703D01*
X2743Y2165D02*
X2716D01*
X2743Y2215D02*
X2716D01*
X2762Y3119D02*
Y3092D01*
Y3162D02*
Y3188D01*
X2764Y3059D02*
Y3086D01*
X2785Y3140D02*
X2813D01*
X2811Y2165D02*
X2838D01*
X2811Y2215D02*
X2838D01*
X2813Y3690D02*
X2786D01*
X2817Y3059D02*
Y3086D01*
X2851Y3053D02*
X2878D01*
X2867Y3637D02*
Y3610D01*
Y3743D02*
Y3770D01*
X2873Y3140D02*
X2845D01*
X2873Y3340D02*
X2845D01*
X2885Y2165D02*
X2858D01*
X2897Y3119D02*
Y3092D01*
Y3162D02*
Y3188D01*
Y3318D02*
Y3292D01*
Y3362D02*
Y3388D01*
X2909Y2144D02*
Y2117D01*
Y2187D02*
Y2213D01*
X2920Y3690D02*
X2947D01*
X2963Y2896D02*
X2936D01*
X2967Y2566D02*
Y2539D01*
Y2634D02*
Y2661D01*
X3091Y3164D02*
X3072Y3145D01*
X3091Y3216D02*
X3072Y3235D01*
X3142Y3164D02*
X3161Y3145D01*
X3217Y3154D02*
Y3127D01*
X3253Y3190D02*
X3280D01*
X3310Y3090D02*
X3283D01*
D02*
D23*
X3528Y2551D03*
X3767Y1990D03*
X4005Y2550D03*
D02*
D24*
X4117Y3D02*
X567D01*
Y3940*
X4117*
Y3*
D02*
D26*
X623Y1890D02*
X849D01*
X839Y1900*
G75*
G02X828Y1928I28J28*
G01*
Y2386*
X816Y2398*
Y2391*
X718*
Y2489*
X816*
Y2479*
X829*
G75*
G02X857Y2468I0J-39*
G01*
X894Y2430*
G75*
G02X906Y2403I-28J-28*
G01*
Y1944*
X957Y1892*
G75*
G02X978Y1891I9J-40*
G01*
X1060*
G75*
G02X1018Y1940I6J49*
G01*
G75*
G02X1104Y1972I49*
G01*
X1191*
X1219Y2000*
G75*
G02X1242Y2009I22J-22*
G01*
X1248*
Y2024*
X1436*
Y1931*
X1248*
Y1939*
X1226Y1918*
G75*
G02X1204Y1909I-22J22*
G01*
X1104*
G75*
G02X1073Y1891I-37J32*
G01*
X2128*
Y1919*
X2120*
Y1979*
X2089Y2010*
G75*
G02X2080Y2031I22J22*
G01*
X2067*
Y1919*
X1974*
Y1951*
X1829*
G75*
G02X1810Y1959I0J27*
G01*
X1789Y1980*
G75*
G02X1779Y1979I-10J48*
G01*
G75*
G02Y2077J49*
G01*
G75*
G02X1827Y2017J-49*
G01*
X1840Y2004*
X1974*
Y2031*
X1972*
Y2124*
X2160*
Y2037*
X2213*
Y1919*
X2206*
Y1891*
X2740*
Y1895*
X2725*
Y2060*
X2833*
Y1895*
X2818*
Y1891*
X2875*
X2960Y1976*
Y2119*
X2860*
Y2212*
X2973*
Y2232*
G75*
G02X2956Y2233I-6J33*
G01*
X2836*
Y2084*
X2718*
Y2297*
X2956*
G75*
G02X2977I10J-31*
G01*
X2985*
Y2321*
X2885*
Y2346*
X2833*
G75*
G02X2777Y2344I-29J32*
G01*
X2756*
G75*
G02X2698Y2407I-27J33*
G01*
Y2415*
G75*
G02X2707Y2437I32J0*
G01*
X2732Y2462*
G75*
G02X2754Y2472I22J-22*
G01*
X2903*
X2919Y2487*
G75*
G02X2942Y2497I22J-22*
G01*
X2956*
G75*
G02X2977I10J-31*
G01*
X3003*
X3035Y2528*
Y2541*
X2885*
Y2563*
X2836*
Y2544*
X2648*
Y2563*
X2625*
G75*
G02X2549Y2590I-34J27*
G01*
G75*
G02X2625Y2617I43*
G01*
X2648*
Y2724*
X2760*
Y2748*
G75*
G02X2768Y2766I27J0*
G01*
X2873Y2871*
X2791*
Y2838*
G75*
G02X2783Y2819I-27J0*
G01*
X2698Y2734*
G75*
G02X2679Y2726I-19J19*
G01*
X2615*
X2585Y2696*
G75*
G02X2567Y2688I-19J19*
G01*
X2442*
G75*
G02X2423Y2696I0J27*
G01*
X2410Y2709*
Y2693*
X2223*
Y2713*
X2167*
G75*
G02X2148Y2721I0J27*
G01*
X2109Y2760*
X2101*
Y2665*
X2004*
Y2568*
X2003*
Y2541*
X2015Y2529*
X2108*
Y2647*
X2201*
Y2529*
X2268*
X2269Y2530*
G75*
G02X2268Y2540I48J10*
G01*
G75*
G02X2365I49*
G01*
G75*
G02X2306Y2492I-49*
G01*
X2298Y2484*
G75*
G02X2279Y2476I-19J19*
G01*
X2201*
Y2459*
X2108*
Y2476*
X2068*
X2108Y2436*
Y2447*
X2201*
Y2417*
X2254*
G75*
G02X2273Y2409I0J-27*
G01*
X2297Y2385*
G75*
G02X2365Y2340I20J-45*
G01*
G75*
G02X2268Y2339I-49*
G01*
X2243Y2364*
X2201*
Y2259*
X2108*
Y2365*
G75*
G02X2098Y2371I9J25*
G01*
X2033Y2436*
Y2283*
X2011*
Y2278*
X2067Y2222*
X2353*
X2419Y2287*
G75*
G02X2442Y2297I22J-22*
G01*
X2525*
Y2344*
X2485*
Y2437*
X2673*
Y2344*
X2588*
Y2297*
X2616*
Y2084*
X2498*
Y2233*
X2455*
X2389Y2168*
G75*
G02X2367Y2159I-22J22*
G01*
X2054*
G75*
G02X2032Y2168I0J32*
G01*
X1957Y2243*
G75*
G02X1948Y2265I22J22*
G01*
Y2283*
X1925*
Y2334*
X1916*
G75*
G02X1894Y2343I0J32*
G01*
X1869Y2368*
G75*
G02X1860Y2390I22J22*
G01*
Y2505*
G75*
G02X1859Y2510I32J10*
G01*
X1832Y2537*
G75*
G02X1824Y2556I19J19*
G01*
Y2568*
X1783*
Y2542*
G75*
G02X1775Y2524I-27J0*
G01*
X1735Y2484*
G75*
G02X1716Y2476I-19J19*
G01*
X1711*
Y2456*
X1593*
Y2447*
X1613*
Y2259*
X1520*
Y2447*
X1540*
Y2456*
X1523*
Y2534*
X1473Y2484*
G75*
G02X1454Y2476I-19J19*
G01*
X1436*
Y2456*
X1413*
Y2451*
X1417Y2447*
X1476*
Y2259*
X1456*
Y2201*
X1527Y2129*
X1663*
G75*
G02X1704Y2152I41J-27*
G01*
G75*
G02Y2054J-49*
G01*
G75*
G02X1663Y2076J49*
G01*
X1516*
G75*
G02X1498Y2084I0J27*
G01*
X1410Y2171*
G75*
G02X1403Y2190I19J19*
G01*
Y2259*
X1383*
Y2407*
X1368Y2421*
G75*
G02X1360Y2440I19J19*
G01*
Y2456*
X1331*
Y2447*
X1351*
Y2259*
X1258*
Y2447*
X1278*
Y2456*
X1248*
Y2549*
X1436*
Y2529*
X1443*
X1578Y2663*
X1436*
Y2643*
X1248*
Y2663*
X941*
G75*
G02X923Y2671I0J27*
G01*
X881Y2713*
X816*
Y2691*
X718*
Y2789*
X816*
Y2767*
X891*
G75*
G02X910Y2759I0J-27*
G01*
X952Y2717*
X1248*
Y2739*
X967*
G75*
G02X948Y2746I0J27*
G01*
X881Y2813*
X816*
Y2791*
X718*
Y2889*
X816*
Y2867*
X891*
G75*
G02X910Y2859I0J-27*
G01*
X977Y2792*
X1248*
Y2812*
X1436*
Y2792*
X1616*
G75*
G02X1633Y2786I0J-27*
G01*
Y2792*
X1526*
G75*
G02X1507Y2800I0J27*
G01*
X1248Y3059*
G75*
G02X1240Y3078I19J19*
G01*
Y3149*
G75*
G02Y3231I27J41*
G01*
Y3284*
X1220*
Y3472*
X1240*
Y3540*
G75*
G02X1248Y3559I27J0*
G01*
X1380Y3691*
X1318*
Y3752*
X1315Y3754*
Y3691*
X1255*
X1193Y3629*
Y3472*
X1213*
Y3284*
X1193*
Y3231*
G75*
G02X1216Y3190I-27J-41*
G01*
G75*
G02X1117I-49*
G01*
G75*
G02X1140Y3231I49*
G01*
Y3284*
X1120*
Y3472*
X1140*
Y3590*
G75*
G02X1135Y3584I-24J12*
G01*
X1093Y3542*
Y3472*
X1113*
Y3284*
X1093*
Y3231*
G75*
G02X1116Y3190I-27J-41*
G01*
G75*
G02X1018I-49*
G01*
G75*
G02X1040Y3231I49*
G01*
Y3284*
X1020*
Y3472*
X1040*
Y3553*
G75*
G02X1048Y3571I27J0*
G01*
X1090Y3613*
Y3691*
X1018*
Y3789*
X1090*
Y3790*
G75*
G02X1098Y3809I27J0*
G01*
X1123Y3834*
G75*
G02X1142Y3842I19J-19*
G01*
X1292*
G75*
G02X1310Y3834I0J-27*
G01*
X1355Y3789*
X1415*
Y3726*
X1418Y3728*
Y3789*
X1516*
Y3726*
X1518Y3728*
Y3789*
X1616*
Y3726*
X1618Y3728*
Y3789*
X1716*
Y3726*
X1718Y3728*
Y3789*
X1815*
Y3714*
X1817Y3716*
Y3789*
X1916*
Y3726*
X1918Y3728*
Y3789*
X2015*
Y3691*
X1955*
X1793Y3529*
Y3472*
X1813*
Y3284*
X1793*
Y3231*
G75*
G02Y3149I-27J-41*
G01*
Y3113*
X1806Y3100*
G75*
G02X1814Y3081I-19J-19*
G01*
Y3037*
X1919*
Y3081*
G75*
G02X1927Y3100I27J0*
G01*
X1953Y3126*
Y3143*
X1923*
Y3159*
X1916*
Y3141*
X1817*
Y3239*
X1835*
Y3415*
G75*
G02X1844Y3437I32J0*
G01*
X1869Y3462*
G75*
G02X1891Y3472I22J-22*
G01*
X1918*
Y3489*
X1935*
Y3556*
X1923*
Y3649*
X2111*
Y3556*
X1998*
Y3489*
X2015*
Y3391*
X1918*
Y3409*
X1905*
X1898Y3402*
Y3239*
X1916*
Y3222*
X1923*
Y3237*
X2111*
Y3217*
X2118*
X2140Y3238*
Y3291*
X2118*
Y3389*
X2216*
Y3291*
X2193*
Y3228*
G75*
G02X2185Y3209I-27J0*
G01*
X2148Y3171*
G75*
G02X2129Y3163I-19J19*
G01*
X2111*
Y3143*
X2006*
Y3115*
G75*
G02X1998Y3096I-27J0*
G01*
X1972Y3070*
Y3037*
X2004*
Y3004*
X2081*
X2160Y3084*
G75*
G02X2179Y3092I19J-19*
G01*
X2223*
Y3112*
X2240*
Y3291*
X2217*
Y3389*
X2316*
Y3291*
X2293*
Y3112*
X2410*
Y3083*
X2465Y3029*
X2485*
Y3084*
X2501*
G75*
G02X2497Y3103I41J19*
G01*
G75*
G02X2586I45*
G01*
G75*
G02X2582Y3084I-45*
G01*
X2603*
Y2984*
X2603*
X2635Y3016*
Y3094*
X2623*
Y3139*
X2544Y3218*
G75*
G02X2535Y3240I22J22*
G01*
Y3256*
X2508*
Y3271*
X2504*
G75*
G02X2482Y3280I0J32*
G01*
X2444Y3318*
G75*
G02X2435Y3340I22J22*
G01*
Y3552*
X2421Y3566*
Y3520*
X2313*
Y3685*
X2421*
Y3634*
X2429*
G75*
G02X2451Y3625I0J-32*
G01*
X2489Y3587*
G75*
G02X2498Y3565I-22J-22*
G01*
Y3353*
X2508Y3344*
Y3349*
X2613*
X2560Y3402*
X2508*
Y3495*
X2626*
Y3426*
X2633Y3419*
Y3495*
X2660*
Y3498*
G75*
G02X2692Y3570I32J29*
G01*
G75*
G02X2723Y3498J-43*
G01*
Y3495*
X2751*
Y3402*
X2649*
X2701Y3350*
G75*
G02X2702Y3349I-22J-22*
G01*
X2751*
Y3256*
X2633*
Y3329*
X2626Y3336*
Y3256*
X2598*
Y3253*
X2665Y3187*
X2811*
Y3094*
X2698*
Y3029*
X2705*
Y3084*
X2876*
Y2874*
X2878Y2876*
Y2928*
G75*
G02X2885Y2946I27J0*
G01*
X2923Y2984*
G75*
G02X2942Y2992I19J-19*
G01*
X3042*
G75*
G02X3060Y2984I0J-27*
G01*
X3075Y2969*
G75*
G02X3083Y2950I-19J-19*
G01*
Y2938*
X3095*
Y2853*
X3018*
Y2938*
X3015*
Y2853*
X2938*
Y2924*
X2931Y2917*
Y2865*
G75*
G02X2923Y2846I-27J0*
G01*
X2813Y2737*
Y2724*
X2836*
Y2617*
X2885*
Y2659*
X2990*
Y2765*
X2978*
Y2852*
X3056*
Y2838*
X3120*
Y2859*
X3301*
Y2671*
X3213*
Y2642*
X3267*
G75*
G02X3285Y2634I0J-27*
G01*
X3304Y2615*
Y3036*
X3285*
Y3144*
X3345*
X3438Y3236*
X3285*
Y3251*
X3224*
G75*
G02X3278Y3190I-8J-61*
G01*
G75*
G02X3167Y3154I-62*
G01*
G75*
G02X3152Y3140I-50J36*
G01*
G75*
G02X3178Y3090I-36J-50*
G01*
G75*
G02X3064Y3059I-62*
G01*
X3054*
G75*
G02X3032Y3068I0J32*
G01*
X3006Y3094*
X2848*
Y3187*
X3035*
Y3153*
X3065Y3124*
G75*
G02X3081Y3140I52J-34*
G01*
G75*
G02Y3240I36J50*
G01*
G75*
G02X3064Y3259I36J50*
G01*
X3054*
G75*
G02X3032Y3268I0J32*
G01*
X3006Y3294*
X2848*
Y3387*
X3035*
Y3353*
X3065Y3324*
G75*
G02X3164Y3329I52J-34*
G01*
X3285*
Y3344*
X3449*
Y3314*
G75*
G02X3451Y3318I31J-24*
G01*
X3608Y3474*
Y3556*
X3654*
Y3581*
X3429*
Y3626*
X3360*
G75*
G02X3320Y3703I-18J39*
G01*
G75*
G02X3360Y3779I21J38*
G01*
X3429*
Y3874*
X3654*
Y3884*
X623*
Y3289*
X664Y3330*
G75*
G02X692Y3342I28J-28*
G01*
X790*
Y3354*
X893*
Y3251*
X790*
Y3263*
X708*
X681Y3236*
Y2094*
X695Y2079*
X718*
Y2089*
X816*
Y1991*
X718*
Y2001*
X679*
G75*
G02X651Y2012I0J39*
G01*
X623Y2041*
Y1890*
X660Y3753D02*
G75*
G02X848I94D01*
G01*
G75*
G02X660I-94*
G01*
X718Y1989D02*
X816D01*
Y1891*
X718*
Y1989*
Y2189D02*
X816D01*
Y2091*
X718*
Y2189*
Y2289D02*
X816D01*
Y2191*
X718*
Y2289*
Y2389D02*
X816D01*
Y2291*
X718*
Y2389*
Y2689D02*
X816D01*
Y2591*
X718*
Y2689*
Y2989D02*
X816D01*
Y2891*
X718*
Y2989*
Y3089D02*
X816D01*
Y2991*
X718*
Y3089*
Y3189D02*
X816D01*
Y3091*
X718*
Y3189*
X788Y3453D02*
G75*
G02X896I54D01*
G01*
G75*
G02X788I-54*
G01*
X967Y2341D02*
G75*
G02Y2439J49D01*
G01*
G75*
G02Y2341J-49*
G01*
X1018Y2140D02*
G75*
G02X1115I49D01*
G01*
G75*
G02X1018I-49*
G01*
X1167Y2341D02*
G75*
G02Y2439J49D01*
G01*
G75*
G02Y2341J-49*
G01*
X1779Y2128D02*
G75*
G02Y2227J49D01*
G01*
G75*
G02Y2128J-49*
G01*
X1833Y2447D02*
Y2283D01*
X1725*
Y2447*
X1833*
X1918Y3291D02*
Y3389D01*
X2015*
Y3291*
X1918*
X2018D02*
Y3389D01*
X2116*
Y3291*
X2018*
Y3391D02*
Y3489D01*
X2116*
Y3391*
X2018*
X2118D02*
Y3489D01*
X2216*
Y3391*
X2118*
X2217D02*
Y3489D01*
X2316*
Y3391*
X2217*
X2221Y3685D02*
Y3520D01*
X2113*
Y3685*
X2221*
X2317Y3291D02*
Y3389D01*
X2416*
Y3291*
X2317*
Y3391D02*
Y3489D01*
X2416*
Y3391*
X2317*
X2624Y2165D02*
G75*
G02X2710I43D01*
G01*
G75*
G02X2624I-43*
G01*
Y2265D02*
G75*
G02X2710I43D01*
G01*
G75*
G02X2624I-43*
G01*
X2633Y2060D02*
Y1895D01*
X2525*
Y2060*
X2633*
X2945Y3690D02*
G75*
G02X2788I-78D01*
G01*
G75*
G02X2945I78*
G01*
X3145D02*
G75*
G02X2988I-78D01*
G01*
G75*
G02X3145I78*
G01*
X3262Y3499D02*
G75*
G02X3259Y3515I42J16D01*
G01*
G75*
G02X3349I45*
G01*
G75*
G02X3346Y3499I-45J0*
G01*
X3350*
X3358*
X3426*
G75*
G02X3428Y3500I15J-22*
G01*
Y3556*
X3525*
Y3399*
X3428*
Y3406*
X3358*
X3350*
X3260*
Y3499*
X3262*
X623Y3753D02*
G36*
Y3453D01*
X788*
G75*
G02X896I54*
G01*
X1020*
Y3472*
X1040*
Y3553*
G75*
G02X1048Y3571I27J0*
G01*
X1090Y3613*
Y3691*
X1018*
Y3753*
X848*
G75*
G02X660I-94*
G01*
X623*
G37*
X660D02*
G36*
G75*
G02X848I94D01*
G01*
X1018*
Y3789*
X1090*
Y3790*
G75*
G02X1098Y3809I27J0*
G01*
X1123Y3834*
G75*
G02X1142Y3842I19J-19*
G01*
X1292*
G75*
G02X1310Y3834I0J-27*
G01*
X1355Y3789*
X1415*
Y3726*
X1418Y3728*
Y3789*
X1516*
Y3726*
X1518Y3728*
Y3789*
X1616*
Y3726*
X1618Y3728*
Y3789*
X1716*
Y3726*
X1718Y3728*
Y3789*
X1815*
Y3714*
X1817Y3716*
Y3789*
X1916*
Y3726*
X1918Y3728*
Y3789*
X2015*
Y3753*
X2820*
G75*
G02X2913I47J-63*
G01*
X3020*
G75*
G02X3113I47J-63*
G01*
X3300*
G75*
G02X3360Y3779I41J-13*
G01*
X3429*
Y3874*
X3654*
Y3884*
X623*
Y3753*
X660*
G37*
X2015D02*
G36*
Y3691D01*
X1955*
X1793Y3529*
Y3472*
X1813*
Y3284*
X1793*
Y3231*
G75*
G02Y3149I-27J-41*
G01*
Y3113*
X1806Y3100*
G75*
G02X1814Y3081I-19J-19*
G01*
Y3037*
X1919*
Y3081*
G75*
G02X1927Y3100I27J0*
G01*
X1953Y3126*
Y3143*
X1923*
Y3159*
X1916*
Y3141*
X1817*
Y3239*
X1835*
Y3415*
G75*
G02X1844Y3437I32J0*
G01*
X1869Y3462*
G75*
G02X1891Y3472I22J-22*
G01*
X1918*
Y3489*
X1935*
Y3556*
X1923*
Y3649*
X2111*
Y3603*
X2113*
Y3685*
X2221*
Y3603*
X2313*
Y3685*
X2421*
Y3634*
X2429*
G75*
G02X2451Y3625I0J-32*
G01*
X2489Y3587*
G75*
G02X2498Y3565I-22J-22*
G01*
Y3353*
X2508Y3344*
Y3349*
X2613*
X2560Y3402*
X2508*
Y3495*
X2626*
Y3426*
X2633Y3419*
Y3495*
X2660*
Y3498*
G75*
G02X2692Y3570I32J29*
G01*
G75*
G02X2723Y3498J-43*
G01*
Y3495*
X2751*
Y3453*
X3260*
Y3499*
X3262*
G75*
G02X3259Y3515I42J16*
G01*
G75*
G02X3349I45*
G01*
G75*
G02X3346Y3499I-45J0*
G01*
X3426*
G75*
G02X3428Y3500I15J-22*
G01*
Y3556*
X3525*
Y3453*
X3586*
X3608Y3474*
Y3556*
X3654*
Y3581*
X3429*
Y3626*
X3360*
G75*
G02X3320Y3703I-18J39*
G01*
G75*
G02X3300Y3753I21J38*
G01*
X3113*
G75*
G02X3145Y3690I-47J-63*
G01*
G75*
G02X2988I-78*
G01*
G75*
G02X3020Y3753I78*
G01*
X2913*
G75*
G02X2945Y3690I-47J-63*
G01*
G75*
G02X2788I-78*
G01*
G75*
G02X2820Y3753I78*
G01*
X2015*
G37*
X623Y1940D02*
G36*
Y1890D01*
X849*
X839Y1900*
G75*
G02X828Y1928I28J28*
G01*
Y1940*
X816*
Y1891*
X718*
Y1940*
X623*
G37*
X718D02*
G36*
Y1989D01*
X816*
Y1940*
X828*
Y2140*
X816*
Y2091*
X718*
Y2140*
X681*
Y2094*
X695Y2079*
X718*
Y2089*
X816*
Y1991*
X718*
Y2001*
X679*
G75*
G02X651Y2012I0J39*
G01*
X623Y2041*
Y1940*
X718*
G37*
X2213D02*
G36*
Y1919D01*
X2206*
Y1891*
X2740*
Y1895*
X2725*
Y1940*
X2633*
Y1895*
X2525*
Y1940*
X2213*
G37*
X2525D02*
G36*
Y2060D01*
X2633*
Y1940*
X2725*
Y2060*
X2833*
Y1895*
X2818*
Y1891*
X2875*
X2960Y1976*
Y2119*
X2860*
Y2212*
X2973*
Y2232*
G75*
G02X2956Y2233I-6J33*
G01*
X2836*
Y2084*
X2718*
Y2140*
X2701*
G75*
G02X2632I-35J25*
G01*
X2616*
Y2084*
X2498*
Y2140*
X1811*
G75*
G02X1779Y2128I-32J38*
G01*
G75*
G02X1747Y2140J49*
G01*
X1736*
G75*
G02X1704Y2054I-32J-38*
G01*
G75*
G02X1663Y2076J49*
G01*
X1516*
G75*
G02X1498Y2084I0J27*
G01*
X1442Y2140*
X1115*
G75*
G02X1018I-49*
G01*
X906*
Y1944*
X957Y1892*
G75*
G02X978Y1891I9J-40*
G01*
X1060*
G75*
G02X1018Y1940I6J49*
G01*
G75*
G02X1104Y1972I49*
G01*
X1191*
X1219Y2000*
G75*
G02X1242Y2009I22J-22*
G01*
X1248*
Y2024*
X1436*
Y1931*
X1248*
Y1939*
X1226Y1918*
G75*
G02X1204Y1909I-22J22*
G01*
X1104*
G75*
G02X1073Y1891I-37J32*
G01*
X2128*
Y1919*
X2120*
Y1979*
X2089Y2010*
G75*
G02X2080Y2031I22J22*
G01*
X2067*
Y1919*
X1974*
Y1951*
X1829*
G75*
G02X1810Y1959I0J27*
G01*
X1789Y1980*
G75*
G02X1779Y1979I-10J48*
G01*
G75*
G02Y2077J49*
G01*
G75*
G02X1827Y2017J-49*
G01*
X1840Y2004*
X1974*
Y2031*
X1972*
Y2124*
X2160*
Y2037*
X2213*
Y1940*
X2525*
G37*
X718Y2140D02*
G36*
Y2189D01*
X816*
Y2140*
X828*
Y2240*
X816*
Y2191*
X718*
Y2240*
X681*
Y2140*
X718*
G37*
X1018D02*
G36*
G75*
G02X1115I49D01*
G01*
X1442*
X1410Y2171*
G75*
G02X1403Y2190I19J19*
G01*
Y2259*
X1383*
Y2407*
X1368Y2421*
G75*
G02X1360Y2440I19J19*
G01*
Y2456*
X1331*
Y2447*
X1351*
Y2259*
X1258*
Y2390*
X1216*
G75*
G02X1167Y2341I-49*
G01*
G75*
G02X1117Y2390J49*
G01*
X1016*
G75*
G02X967Y2341I-49*
G01*
G75*
G02X918Y2390J49*
G01*
X906*
Y2140*
X1018*
G37*
X1747D02*
G36*
G75*
G02X1779Y2227I32J38D01*
G01*
G75*
G02X1811Y2140J-49*
G01*
X2498*
Y2233*
X2455*
X2389Y2168*
G75*
G02X2367Y2159I-22J22*
G01*
X2054*
G75*
G02X2032Y2168I0J32*
G01*
X1957Y2243*
G75*
G02X1948Y2265I22J22*
G01*
Y2283*
X1925*
Y2334*
X1916*
G75*
G02X1897Y2340I0J32*
G01*
X1833*
Y2283*
X1725*
Y2340*
X1613*
Y2259*
X1520*
Y2447*
X1540*
Y2456*
X1523*
Y2534*
X1473Y2484*
G75*
G02X1454Y2476I-19J19*
G01*
X1436*
Y2456*
X1413*
Y2451*
X1417Y2447*
X1476*
Y2259*
X1456*
Y2201*
X1527Y2129*
X1663*
G75*
G02X1704Y2152I41J-27*
G01*
G75*
G02X1736Y2140J-49*
G01*
X1747*
G37*
X2632D02*
G36*
G75*
G02X2624Y2165I35J25D01*
G01*
G75*
G02X2710I43*
G01*
G75*
G02X2701Y2140I-43J0*
G01*
X2718*
Y2240*
X2701*
G75*
G02X2632I-35J25*
G01*
X2616*
Y2140*
X2632*
G37*
X718Y2240D02*
G36*
Y2289D01*
X816*
Y2240*
X828*
Y2340*
X816*
Y2291*
X718*
Y2340*
X681*
Y2240*
X718*
G37*
X2632D02*
G36*
G75*
G02X2624Y2265I35J25D01*
G01*
G75*
G02X2710I43*
G01*
G75*
G02X2701Y2240I-43J0*
G01*
X2718*
Y2297*
X2956*
G75*
G02X2977I10J-31*
G01*
X2985*
Y2321*
X2885*
Y2346*
X2833*
G75*
G02X2777Y2344I-29J32*
G01*
X2756*
G75*
G02X2698Y2407I-27J33*
G01*
Y2415*
G75*
G02X2707Y2437I32J0*
G01*
X2732Y2462*
G75*
G02X2754Y2472I22J-22*
G01*
X2903*
X2919Y2487*
G75*
G02X2942Y2497I22J-22*
G01*
X2956*
G75*
G02X2977I10J-31*
G01*
X3003*
X3035Y2528*
Y2541*
X2885*
Y2563*
X2836*
Y2544*
X2648*
Y2563*
X2625*
G75*
G02X2549Y2590I-34J27*
G01*
G75*
G02X2625Y2617I43*
G01*
X2648*
Y2724*
X2760*
Y2748*
G75*
G02X2768Y2766I27J0*
G01*
X2873Y2871*
X2791*
Y2838*
G75*
G02X2783Y2819I-27J0*
G01*
X2698Y2734*
G75*
G02X2679Y2726I-19J19*
G01*
X2615*
X2585Y2696*
G75*
G02X2567Y2688I-19J19*
G01*
X2442*
G75*
G02X2423Y2696I0J27*
G01*
X2410Y2709*
Y2693*
X2223*
Y2713*
X2167*
G75*
G02X2148Y2721I0J27*
G01*
X2109Y2760*
X2101*
Y2665*
X2004*
Y2568*
X2003*
Y2541*
X2015Y2529*
X2108*
Y2647*
X2201*
Y2529*
X2268*
X2269Y2530*
G75*
G02X2268Y2540I48J10*
G01*
G75*
G02X2365I49*
G01*
G75*
G02X2306Y2492I-49*
G01*
X2298Y2484*
G75*
G02X2279Y2476I-19J19*
G01*
X2201*
Y2459*
X2108*
Y2476*
X2068*
X2108Y2436*
Y2447*
X2201*
Y2417*
X2254*
G75*
G02X2273Y2409I0J-27*
G01*
X2297Y2385*
G75*
G02X2365Y2340I20J-45*
G01*
G75*
G02X2268Y2339I-49*
G01*
X2243Y2364*
X2201*
Y2259*
X2108*
Y2365*
G75*
G02X2098Y2371I9J25*
G01*
X2033Y2436*
Y2283*
X2011*
Y2278*
X2067Y2222*
X2353*
X2419Y2287*
G75*
G02X2442Y2297I22J-22*
G01*
X2525*
Y2344*
X2485*
Y2437*
X2673*
Y2344*
X2588*
Y2297*
X2616*
Y2240*
X2632*
G37*
X718Y2340D02*
G36*
Y2389D01*
X816*
Y2340*
X828*
Y2386*
X816Y2398*
Y2391*
X718*
Y2489*
X816*
Y2479*
X829*
G75*
G02X857Y2468I0J-39*
G01*
X894Y2430*
G75*
G02X906Y2403I-28J-28*
G01*
Y2390*
X918*
G75*
G02X967Y2439I49*
G01*
G75*
G02X1016Y2390J-49*
G01*
X1117*
G75*
G02X1167Y2439I49*
G01*
G75*
G02X1216Y2390J-49*
G01*
X1258*
Y2447*
X1278*
Y2456*
X1248*
Y2549*
X1436*
Y2529*
X1443*
X1554Y2640*
X816*
Y2591*
X718*
Y2640*
X681*
Y2340*
X718*
G37*
X1725D02*
G36*
Y2390D01*
X1613*
Y2340*
X1725*
G37*
X1897D02*
G36*
G75*
G02X1894Y2343I19J25D01*
G01*
X1869Y2368*
G75*
G02X1860Y2390I22J22*
G01*
X1833*
Y2340*
X1897*
G37*
X718Y2640D02*
G36*
Y2689D01*
X816*
Y2640*
X1554*
X1578Y2663*
X1436*
Y2643*
X1248*
Y2663*
X941*
G75*
G02X923Y2671I0J27*
G01*
X881Y2713*
X816*
Y2691*
X718*
Y2789*
X816*
Y2767*
X891*
G75*
G02X910Y2759I0J-27*
G01*
X952Y2717*
X1248*
Y2739*
X967*
G75*
G02X948Y2746I0J27*
G01*
X881Y2813*
X816*
Y2791*
X718*
Y2889*
X816*
Y2867*
X891*
G75*
G02X910Y2859I0J-27*
G01*
X977Y2792*
X1248*
Y2812*
X1436*
Y2792*
X1616*
G75*
G02X1633Y2786I0J-27*
G01*
Y2792*
X1526*
G75*
G02X1507Y2800I0J27*
G01*
X1367Y2940*
X816*
Y2891*
X718*
Y2940*
X681*
Y2640*
X718*
G37*
Y2940D02*
G36*
Y2989D01*
X816*
Y2940*
X1367*
X1267Y3040*
X816*
Y2991*
X718*
Y3040*
X681*
Y2940*
X718*
G37*
Y3040D02*
G36*
Y3089D01*
X816*
Y3040*
X1267*
X1248Y3059*
G75*
G02X1240Y3078I19J19*
G01*
Y3140*
X816*
Y3091*
X718*
Y3140*
X681*
Y3040*
X718*
G37*
Y3140D02*
G36*
Y3189D01*
X816*
Y3140*
X1240*
Y3149*
G75*
G02Y3231I27J41*
G01*
Y3284*
X1220*
Y3472*
X1240*
Y3540*
G75*
G02X1248Y3559I27J0*
G01*
X1380Y3691*
X1318*
Y3752*
X1315Y3754*
Y3691*
X1255*
X1193Y3629*
Y3472*
X1213*
Y3284*
X1193*
Y3231*
G75*
G02X1216Y3190I-27J-41*
G01*
G75*
G02X1117I-49*
G01*
G75*
G02X1140Y3231I49*
G01*
Y3284*
X1120*
Y3472*
X1140*
Y3590*
G75*
G02X1135Y3584I-24J12*
G01*
X1093Y3542*
Y3472*
X1113*
Y3284*
X1093*
Y3231*
G75*
G02X1116Y3190I-27J-41*
G01*
G75*
G02X1018I-49*
G01*
G75*
G02X1040Y3231I49*
G01*
Y3284*
X1020*
Y3453*
X896*
G75*
G02X788I-54*
G01*
X623*
Y3289*
X664Y3330*
G75*
G02X692Y3342I28J-28*
G01*
X790*
Y3354*
X893*
Y3251*
X790*
Y3263*
X708*
X681Y3236*
Y3140*
X718*
G37*
X2015Y3453D02*
G36*
Y3391D01*
X1918*
Y3409*
X1905*
X1898Y3402*
Y3340*
X1918*
Y3389*
X2015*
Y3340*
X2018*
Y3389*
X2116*
Y3340*
X2118*
Y3389*
X2216*
Y3291*
X2193*
Y3228*
G75*
G02X2185Y3209I-27J0*
G01*
X2148Y3171*
G75*
G02X2129Y3163I-19J19*
G01*
X2111*
Y3143*
X2006*
Y3115*
G75*
G02X1998Y3096I-27J0*
G01*
X1972Y3070*
Y3037*
X2004*
Y3004*
X2081*
X2160Y3084*
G75*
G02X2179Y3092I19J-19*
G01*
X2223*
Y3112*
X2240*
Y3291*
X2217*
Y3389*
X2316*
Y3340*
X2317*
Y3389*
X2416*
Y3340*
X2435*
Y3453*
X2416*
Y3391*
X2317*
Y3453*
X2316*
Y3391*
X2217*
Y3453*
X2216*
Y3391*
X2118*
Y3453*
X2116*
Y3391*
X2018*
Y3453*
X2015*
G37*
X2018D02*
G36*
Y3489D01*
X2116*
Y3453*
X2118*
Y3489*
X2216*
Y3453*
X2217*
Y3489*
X2316*
Y3453*
X2317*
Y3489*
X2416*
Y3453*
X2435*
Y3552*
X2421Y3566*
Y3520*
X2313*
Y3603*
X2221*
Y3520*
X2113*
Y3603*
X2111*
Y3556*
X1998*
Y3489*
X2015*
Y3453*
X2018*
G37*
X2751D02*
G36*
Y3402D01*
X2649*
X2701Y3350*
G75*
G02X2702Y3349I-22J-22*
G01*
X2751*
Y3256*
X2633*
Y3329*
X2626Y3336*
Y3256*
X2598*
Y3253*
X2665Y3187*
X2811*
Y3094*
X2698*
Y3029*
X2705*
Y3084*
X2876*
Y2874*
X2878Y2876*
Y2928*
G75*
G02X2885Y2946I27J0*
G01*
X2923Y2984*
G75*
G02X2942Y2992I19J-19*
G01*
X3042*
G75*
G02X3060Y2984I0J-27*
G01*
X3075Y2969*
G75*
G02X3083Y2950I-19J-19*
G01*
Y2938*
X3095*
Y2853*
X3018*
Y2938*
X3015*
Y2853*
X2938*
Y2924*
X2931Y2917*
Y2865*
G75*
G02X2923Y2846I-27J0*
G01*
X2813Y2737*
Y2724*
X2836*
Y2617*
X2885*
Y2659*
X2990*
Y2765*
X2978*
Y2852*
X3056*
Y2838*
X3120*
Y2859*
X3301*
Y2671*
X3213*
Y2642*
X3267*
G75*
G02X3285Y2634I0J-27*
G01*
X3304Y2615*
Y3036*
X3285*
Y3144*
X3345*
X3438Y3236*
X3285*
Y3251*
X3224*
G75*
G02X3278Y3190I-8J-61*
G01*
G75*
G02X3167Y3154I-62*
G01*
G75*
G02X3152Y3140I-50J36*
G01*
G75*
G02X3178Y3090I-36J-50*
G01*
G75*
G02X3064Y3059I-62*
G01*
X3054*
G75*
G02X3032Y3068I0J32*
G01*
X3006Y3094*
X2848*
Y3187*
X3035*
Y3153*
X3065Y3124*
G75*
G02X3081Y3140I52J-34*
G01*
G75*
G02Y3240I36J50*
G01*
G75*
G02X3064Y3259I36J50*
G01*
X3054*
G75*
G02X3032Y3268I0J32*
G01*
X3006Y3294*
X2848*
Y3387*
X3035*
Y3353*
X3065Y3324*
G75*
G02X3164Y3329I52J-34*
G01*
X3285*
Y3344*
X3449*
Y3314*
G75*
G02X3451Y3318I31J-24*
G01*
X3586Y3453*
X3525*
Y3399*
X3428*
Y3406*
X3260*
Y3453*
X2751*
G37*
X1725Y2390D02*
G36*
Y2447D01*
X1833*
Y2390*
X1860*
Y2505*
G75*
G02X1859Y2510I32J10*
G01*
X1832Y2537*
G75*
G02X1824Y2556I19J19*
G01*
Y2568*
X1783*
Y2542*
G75*
G02X1775Y2524I-27J0*
G01*
X1735Y2484*
G75*
G02X1716Y2476I-19J19*
G01*
X1711*
Y2456*
X1593*
Y2447*
X1613*
Y2390*
X1725*
G37*
X1898Y3340D02*
G36*
Y3239D01*
X1916*
Y3222*
X1923*
Y3237*
X2111*
Y3217*
X2118*
X2140Y3238*
Y3291*
X2118*
Y3340*
X2116*
Y3291*
X2018*
Y3340*
X2015*
Y3291*
X1918*
Y3340*
X1898*
G37*
X2316D02*
G36*
Y3291D01*
X2293*
Y3112*
X2410*
Y3083*
X2465Y3029*
X2485*
Y3084*
X2501*
G75*
G02X2497Y3103I41J19*
G01*
G75*
G02X2586I45*
G01*
G75*
G02X2582Y3084I-45*
G01*
X2603*
Y2984*
X2603*
X2635Y3016*
Y3094*
X2623*
Y3139*
X2544Y3218*
G75*
G02X2535Y3240I22J22*
G01*
Y3256*
X2508*
Y3271*
X2504*
G75*
G02X2482Y3280I0J32*
G01*
X2444Y3318*
G75*
G02X2435Y3340I22J22*
G01*
X2416*
Y3291*
X2317*
Y3340*
X2316*
G37*
X1750Y2687D02*
X1887D01*
Y2707*
X1885Y2709*
G75*
G02X1878Y2728I19J19*
G01*
Y2840*
G75*
G02X1885Y2859I27J0*
G01*
X1919Y2892*
Y2918*
X1824*
G75*
G02X1818Y2856I-32J-29*
G01*
Y2828*
G75*
G02X1810Y2809I-27J0*
G01*
X1769Y2768*
G75*
G02X1751Y2760I-19J19*
G01*
X1750*
Y2687*
G36*
X1887*
Y2707*
X1885Y2709*
G75*
G02X1878Y2728I19J19*
G01*
Y2840*
G75*
G02X1885Y2859I27J0*
G01*
X1919Y2892*
Y2918*
X1824*
G75*
G02X1818Y2856I-32J-29*
G01*
Y2828*
G75*
G02X1810Y2809I-27J0*
G01*
X1769Y2768*
G75*
G02X1751Y2760I-19J19*
G01*
X1750*
Y2687*
G37*
D02*
D27*
X2544Y2903D03*
Y2953D03*
Y3003D03*
Y3053D03*
X2557Y2115D03*
Y2165D03*
Y2215D03*
Y2265D03*
X2764Y2903D03*
Y2953D03*
Y3003D03*
Y3053D03*
X2777Y2115D03*
Y2165D03*
Y2215D03*
Y2265D03*
X2817Y2903D03*
Y2953D03*
Y3003D03*
Y3053D03*
D02*
D28*
X1067Y3333D03*
Y3423D03*
X1167Y3333D03*
Y3423D03*
X1267Y3333D03*
Y3423D03*
X1304Y2308D03*
Y2398D03*
X1367Y3333D03*
Y3423D03*
X1429Y2308D03*
Y2398D03*
X1466Y3333D03*
Y3423D03*
X1566Y2308D03*
Y2398D03*
Y3333D03*
Y3423D03*
X1666Y3333D03*
Y3423D03*
X1766Y3333D03*
Y3423D03*
X2154Y2308D03*
Y2398D03*
Y2508D03*
Y2598D03*
X3167Y2533D03*
Y2623D03*
Y2720D03*
Y2810D03*
X3254Y2720D03*
Y2810D03*
D02*
D29*
X1297Y1978D03*
Y2503D03*
Y2690D03*
Y2765D03*
X1387Y1978D03*
Y2503D03*
Y2690D03*
Y2765D03*
X1572Y2503D03*
X1661D03*
X1972Y3190D03*
Y3603D03*
X2022Y2078D03*
X2062Y3190D03*
Y3603D03*
X2112Y2078D03*
X2272Y2740D03*
Y2840D03*
Y2915D03*
Y2990D03*
Y3065D03*
X2362Y2740D03*
Y2840D03*
Y2915D03*
Y2990D03*
Y3065D03*
X2534Y2390D03*
X2624D03*
X2672Y3140D03*
X2697Y2590D03*
Y2678D03*
X2762Y3140D03*
X2787Y2590D03*
Y2678D03*
X2897Y3140D03*
Y3340D03*
X2909Y2165D03*
X2987Y3140D03*
Y3340D03*
X2999Y2165D03*
X3309Y3453D03*
X3399D03*
D02*
D72*
X1626Y218D03*
Y415D03*
Y1399D03*
Y1596D03*
X3004Y218D03*
Y612D03*
Y1202D03*
Y1596D03*
D02*
D78*
X754Y190D03*
Y3753D03*
X3929Y190D03*
Y3753D03*
D02*
D87*
X842Y3303D03*
D02*
D97*
X2917Y2380D03*
Y2600D03*
X2967Y2380D03*
Y2600D03*
X3017Y2380D03*
Y2600D03*
X3067Y2380D03*
Y2600D03*
D02*
D98*
X3317Y2178D03*
Y2378D03*
X3367Y3090D03*
Y3290D03*
D02*
D99*
X1779Y2365D03*
X1979D03*
X2167Y3603D03*
X2367D03*
X2579Y1978D03*
X2779D03*
D02*
D108*
X1067Y3740D03*
X1167D03*
X1267D03*
X1367D03*
X1466D03*
X1566D03*
X1666D03*
X1766D03*
X1866D03*
X1966D03*
D02*
D112*
X867Y440D03*
Y640D03*
Y1040D03*
Y1540D03*
X1067Y640D03*
X3117Y3090D03*
Y3190D03*
Y3290D03*
X3217Y3190D03*
X3530Y2069D03*
X4003Y2069D03*
D02*
D113*
X3667Y440D03*
Y640D03*
Y740D03*
X3767Y2940D03*
Y3140D03*
Y3240D03*
D02*
D114*
X2567Y3303D03*
Y3449D03*
X2692Y3303D03*
Y3449D03*
X3167Y2232D03*
Y2378D03*
D02*
D115*
X1067Y1940D03*
Y2140D03*
X2317Y2340D03*
Y2540D03*
D02*
D116*
X1067Y440D03*
D02*
D117*
Y1040D03*
Y1540D03*
D02*
D118*
X1756Y2628D03*
Y2978D03*
X1788Y2628D03*
Y2978D03*
X1819Y2628D03*
Y2978D03*
X1851Y2628D03*
Y2978D03*
X1882Y2628D03*
Y2978D03*
X1914Y2628D03*
Y2978D03*
X1945Y2628D03*
Y2978D03*
X1977Y2628D03*
Y2978D03*
D02*
D119*
X1691Y2692D03*
Y2724D03*
Y2755D03*
Y2787D03*
Y2818D03*
Y2850D03*
Y2881D03*
Y2913D03*
X2041Y2692D03*
Y2724D03*
Y2755D03*
Y2787D03*
Y2818D03*
Y2850D03*
Y2881D03*
Y2913D03*
D02*
D120*
X2021Y1978D03*
X2167D03*
D02*
D121*
X2977Y2896D03*
X3017Y2809D03*
X3057Y2896D03*
D02*
D122*
X3467Y1040D03*
Y1240D03*
Y1440D03*
X3867Y1040D03*
Y1240D03*
Y1440D03*
D02*
D123*
X3477Y3478D03*
X3657D03*
D02*
D124*
X3567Y3728D03*
D02*
D125*
X842Y3453D03*
D02*
D126*
X2867Y3690D03*
X3067D03*
X0Y0D02*
M02*
